{
.appVersion = "1342";
copyright = "Font Copyright Copyright 2019 Morisawa Inc. All rights reserved.";
customParameters = (
{
name = license;
value = "Google font";
},
{
name = vendorID;
value = MRSW;
},
{
name = panose;
value = (
2,
11,
4,
0,
0,
0,
0,
0,
0,
0
);
},
{
name = unicodeRanges;
value = (
0,
1,
2,
4,
5,
6,
7,
9,
29,
30,
31,
35,
36,
37,
38,
39,
40,
42,
43,
45,
46,
47,
48,
49,
50,
54,
55,
57,
59,
61,
65,
68
);
},
{
name = fsType;
value = (
);
},
{
name = trademark;
value = "BIZ UDMincho Medium is a trademark of Morisawa Inc.";
}
);
date = "2019-04-02 01:04:19 +0000";
designer = "TypeBank Co., Ltd.";
designerURL = "http://www.morisawa.co.jp/";
disablesAutomaticAlignment = 1;
familyName = "BIZ-UDPMinchoExt";
fontMaster = (
{
ascender = 1802;
capHeight = 1567;
custom = Heavy;
customParameters = (
{
name = typoAscender;
value = 1802;
},
{
name = typoDescender;
value = -246;
},
{
name = typoLineGap;
value = 0;
},
{
name = winAscent;
value = 1802;
},
{
name = winDescent;
value = 246;
},
{
name = hheaAscender;
value = 1802;
},
{
name = hheaDescender;
value = -246;
},
{
name = strikeoutPosition;
value = 727;
},
{
name = strikeoutSize;
value = 102;
},
{
name = underlinePosition;
value = -246;
},
{
name = underlineThickness;
value = 102;
},
{
name = hheaLineGap;
value = 0;
},
{
name = vheaVertAscender;
value = 1802;
},
{
name = vheaVertDescender;
value = 246;
},
{
name = vheaVertLineGap;
value = 0;
}
);
descender = -246;
id = "4E782664-D0D5-4FED-AFC2-B9212141A2ED";
weightValue = 400;
widthValue = 5;
xHeight = 1108;
}
);
glyphs = (
{
color = 3;
glyphname = Cdotaccent;
lastChange = "2022-11-09 21:05:26 +0000";
layers = (
{
background = {
paths = (
{
closed = 1;
nodes = (
"842 1026 LINE",
"770 1026 LINE",
"751 1139 OFFCURVE",
"723 1224 OFFCURVE",
"688 1280 CURVE SMOOTH",
"645 1349 OFFCURVE",
"595 1384 OFFCURVE",
"540 1384 CURVE SMOOTH",
"455 1384 OFFCURVE",
"390 1330 OFFCURVE",
"345 1221 CURVE SMOOTH",
"300 1114 OFFCURVE",
"278 963 OFFCURVE",
"278 766 CURVE SMOOTH",
"278 555 OFFCURVE",
"306 388 OFFCURVE",
"363 263 CURVE SMOOTH",
"415 149 OFFCURVE",
"480 92 OFFCURVE",
"559 92 CURVE SMOOTH",
"629 92 OFFCURVE",
"686 136 OFFCURVE",
"731 224 CURVE SMOOTH",
"762 285 OFFCURVE",
"790 376 OFFCURVE",
"815 498 CURVE",
"887 463 LINE",
"864 302 OFFCURVE",
"830 184 OFFCURVE",
"784 107 CURVE SMOOTH",
"726 10 OFFCURVE",
"644 -39 OFFCURVE",
"538 -39 CURVE SMOOTH",
"423 -39 OFFCURVE",
"327 32 OFFCURVE",
"252 174 CURVE SMOOTH",
"173 325 OFFCURVE",
"133 523 OFFCURVE",
"133 766 CURVE SMOOTH",
"133 997 OFFCURVE",
"168 1175 OFFCURVE",
"238 1302 CURVE SMOOTH",
"309 1429 OFFCURVE",
"407 1493 OFFCURVE",
"532 1493 CURVE SMOOTH",
"605 1493 OFFCURVE",
"667 1457 OFFCURVE",
"720 1384 CURVE SMOOTH",
"731 1368 OFFCURVE",
"742 1360 OFFCURVE",
"751 1360 CURVE SMOOTH",
"762 1360 OFFCURVE",
"771 1391 OFFCURVE",
"776 1454 CURVE",
"842 1454 LINE"
);
},
{
closed = 1;
nodes = (
"551 1801 OFFCURVE",
"568 1797 OFFCURVE",
"584 1790 CURVE SMOOTH",
"629 1769 OFFCURVE",
"652 1733 OFFCURVE",
"652 1682 CURVE SMOOTH",
"652 1649 OFFCURVE",
"640 1621 OFFCURVE",
"617 1598 CURVE SMOOTH",
"594 1575 OFFCURVE",
"565 1563 OFFCURVE",
"532 1563 CURVE SMOOTH",
"512 1563 OFFCURVE",
"493 1568 OFFCURVE",
"476 1578 CURVE SMOOTH",
"435 1601 OFFCURVE",
"414 1636 OFFCURVE",
"414 1683 CURVE SMOOTH",
"414 1718 OFFCURVE",
"427 1747 OFFCURVE",
"453 1770 CURVE SMOOTH",
"475 1791 OFFCURVE",
"502 1801 OFFCURVE",
"534 1801 CURVE SMOOTH"
);
}
);
};
layerId = "4E782664-D0D5-4FED-AFC2-B9212141A2ED";
paths = (
{
closed = 1;
nodes = (
"1509 987 LINE",
"1509 1470 LINE",
"1413 1470 LINE",
"1412 1409 OFFCURVE",
"1399 1389 OFFCURVE",
"1366 1389 CURVE SMOOTH",
"1346 1389 OFFCURVE",
"1323 1397 OFFCURVE",
"1292 1409 CURVE SMOOTH",
"1157 1466 OFFCURVE",
"1032 1493 OFFCURVE",
"911 1493 CURVE SMOOTH",
"674 1493 OFFCURVE",
"478 1416 OFFCURVE",
"339 1279 CURVE SMOOTH",
"200 1142 OFFCURVE",
"123 948 OFFCURVE",
"123 713 CURVE SMOOTH",
"123 490 OFFCURVE",
"201 304 OFFCURVE",
"338 170 CURVE SMOOTH",
"474 36 OFFCURVE",
"665 -41 OFFCURVE",
"893 -41 CURVE SMOOTH",
"1006 -41 OFFCURVE",
"1109 -23 OFFCURVE",
"1202 12 CURVE SMOOTH",
"1386 83 OFFCURVE",
"1522 219 OFFCURVE",
"1593 408 CURVE",
"1499 457 LINE",
"1418 240 OFFCURVE",
"1239 123 OFFCURVE",
"1008 123 CURVE SMOOTH",
"847 123 OFFCURVE",
"715 180 OFFCURVE",
"621 285 CURVE SMOOTH",
"527 389 OFFCURVE",
"475 540 OFFCURVE",
"475 725 CURVE SMOOTH",
"475 917 OFFCURVE",
"522 1076 OFFCURVE",
"604 1189 CURVE SMOOTH",
"686 1302 OFFCURVE",
"800 1366 OFFCURVE",
"936 1366 CURVE SMOOTH",
"1012 1366 OFFCURVE",
"1082 1351 OFFCURVE",
"1145 1322 CURVE SMOOTH",
"1272 1262 OFFCURVE",
"1366 1148 OFFCURVE",
"1413 987 CURVE"
);
},
{
closed = 1;
nodes = (
"923 1802 OFFCURVE",
"899 1796 OFFCURVE",
"878 1783 CURVE SMOOTH",
"834 1757 OFFCURVE",
"806 1711 OFFCURVE",
"806 1659 CURVE SMOOTH",
"806 1633 OFFCURVE",
"813 1609 OFFCURVE",
"826 1588 CURVE SMOOTH",
"852 1544 OFFCURVE",
"897 1516 OFFCURVE",
"949 1516 CURVE SMOOTH",
"975 1516 OFFCURVE",
"999 1523 OFFCURVE",
"1021 1536 CURVE SMOOTH",
"1065 1562 OFFCURVE",
"1093 1607 OFFCURVE",
"1093 1659 CURVE SMOOTH",
"1093 1685 OFFCURVE",
"1087 1709 OFFCURVE",
"1074 1731 CURVE SMOOTH",
"1048 1774 OFFCURVE",
"1001 1802 OFFCURVE",
"949 1802 CURVE SMOOTH"
);
}
);
vertWidth = 2048;
width = 1720;
}
);
unicode = 010A;
},
{
color = 3;
glyphname = Dcroat;
lastChange = "2022-11-09 20:39:01 +0000";
layers = (
{
background = {
paths = (
{
closed = 1;
nodes = (
"71 1556 LINE",
"440 1556 LINE SMOOTH",
"593 1556 OFFCURVE",
"713 1481 OFFCURVE",
"802 1332 CURVE SMOOTH",
"880 1201 OFFCURVE",
"919 1017 OFFCURVE",
"919 781 CURVE SMOOTH",
"919 517 OFFCURVE",
"869 314 OFFCURVE",
"769 171 CURVE SMOOTH",
"688 57 OFFCURVE",
"579 0 OFFCURVE",
"440 0 CURVE SMOOTH",
"71 0 LINE",
"71 74 LINE",
"107 79 OFFCURVE",
"132 89 OFFCURVE",
"147 104 CURVE SMOOTH",
"161 118 OFFCURVE",
"168 142 OFFCURVE",
"168 176 CURVE SMOOTH",
"168 803 LINE",
"53 803 LINE",
"53 895 LINE",
"168 895 LINE",
"168 1384 LINE SMOOTH",
"168 1419 OFFCURVE",
"160 1444 OFFCURVE",
"145 1458 CURVE SMOOTH",
"132 1470 OFFCURVE",
"107 1478 OFFCURVE",
"71 1482 CURVE"
);
},
{
closed = 1;
nodes = (
"301 803 LINE",
"301 195 LINE SMOOTH",
"301 159 OFFCURVE",
"307 134 OFFCURVE",
"319 121 CURVE SMOOTH",
"330 108 OFFCURVE",
"354 102 OFFCURVE",
"391 102 CURVE SMOOTH",
"446 102 LINE SMOOTH",
"549 102 OFFCURVE",
"629 161 OFFCURVE",
"686 278 CURVE SMOOTH",
"743 397 OFFCURVE",
"772 570 OFFCURVE",
"772 797 CURVE SMOOTH",
"772 988 OFFCURVE",
"757 1129 OFFCURVE",
"726 1219 CURVE SMOOTH",
"672 1376 OFFCURVE",
"577 1454 OFFCURVE",
"440 1454 CURVE SMOOTH",
"378 1454 LINE SMOOTH",
"348 1454 OFFCURVE",
"328 1448 OFFCURVE",
"317 1437 CURVE SMOOTH",
"306 1426 OFFCURVE",
"301 1405 OFFCURVE",
"301 1374 CURVE SMOOTH",
"301 895 LINE",
"467 895 LINE",
"467 803 LINE"
);
}
);
};
layerId = "4E782664-D0D5-4FED-AFC2-B9212141A2ED";
paths = (
{
closed = 1;
nodes = (
"41 1556 LINE",
"41 1456 LINE",
"137 1453 OFFCURVE",
"196 1442 OFFCURVE",
"229 1414 CURVE SMOOTH",
"261 1386 OFFCURVE",
"271 1338 OFFCURVE",
"268 1262 CURVE",
"268 883 LINE",
"41 883 LINE",
"41 756 LINE",
"268 756 LINE",
"268 299 LINE",
"270 248 OFFCURVE",
"265 209 OFFCURVE",
"253 182 CURVE SMOOTH",
"229 126 OFFCURVE",
"166 107 OFFCURVE",
"41 100 CURVE",
"41 0 LINE",
"829 0 LINE SMOOTH",
"882 0 OFFCURVE",
"935 3 OFFCURVE",
"987 9 CURVE SMOOTH",
"1090 20 OFFCURVE",
"1183 42 OFFCURVE",
"1251 70 CURVE SMOOTH",
"1336 106 OFFCURVE",
"1409 159 OFFCURVE",
"1470 228 CURVE SMOOTH",
"1592 366 OFFCURVE",
"1659 558 OFFCURVE",
"1659 782 CURVE SMOOTH",
"1659 883 OFFCURVE",
"1645 978 OFFCURVE",
"1617 1065 CURVE SMOOTH",
"1561 1239 OFFCURVE",
"1452 1377 OFFCURVE",
"1300 1458 CURVE SMOOTH",
"1187 1522 OFFCURVE",
"1016 1556 OFFCURVE",
"825 1556 CURVE SMOOTH"
);
},
{
closed = 1;
nodes = (
"582 756 LINE",
"858 756 LINE",
"858 883 LINE",
"582 883 LINE",
"582 1247 LINE",
"580 1293 OFFCURVE",
"584 1330 OFFCURVE",
"593 1357 CURVE SMOOTH",
"611 1411 OFFCURVE",
"658 1433 OFFCURVE",
"745 1434 CURVE SMOOTH",
"801 1434 LINE SMOOTH",
"942 1434 OFFCURVE",
"1044 1400 OFFCURVE",
"1124 1325 CURVE SMOOTH",
"1245 1212 OFFCURVE",
"1309 1030 OFFCURVE",
"1309 797 CURVE SMOOTH",
"1309 654 OFFCURVE",
"1289 533 OFFCURVE",
"1249 433 CURVE SMOOTH",
"1168 232 OFFCURVE",
"1014 123 OFFCURVE",
"797 123 CURVE SMOOTH",
"745 123 LINE SMOOTH",
"618 122 OFFCURVE",
"575 170 OFFCURVE",
"582 309 CURVE"
);
}
);
vertWidth = 2048;
width = 1782;
}
);
unicode = 0110;
},
{
color = 3;
glyphname = Ebreve;
lastChange = "2022-11-09 21:06:07 +0000";
layers = (
{
background = {
paths = (
{
closed = 1;
nodes = (
"102 1454 LINE",
"837 1454 LINE",
"851 1063 LINE",
"788 1063 LINE",
"775 1168 OFFCURVE",
"752 1244 OFFCURVE",
"719 1291 CURVE SMOOTH",
"690 1333 OFFCURVE",
"644 1354 OFFCURVE",
"581 1354 CURVE SMOOTH",
"427 1354 LINE SMOOTH",
"393 1354 OFFCURVE",
"370 1348 OFFCURVE",
"357 1335 CURVE SMOOTH",
"346 1324 OFFCURVE",
"341 1301 OFFCURVE",
"341 1268 CURVE SMOOTH",
"341 821 LINE",
"474 821 LINE SMOOTH",
"527 821 OFFCURVE",
"564 843 OFFCURVE",
"584 888 CURVE SMOOTH",
"599 921 OFFCURVE",
"607 965 OFFCURVE",
"609 1020 CURVE",
"675 1020 LINE",
"675 496 LINE",
"609 496 LINE",
"606 573 OFFCURVE",
"594 630 OFFCURVE",
"575 666 CURVE SMOOTH",
"554 703 OFFCURVE",
"521 721 OFFCURVE",
"474 721 CURVE SMOOTH",
"341 721 LINE",
"341 186 LINE SMOOTH",
"341 153 OFFCURVE",
"348 131 OFFCURVE",
"362 119 CURVE SMOOTH",
"376 106 OFFCURVE",
"402 100 OFFCURVE",
"441 100 CURVE SMOOTH",
"570 100 LINE SMOOTH",
"652 100 OFFCURVE",
"711 126 OFFCURVE",
"747 178 CURVE SMOOTH",
"776 221 OFFCURVE",
"799 301 OFFCURVE",
"814 418 CURVE",
"876 418 LINE",
"857 0 LINE",
"102 0 LINE",
"102 72 LINE",
"143 81 OFFCURVE",
"171 91 OFFCURVE",
"185 104 CURVE SMOOTH",
"200 118 OFFCURVE",
"208 141 OFFCURVE",
"208 172 CURVE SMOOTH",
"208 1282 LINE SMOOTH",
"208 1317 OFFCURVE",
"200 1341 OFFCURVE",
"185 1354 CURVE SMOOTH",
"172 1365 OFFCURVE",
"144 1375 OFFCURVE",
"102 1382 CURVE"
);
},
{
closed = 1;
nodes = (
"813 1800 LINE",
"767 1642 OFFCURVE",
"663 1563 OFFCURVE",
"501 1563 CURVE SMOOTH",
"339 1563 OFFCURVE",
"236 1642 OFFCURVE",
"191 1800 CURVE",
"275 1800 LINE",
"310 1719 OFFCURVE",
"386 1678 OFFCURVE",
"502 1678 CURVE SMOOTH",
"617 1678 OFFCURVE",
"692 1719 OFFCURVE",
"729 1800 CURVE"
);
}
);
};
layerId = "4E782664-D0D5-4FED-AFC2-B9212141A2ED";
paths = (
{
closed = 1;
nodes = (
"51 1454 LINE",
"51 1360 LINE",
"147 1357 OFFCURVE",
"207 1347 OFFCURVE",
"240 1321 CURVE SMOOTH",
"272 1295 OFFCURVE",
"282 1250 OFFCURVE",
"279 1178 CURVE",
"279 279 LINE",
"282 208 OFFCURVE",
"271 164 OFFCURVE",
"239 138 CURVE SMOOTH",
"206 112 OFFCURVE",
"147 101 OFFCURVE",
"51 98 CURVE",
"51 0 LINE",
"1391 0 LINE",
"1430 481 LINE",
"1343 481 LINE",
"1286 225 OFFCURVE",
"1128 111 OFFCURVE",
"852 111 CURVE SMOOTH",
"754 111 LINE SMOOTH",
"627 111 OFFCURVE",
"585 156 OFFCURVE",
"590 285 CURVE",
"590 692 LINE",
"711 692 LINE SMOOTH",
"776 692 OFFCURVE",
"830 682 OFFCURVE",
"871 666 CURVE SMOOTH",
"953 633 OFFCURVE",
"992 565 OFFCURVE",
"997 453 CURVE",
"1092 453 LINE",
"1092 1036 LINE",
"997 1036 LINE",
"994 979 OFFCURVE",
"982 934 OFFCURVE",
"963 901 CURVE SMOOTH",
"923 833 OFFCURVE",
"844 803 OFFCURVE",
"711 803 CURVE SMOOTH",
"590 803 LINE",
"590 1167 LINE",
"588 1210 OFFCURVE",
"592 1245 OFFCURVE",
"601 1270 CURVE SMOOTH",
"620 1321 OFFCURVE",
"667 1343 OFFCURVE",
"754 1343 CURVE SMOOTH",
"852 1343 LINE SMOOTH",
"1104 1343 OFFCURVE",
"1243 1239 OFFCURVE",
"1294 995 CURVE",
"1380 995 LINE",
"1350 1454 LINE"
);
},
{
closed = 1;
nodes = (
"511 1800 LINE",
"524 1735 OFFCURVE",
"547 1683 OFFCURVE",
"578 1642 CURVE SMOOTH",
"641 1560 OFFCURVE",
"732 1522 OFFCURVE",
"833 1522 CURVE SMOOTH",
"884 1522 OFFCURVE",
"931 1532 OFFCURVE",
"975 1551 CURVE SMOOTH",
"1063 1590 OFFCURVE",
"1130 1671 OFFCURVE",
"1155 1800 CURVE",
"1038 1800 LINE",
"1003 1727 OFFCURVE",
"935 1677 OFFCURVE",
"831 1677 CURVE SMOOTH",
"726 1677 OFFCURVE",
"663 1727 OFFCURVE",
"628 1800 CURVE"
);
}
);
vertWidth = 2048;
width = 1577;
}
);
unicode = 0114;
},
{
color = 3;
glyphname = Edotaccent;
lastChange = "2022-11-09 21:05:16 +0000";
layers = (
{
background = {
paths = (
{
closed = 1;
nodes = (
"102 1454 LINE",
"837 1454 LINE",
"851 1063 LINE",
"788 1063 LINE",
"775 1168 OFFCURVE",
"752 1244 OFFCURVE",
"719 1291 CURVE SMOOTH",
"690 1333 OFFCURVE",
"644 1354 OFFCURVE",
"581 1354 CURVE SMOOTH",
"427 1354 LINE SMOOTH",
"393 1354 OFFCURVE",
"370 1348 OFFCURVE",
"357 1335 CURVE SMOOTH",
"346 1324 OFFCURVE",
"341 1301 OFFCURVE",
"341 1268 CURVE SMOOTH",
"341 821 LINE",
"474 821 LINE SMOOTH",
"527 821 OFFCURVE",
"564 843 OFFCURVE",
"584 888 CURVE SMOOTH",
"599 921 OFFCURVE",
"607 965 OFFCURVE",
"609 1020 CURVE",
"675 1020 LINE",
"675 496 LINE",
"609 496 LINE",
"606 573 OFFCURVE",
"594 630 OFFCURVE",
"575 666 CURVE SMOOTH",
"554 703 OFFCURVE",
"521 721 OFFCURVE",
"474 721 CURVE SMOOTH",
"341 721 LINE",
"341 186 LINE SMOOTH",
"341 153 OFFCURVE",
"348 131 OFFCURVE",
"362 119 CURVE SMOOTH",
"376 106 OFFCURVE",
"402 100 OFFCURVE",
"441 100 CURVE SMOOTH",
"570 100 LINE SMOOTH",
"652 100 OFFCURVE",
"711 126 OFFCURVE",
"747 178 CURVE SMOOTH",
"776 221 OFFCURVE",
"799 301 OFFCURVE",
"814 418 CURVE",
"876 418 LINE",
"857 0 LINE",
"102 0 LINE",
"102 72 LINE",
"143 81 OFFCURVE",
"171 91 OFFCURVE",
"185 104 CURVE SMOOTH",
"200 118 OFFCURVE",
"208 141 OFFCURVE",
"208 172 CURVE SMOOTH",
"208 1282 LINE SMOOTH",
"208 1317 OFFCURVE",
"200 1341 OFFCURVE",
"185 1354 CURVE SMOOTH",
"172 1365 OFFCURVE",
"144 1375 OFFCURVE",
"102 1382 CURVE"
);
},
{
closed = 1;
nodes = (
"531 1801 OFFCURVE",
"548 1797 OFFCURVE",
"564 1790 CURVE SMOOTH",
"609 1769 OFFCURVE",
"632 1733 OFFCURVE",
"632 1682 CURVE SMOOTH",
"632 1649 OFFCURVE",
"620 1621 OFFCURVE",
"597 1598 CURVE SMOOTH",
"574 1575 OFFCURVE",
"545 1563 OFFCURVE",
"512 1563 CURVE SMOOTH",
"492 1563 OFFCURVE",
"473 1568 OFFCURVE",
"456 1578 CURVE SMOOTH",
"415 1601 OFFCURVE",
"394 1636 OFFCURVE",
"394 1683 CURVE SMOOTH",
"394 1718 OFFCURVE",
"407 1747 OFFCURVE",
"433 1770 CURVE SMOOTH",
"455 1791 OFFCURVE",
"482 1801 OFFCURVE",
"514 1801 CURVE SMOOTH"
);
}
);
};
layerId = "4E782664-D0D5-4FED-AFC2-B9212141A2ED";
paths = (
{
closed = 1;
nodes = (
"51 1454 LINE",
"51 1360 LINE",
"147 1357 OFFCURVE",
"207 1347 OFFCURVE",
"240 1321 CURVE SMOOTH",
"272 1295 OFFCURVE",
"282 1250 OFFCURVE",
"279 1178 CURVE",
"279 279 LINE",
"282 208 OFFCURVE",
"271 164 OFFCURVE",
"239 138 CURVE SMOOTH",
"206 112 OFFCURVE",
"147 101 OFFCURVE",
"51 98 CURVE",
"51 0 LINE",
"1391 0 LINE",
"1430 481 LINE",
"1343 481 LINE",
"1286 225 OFFCURVE",
"1128 111 OFFCURVE",
"852 111 CURVE SMOOTH",
"754 111 LINE SMOOTH",
"627 111 OFFCURVE",
"585 156 OFFCURVE",
"590 285 CURVE",
"590 692 LINE",
"711 692 LINE SMOOTH",
"776 692 OFFCURVE",
"830 682 OFFCURVE",
"871 666 CURVE SMOOTH",
"953 633 OFFCURVE",
"992 565 OFFCURVE",
"997 453 CURVE",
"1092 453 LINE",
"1092 1036 LINE",
"997 1036 LINE",
"994 979 OFFCURVE",
"982 934 OFFCURVE",
"963 901 CURVE SMOOTH",
"923 833 OFFCURVE",
"844 803 OFFCURVE",
"711 803 CURVE SMOOTH",
"590 803 LINE",
"590 1167 LINE",
"588 1210 OFFCURVE",
"592 1245 OFFCURVE",
"601 1270 CURVE SMOOTH",
"620 1321 OFFCURVE",
"667 1343 OFFCURVE",
"754 1343 CURVE SMOOTH",
"852 1343 LINE SMOOTH",
"1104 1343 OFFCURVE",
"1243 1239 OFFCURVE",
"1294 995 CURVE",
"1380 995 LINE",
"1350 1454 LINE"
);
},
{
closed = 1;
nodes = (
"773 1802 OFFCURVE",
"749 1796 OFFCURVE",
"728 1783 CURVE SMOOTH",
"684 1757 OFFCURVE",
"656 1711 OFFCURVE",
"656 1659 CURVE SMOOTH",
"656 1633 OFFCURVE",
"663 1609 OFFCURVE",
"676 1588 CURVE SMOOTH",
"702 1544 OFFCURVE",
"747 1516 OFFCURVE",
"799 1516 CURVE SMOOTH",
"825 1516 OFFCURVE",
"849 1523 OFFCURVE",
"871 1536 CURVE SMOOTH",
"915 1562 OFFCURVE",
"943 1607 OFFCURVE",
"943 1659 CURVE SMOOTH",
"943 1685 OFFCURVE",
"937 1709 OFFCURVE",
"924 1731 CURVE SMOOTH",
"898 1774 OFFCURVE",
"851 1802 OFFCURVE",
"799 1802 CURVE SMOOTH"
);
}
);
vertWidth = 2048;
width = 1577;
}
);
unicode = 0116;
},
{
color = 3;
glyphname = Gbreve;
lastChange = "2022-11-09 21:06:12 +0000";
layers = (
{
background = {
paths = (
{
closed = 1;
nodes = (
"786 -39 LINE",
"741 154 LINE",
"688 25 OFFCURVE",
"608 -39 OFFCURVE",
"500 -39 CURVE SMOOTH",
"391 -39 OFFCURVE",
"302 27 OFFCURVE",
"231 160 CURVE SMOOTH",
"155 302 OFFCURVE",
"117 491 OFFCURVE",
"117 728 CURVE SMOOTH",
"117 950 OFFCURVE",
"153 1131 OFFCURVE",
"224 1271 CURVE SMOOTH",
"299 1419 OFFCURVE",
"400 1493 OFFCURVE",
"527 1493 CURVE SMOOTH",
"613 1493 OFFCURVE",
"678 1461 OFFCURVE",
"723 1397 CURVE SMOOTH",
"738 1375 OFFCURVE",
"750 1364 OFFCURVE",
"759 1364 CURVE SMOOTH",
"776 1364 OFFCURVE",
"786 1394 OFFCURVE",
"791 1454 CURVE",
"852 1454 LINE",
"852 1049 LINE",
"782 1049 LINE",
"759 1158 OFFCURVE",
"732 1237 OFFCURVE",
"702 1286 CURVE SMOOTH",
"661 1351 OFFCURVE",
"606 1384 OFFCURVE",
"536 1384 CURVE SMOOTH",
"457 1384 OFFCURVE",
"394 1330 OFFCURVE",
"347 1223 CURVE SMOOTH",
"295 1105 OFFCURVE",
"269 939 OFFCURVE",
"269 725 CURVE SMOOTH",
"269 506 OFFCURVE",
"298 336 OFFCURVE",
"355 213 CURVE SMOOTH",
"399 118 OFFCURVE",
"451 70 OFFCURVE",
"512 70 CURVE SMOOTH",
"573 70 OFFCURVE",
"624 105 OFFCURVE",
"666 174 CURVE SMOOTH",
"704 238 OFFCURVE",
"723 312 OFFCURVE",
"723 397 CURVE SMOOTH",
"723 525 LINE SMOOTH",
"723 567 OFFCURVE",
"715 597 OFFCURVE",
"699 615 CURVE SMOOTH",
"689 626 OFFCURVE",
"659 634 OFFCURVE",
"610 641 CURVE",
"610 713 LINE",
"954 713 LINE",
"954 641 LINE",
"917 634 OFFCURVE",
"893 624 OFFCURVE",
"881 611 CURVE SMOOTH",
"867 596 OFFCURVE",
"860 563 OFFCURVE",
"860 510 CURVE SMOOTH",
"860 -39 LINE"
);
}
);
};
layerId = "4E782664-D0D5-4FED-AFC2-B9212141A2ED";
paths = (
{
closed = 1;
nodes = (
"1497 -39 LINE",
"1618 -39 LINE",
"1618 449 LINE",
"1616 497 OFFCURVE",
"1619 534 OFFCURVE",
"1628 559 CURVE SMOOTH",
"1644 610 OFFCURVE",
"1694 627 OFFCURVE",
"1798 631 CURVE",
"1798 725 LINE",
"1104 725 LINE",
"1104 631 LINE",
"1200 628 OFFCURVE",
"1259 618 OFFCURVE",
"1292 592 CURVE SMOOTH",
"1324 566 OFFCURVE",
"1331 521 OFFCURVE",
"1331 449 CURVE SMOOTH",
"1331 373 LINE SMOOTH",
"1331 288 OFFCURVE",
"1319 244 OFFCURVE",
"1284 207 CURVE SMOOTH",
"1233 152 OFFCURVE",
"1116 117 OFFCURVE",
"983 117 CURVE SMOOTH",
"839 117 OFFCURVE",
"713 180 OFFCURVE",
"621 289 CURVE SMOOTH",
"529 398 OFFCURVE",
"475 549 OFFCURVE",
"475 725 CURVE SMOOTH",
"475 920 OFFCURVE",
"523 1079 OFFCURVE",
"610 1192 CURVE SMOOTH",
"697 1304 OFFCURVE",
"818 1366 OFFCURVE",
"965 1366 CURVE SMOOTH",
"1212 1366 OFFCURVE",
"1378 1255 OFFCURVE",
"1473 1006 CURVE",
"1573 1006 LINE",
"1573 1470 LINE",
"1473 1470 LINE",
"1472 1439 OFFCURVE",
"1468 1418 OFFCURVE",
"1461 1407 CURVE SMOOTH",
"1447 1384 OFFCURVE",
"1416 1389 OFFCURVE",
"1393 1397 CURVE SMOOTH",
"1381 1400 OFFCURVE",
"1367 1404 OFFCURVE",
"1352 1409 CURVE SMOOTH",
"1311 1426 OFFCURVE",
"1267 1441 OFFCURVE",
"1220 1454 CURVE SMOOTH",
"1126 1478 OFFCURVE",
"1029 1493 OFFCURVE",
"944 1493 CURVE SMOOTH",
"703 1493 OFFCURVE",
"499 1414 OFFCURVE",
"353 1275 CURVE SMOOTH",
"207 1135 OFFCURVE",
"123 942 OFFCURVE",
"123 713 CURVE SMOOTH",
"123 493 OFFCURVE",
"200 307 OFFCURVE",
"335 173 CURVE SMOOTH",
"470 39 OFFCURVE",
"658 -39 OFFCURVE",
"881 -39 CURVE SMOOTH",
"1080 -39 OFFCURVE",
"1237 10 OFFCURVE",
"1358 113 CURVE"
);
},
{
closed = 1;
nodes = (
"626 1800 LINE",
"639 1735 OFFCURVE",
"662 1683 OFFCURVE",
"693 1642 CURVE SMOOTH",
"756 1560 OFFCURVE",
"847 1522 OFFCURVE",
"948 1522 CURVE SMOOTH",
"999 1522 OFFCURVE",
"1046 1532 OFFCURVE",
"1090 1551 CURVE SMOOTH",
"1178 1590 OFFCURVE",
"1245 1671 OFFCURVE",
"1270 1800 CURVE",
"1153 1800 LINE",
"1118 1727 OFFCURVE",
"1050 1677 OFFCURVE",
"946 1677 CURVE SMOOTH",
"841 1677 OFFCURVE",
"778 1727 OFFCURVE",
"743 1800 CURVE"
);
}
);
vertWidth = 2048;
width = 1864;
}
);
unicode = 011E;
},
{
color = 3;
glyphname = Gcommaaccent;
lastChange = "2022-11-09 20:41:04 +0000";
layers = (
{
background = {
paths = (
{
closed = 1;
nodes = (
"1497 62 LINE",
"1618 62 LINE",
"1618 550 LINE",
"1616 598 OFFCURVE",
"1619 635 OFFCURVE",
"1628 660 CURVE SMOOTH",
"1644 711 OFFCURVE",
"1694 728 OFFCURVE",
"1798 732 CURVE",
"1798 826 LINE",
"1104 826 LINE",
"1104 732 LINE",
"1200 729 OFFCURVE",
"1259 719 OFFCURVE",
"1292 693 CURVE SMOOTH",
"1324 667 OFFCURVE",
"1334 622 OFFCURVE",
"1331 550 CURVE SMOOTH",
"1331 474 LINE SMOOTH",
"1331 389 OFFCURVE",
"1319 345 OFFCURVE",
"1284 308 CURVE SMOOTH",
"1233 253 OFFCURVE",
"1116 218 OFFCURVE",
"983 218 CURVE SMOOTH",
"839 218 OFFCURVE",
"713 281 OFFCURVE",
"621 390 CURVE SMOOTH",
"529 499 OFFCURVE",
"475 650 OFFCURVE",
"475 826 CURVE SMOOTH",
"475 1021 OFFCURVE",
"523 1180 OFFCURVE",
"610 1293 CURVE SMOOTH",
"697 1405 OFFCURVE",
"818 1467 OFFCURVE",
"965 1467 CURVE SMOOTH",
"1212 1467 OFFCURVE",
"1378 1356 OFFCURVE",
"1473 1107 CURVE",
"1573 1107 LINE",
"1573 1571 LINE",
"1473 1571 LINE",
"1472 1540 OFFCURVE",
"1468 1519 OFFCURVE",
"1461 1508 CURVE SMOOTH",
"1447 1485 OFFCURVE",
"1416 1490 OFFCURVE",
"1393 1498 CURVE SMOOTH",
"1381 1501 OFFCURVE",
"1367 1505 OFFCURVE",
"1352 1510 CURVE SMOOTH",
"1311 1527 OFFCURVE",
"1267 1542 OFFCURVE",
"1220 1555 CURVE SMOOTH",
"1126 1579 OFFCURVE",
"1029 1594 OFFCURVE",
"944 1594 CURVE SMOOTH",
"703 1594 OFFCURVE",
"499 1515 OFFCURVE",
"353 1376 CURVE SMOOTH",
"207 1236 OFFCURVE",
"123 1043 OFFCURVE",
"123 814 CURVE SMOOTH",
"123 594 OFFCURVE",
"200 408 OFFCURVE",
"335 274 CURVE SMOOTH",
"470 140 OFFCURVE",
"658 62 OFFCURVE",
"881 62 CURVE SMOOTH",
"1080 62 OFFCURVE",
"1237 111 OFFCURVE",
"1358 214 CURVE"
);
}
);
};
layerId = "4E782664-D0D5-4FED-AFC2-B9212141A2ED";
paths = (
{
closed = 1;
nodes = (
"796 -191 LINE",
"830 -171 OFFCURVE",
"848 -151 OFFCURVE",
"850 -130 CURVE",
"779 -130 OFFCURVE",
"730 -109 OFFCURVE",
"730 -56 CURVE SMOOTH",
"730 -6 OFFCURVE",
"775 21 OFFCURVE",
"839 21 CURVE SMOOTH",
"908 21 OFFCURVE",
"959 -10 OFFCURVE",
"959 -77 CURVE SMOOTH",
"959 -153 OFFCURVE",
"910 -199 OFFCURVE",
"837 -246 CURVE"
);
},
{
closed = 1;
nodes = (
"1497 62 LINE",
"1618 62 LINE",
"1618 550 LINE",
"1616 598 OFFCURVE",
"1619 635 OFFCURVE",
"1628 660 CURVE SMOOTH",
"1644 711 OFFCURVE",
"1694 728 OFFCURVE",
"1798 732 CURVE",
"1798 826 LINE",
"1104 826 LINE",
"1104 732 LINE",
"1200 729 OFFCURVE",
"1259 719 OFFCURVE",
"1292 693 CURVE SMOOTH",
"1324 667 OFFCURVE",
"1334 622 OFFCURVE",
"1331 550 CURVE SMOOTH",
"1331 474 LINE SMOOTH",
"1331 389 OFFCURVE",
"1319 345 OFFCURVE",
"1284 308 CURVE SMOOTH",
"1233 253 OFFCURVE",
"1116 218 OFFCURVE",
"983 218 CURVE SMOOTH",
"839 218 OFFCURVE",
"713 281 OFFCURVE",
"621 390 CURVE SMOOTH",
"529 499 OFFCURVE",
"475 650 OFFCURVE",
"475 826 CURVE SMOOTH",
"475 1021 OFFCURVE",
"523 1180 OFFCURVE",
"610 1293 CURVE SMOOTH",
"697 1405 OFFCURVE",
"818 1467 OFFCURVE",
"965 1467 CURVE SMOOTH",
"1212 1467 OFFCURVE",
"1378 1356 OFFCURVE",
"1473 1107 CURVE",
"1573 1107 LINE",
"1573 1571 LINE",
"1473 1571 LINE",
"1472 1540 OFFCURVE",
"1468 1519 OFFCURVE",
"1461 1508 CURVE SMOOTH",
"1447 1485 OFFCURVE",
"1416 1490 OFFCURVE",
"1393 1498 CURVE SMOOTH",
"1381 1501 OFFCURVE",
"1367 1505 OFFCURVE",
"1352 1510 CURVE SMOOTH",
"1311 1527 OFFCURVE",
"1267 1542 OFFCURVE",
"1220 1555 CURVE SMOOTH",
"1126 1579 OFFCURVE",
"1029 1594 OFFCURVE",
"944 1594 CURVE SMOOTH",
"703 1594 OFFCURVE",
"499 1515 OFFCURVE",
"353 1376 CURVE SMOOTH",
"207 1236 OFFCURVE",
"123 1043 OFFCURVE",
"123 814 CURVE SMOOTH",
"123 594 OFFCURVE",
"200 408 OFFCURVE",
"335 274 CURVE SMOOTH",
"470 140 OFFCURVE",
"658 62 OFFCURVE",
"881 62 CURVE SMOOTH",
"1080 62 OFFCURVE",
"1237 111 OFFCURVE",
"1358 214 CURVE"
);
}
);
vertWidth = 2048;
width = 1864;
}
);
unicode = 0122;
},
{
color = 3;
glyphname = Gdotaccent;
lastChange = "2022-11-09 21:05:09 +0000";
layers = (
{
background = {
paths = (
{
closed = 1;
nodes = (
"786 -39 LINE",
"741 154 LINE",
"688 25 OFFCURVE",
"608 -39 OFFCURVE",
"500 -39 CURVE SMOOTH",
"391 -39 OFFCURVE",
"302 27 OFFCURVE",
"231 160 CURVE SMOOTH",
"155 302 OFFCURVE",
"117 491 OFFCURVE",
"117 728 CURVE SMOOTH",
"117 950 OFFCURVE",
"153 1131 OFFCURVE",
"224 1271 CURVE SMOOTH",
"299 1419 OFFCURVE",
"400 1493 OFFCURVE",
"527 1493 CURVE SMOOTH",
"613 1493 OFFCURVE",
"678 1461 OFFCURVE",
"723 1397 CURVE SMOOTH",
"738 1375 OFFCURVE",
"750 1364 OFFCURVE",
"759 1364 CURVE SMOOTH",
"776 1364 OFFCURVE",
"786 1394 OFFCURVE",
"791 1454 CURVE",
"852 1454 LINE",
"852 1049 LINE",
"782 1049 LINE",
"759 1158 OFFCURVE",
"732 1237 OFFCURVE",
"702 1286 CURVE SMOOTH",
"661 1351 OFFCURVE",
"606 1384 OFFCURVE",
"536 1384 CURVE SMOOTH",
"457 1384 OFFCURVE",
"394 1330 OFFCURVE",
"347 1223 CURVE SMOOTH",
"295 1105 OFFCURVE",
"269 939 OFFCURVE",
"269 725 CURVE SMOOTH",
"269 506 OFFCURVE",
"298 336 OFFCURVE",
"355 213 CURVE SMOOTH",
"399 118 OFFCURVE",
"451 70 OFFCURVE",
"512 70 CURVE SMOOTH",
"573 70 OFFCURVE",
"624 105 OFFCURVE",
"666 174 CURVE SMOOTH",
"704 238 OFFCURVE",
"723 312 OFFCURVE",
"723 397 CURVE SMOOTH",
"723 525 LINE SMOOTH",
"723 567 OFFCURVE",
"715 597 OFFCURVE",
"699 615 CURVE SMOOTH",
"689 626 OFFCURVE",
"659 634 OFFCURVE",
"610 641 CURVE",
"610 713 LINE",
"954 713 LINE",
"954 641 LINE",
"917 634 OFFCURVE",
"893 624 OFFCURVE",
"881 611 CURVE SMOOTH",
"867 596 OFFCURVE",
"860 563 OFFCURVE",
"860 510 CURVE SMOOTH",
"860 -39 LINE"
);
}
);
};
layerId = "4E782664-D0D5-4FED-AFC2-B9212141A2ED";
paths = (
{
closed = 1;
nodes = (
"1497 -39 LINE",
"1618 -39 LINE",
"1618 449 LINE",
"1616 497 OFFCURVE",
"1619 534 OFFCURVE",
"1628 559 CURVE SMOOTH",
"1644 610 OFFCURVE",
"1694 627 OFFCURVE",
"1798 631 CURVE",
"1798 725 LINE",
"1104 725 LINE",
"1104 631 LINE",
"1200 628 OFFCURVE",
"1259 618 OFFCURVE",
"1292 592 CURVE SMOOTH",
"1324 566 OFFCURVE",
"1331 521 OFFCURVE",
"1331 449 CURVE SMOOTH",
"1331 373 LINE SMOOTH",
"1331 288 OFFCURVE",
"1319 244 OFFCURVE",
"1284 207 CURVE SMOOTH",
"1233 152 OFFCURVE",
"1116 117 OFFCURVE",
"983 117 CURVE SMOOTH",
"839 117 OFFCURVE",
"713 180 OFFCURVE",
"621 289 CURVE SMOOTH",
"529 398 OFFCURVE",
"475 549 OFFCURVE",
"475 725 CURVE SMOOTH",
"475 920 OFFCURVE",
"523 1079 OFFCURVE",
"610 1192 CURVE SMOOTH",
"697 1304 OFFCURVE",
"818 1366 OFFCURVE",
"965 1366 CURVE SMOOTH",
"1212 1366 OFFCURVE",
"1378 1255 OFFCURVE",
"1473 1006 CURVE",
"1573 1006 LINE",
"1573 1470 LINE",
"1473 1470 LINE",
"1472 1439 OFFCURVE",
"1468 1418 OFFCURVE",
"1461 1407 CURVE SMOOTH",
"1447 1384 OFFCURVE",
"1416 1389 OFFCURVE",
"1393 1397 CURVE SMOOTH",
"1381 1400 OFFCURVE",
"1367 1404 OFFCURVE",
"1352 1409 CURVE SMOOTH",
"1311 1426 OFFCURVE",
"1267 1441 OFFCURVE",
"1220 1454 CURVE SMOOTH",
"1126 1478 OFFCURVE",
"1029 1493 OFFCURVE",
"944 1493 CURVE SMOOTH",
"703 1493 OFFCURVE",
"499 1414 OFFCURVE",
"353 1275 CURVE SMOOTH",
"207 1135 OFFCURVE",
"123 942 OFFCURVE",
"123 713 CURVE SMOOTH",
"123 493 OFFCURVE",
"200 307 OFFCURVE",
"335 173 CURVE SMOOTH",
"470 39 OFFCURVE",
"658 -39 OFFCURVE",
"881 -39 CURVE SMOOTH",
"1080 -39 OFFCURVE",
"1237 10 OFFCURVE",
"1358 113 CURVE"
);
},
{
closed = 1;
nodes = (
"913 1802 OFFCURVE",
"889 1796 OFFCURVE",
"868 1783 CURVE SMOOTH",
"824 1757 OFFCURVE",
"796 1711 OFFCURVE",
"796 1659 CURVE SMOOTH",
"796 1633 OFFCURVE",
"803 1609 OFFCURVE",
"816 1588 CURVE SMOOTH",
"842 1544 OFFCURVE",
"887 1516 OFFCURVE",
"939 1516 CURVE SMOOTH",
"965 1516 OFFCURVE",
"989 1523 OFFCURVE",
"1011 1536 CURVE SMOOTH",
"1055 1562 OFFCURVE",
"1083 1607 OFFCURVE",
"1083 1659 CURVE SMOOTH",
"1083 1685 OFFCURVE",
"1077 1709 OFFCURVE",
"1064 1731 CURVE SMOOTH",
"1038 1774 OFFCURVE",
"991 1802 OFFCURVE",
"939 1802 CURVE SMOOTH"
);
}
);
vertWidth = 2048;
width = 1864;
}
);
unicode = 0120;
},
{
color = 3;
glyphname = Hbar;
lastChange = "2022-11-09 22:06:21 +0000";
layers = (
{
background = {
paths = (
{
closed = 1;
nodes = (
"51 1556 LINE",
"51 1456 LINE",
"111 1455 OFFCURVE",
"157 1448 OFFCURVE",
"189 1437 CURVE SMOOTH",
"253 1414 OFFCURVE",
"272 1363 OFFCURVE",
"268 1262 CURVE",
"268 295 LINE",
"270 244 OFFCURVE",
"265 205 OFFCURVE",
"254 178 CURVE SMOOTH",
"231 122 OFFCURVE",
"171 103 OFFCURVE",
"51 100 CURVE",
"51 0 LINE",
"780 0 LINE",
"780 100 LINE",
"728 101 OFFCURVE",
"687 107 OFFCURVE",
"657 120 CURVE SMOOTH",
"597 144 OFFCURVE",
"577 199 OFFCURVE",
"582 295 CURVE",
"582 745 LINE",
"1200 745 LINE",
"1200 295 LINE",
"1202 246 OFFCURVE",
"1197 207 OFFCURVE",
"1186 179 CURVE SMOOTH",
"1163 123 OFFCURVE",
"1106 101 OFFCURVE",
"1001 100 CURVE",
"1001 0 LINE",
"1731 0 LINE",
"1731 100 LINE",
"1671 101 OFFCURVE",
"1625 108 OFFCURVE",
"1593 119 CURVE SMOOTH",
"1528 142 OFFCURVE",
"1509 194 OFFCURVE",
"1513 295 CURVE",
"1513 1262 LINE",
"1511 1313 OFFCURVE",
"1516 1352 OFFCURVE",
"1527 1379 CURVE SMOOTH",
"1550 1434 OFFCURVE",
"1611 1453 OFFCURVE",
"1731 1456 CURVE",
"1731 1556 LINE",
"1001 1556 LINE",
"1001 1456 LINE",
"1054 1455 OFFCURVE",
"1096 1449 OFFCURVE",
"1126 1437 CURVE SMOOTH",
"1185 1413 OFFCURVE",
"1204 1359 OFFCURVE",
"1200 1262 CURVE",
"1200 872 LINE",
"582 872 LINE",
"582 1262 LINE",
"580 1311 OFFCURVE",
"585 1349 OFFCURVE",
"596 1377 CURVE SMOOTH",
"618 1432 OFFCURVE",
"675 1453 OFFCURVE",
"780 1456 CURVE",
"780 1556 LINE"
);
},
{
closed = 1;
nodes = (
"542 1177 LINE",
"542 1050 LINE",
"1240 1050 LINE",
"1240 1177 LINE"
);
}
);
};
layerId = "4E782664-D0D5-4FED-AFC2-B9212141A2ED";
paths = (
{
closed = 1;
nodes = (
"1001 1556 LINE",
"1001 1456 LINE",
"1054 1455 OFFCURVE",
"1096 1449 OFFCURVE",
"1126 1437 CURVE SMOOTH",
"1185 1413 OFFCURVE",
"1204 1359 OFFCURVE",
"1200 1262 CURVE SMOOTH",
"1200 1177 LINE",
"582 1177 LINE",
"582 1262 LINE SMOOTH",
"580 1311 OFFCURVE",
"585 1349 OFFCURVE",
"596 1377 CURVE SMOOTH",
"618 1432 OFFCURVE",
"675 1453 OFFCURVE",
"780 1456 CURVE",
"780 1556 LINE",
"51 1556 LINE",
"51 1456 LINE",
"111 1455 OFFCURVE",
"157 1448 OFFCURVE",
"189 1437 CURVE SMOOTH",
"253 1414 OFFCURVE",
"272 1363 OFFCURVE",
"268 1262 CURVE",
"268 295 LINE",
"270 244 OFFCURVE",
"265 205 OFFCURVE",
"254 178 CURVE SMOOTH",
"231 122 OFFCURVE",
"171 103 OFFCURVE",
"51 100 CURVE",
"51 0 LINE",
"780 0 LINE",
"780 100 LINE",
"728 101 OFFCURVE",
"687 107 OFFCURVE",
"657 120 CURVE SMOOTH",
"597 144 OFFCURVE",
"577 199 OFFCURVE",
"582 295 CURVE",
"582 745 LINE",
"1200 745 LINE",
"1200 295 LINE",
"1202 246 OFFCURVE",
"1197 207 OFFCURVE",
"1186 179 CURVE SMOOTH",
"1163 123 OFFCURVE",
"1106 101 OFFCURVE",
"1001 100 CURVE",
"1001 0 LINE",
"1731 0 LINE",
"1731 100 LINE",
"1671 101 OFFCURVE",
"1625 108 OFFCURVE",
"1593 119 CURVE SMOOTH",
"1528 142 OFFCURVE",
"1509 194 OFFCURVE",
"1513 295 CURVE",
"1513 1262 LINE",
"1511 1313 OFFCURVE",
"1516 1352 OFFCURVE",
"1527 1379 CURVE SMOOTH",
"1550 1434 OFFCURVE",
"1611 1453 OFFCURVE",
"1731 1456 CURVE",
"1731 1556 LINE"
);
},
{
closed = 1;
nodes = (
"1200 1050 LINE",
"1200 872 LINE",
"582 872 LINE",
"582 1050 LINE"
);
}
);
vertWidth = 2048;
width = 1782;
}
);
unicode = 0126;
},
{
color = 3;
glyphname = IJ;
lastChange = "2022-11-09 21:27:22 +0000";
layers = (
{
background = {
paths = (
{
closed = 1;
nodes = (
"134 1556 LINE",
"744 1556 LINE",
"744 1482 LINE",
"639 1473 OFFCURVE",
"575 1456 OFFCURVE",
"550 1432 CURVE SMOOTH",
"527 1409 OFFCURVE",
"515 1363 OFFCURVE",
"515 1296 CURVE SMOOTH",
"515 740 LINE SMOOTH",
"515 592 OFFCURVE",
"570 570 OFFCURVE",
"744 554 CURVE",
"744 480 LINE",
"134 480 LINE",
"134 554 LINE",
"307 573 OFFCURVE",
"363 589 OFFCURVE",
"363 740 CURVE SMOOTH",
"363 1296 LINE SMOOTH",
"363 1378 OFFCURVE",
"343 1429 OFFCURVE",
"304 1449 CURVE SMOOTH",
"274 1464 OFFCURVE",
"217 1475 OFFCURVE",
"134 1482 CURVE"
);
},
{
closed = 1;
nodes = (
"856 1556 LINE",
"1479 1556 LINE",
"1479 1482 LINE",
"1374 1477 OFFCURVE",
"1308 1460 OFFCURVE",
"1280 1431 CURVE SMOOTH",
"1257 1407 OFFCURVE",
"1245 1362 OFFCURVE",
"1245 1296 CURVE SMOOTH",
"1245 487 LINE SMOOTH",
"1245 156 OFFCURVE",
"1142 -39 OFFCURVE",
"769 -39 CURVE SMOOTH",
"542 -39 OFFCURVE",
"340 85 OFFCURVE",
"340 272 CURVE SMOOTH",
"340 295 OFFCURVE",
"345 316 OFFCURVE",
"354 333 CURVE SMOOTH",
"377 377 OFFCURVE",
"412 399 OFFCURVE",
"459 399 CURVE SMOOTH",
"485 399 OFFCURVE",
"509 392 OFFCURVE",
"530 379 CURVE SMOOTH",
"563 358 OFFCURVE",
"580 325 OFFCURVE",
"580 282 CURVE SMOOTH",
"580 227 OFFCURVE",
"551 189 OFFCURVE",
"492 170 CURVE",
"536 96 OFFCURVE",
"626 59 OFFCURVE",
"765 59 CURVE SMOOTH",
"1032 59 OFFCURVE",
"1100 235 OFFCURVE",
"1100 473 CURVE SMOOTH",
"1100 1296 LINE SMOOTH",
"1100 1369 OFFCURVE",
"1086 1417 OFFCURVE",
"1057 1439 CURVE SMOOTH",
"1025 1463 OFFCURVE",
"958 1477 OFFCURVE",
"856 1482 CURVE"
);
}
);
};
layerId = "4E782664-D0D5-4FED-AFC2-B9212141A2ED";
paths = (
{
closed = 1;
nodes = (
"898 1556 LINE",
"898 1456 LINE",
"1016 1454 OFFCURVE",
"1072 1378 OFFCURVE",
"1068 1262 CURVE",
"1068 487 LINE SMOOTH",
"1068 186 OFFCURVE",
"980 66 OFFCURVE",
"759 66 CURVE SMOOTH",
"656 66 OFFCURVE",
"542 105 OFFCURVE",
"505 176 CURVE",
"565 193 OFFCURVE",
"606 246 OFFCURVE",
"606 311 CURVE SMOOTH",
"606 402 OFFCURVE",
"533 477 OFFCURVE",
"444 477 CURVE SMOOTH",
"346 477 OFFCURVE",
"280 401 OFFCURVE",
"280 303 CURVE SMOOTH",
"280 99 OFFCURVE",
"526 -51 OFFCURVE",
"794 -51 CURVE SMOOTH",
"1217 -51 OFFCURVE",
"1386 108 OFFCURVE",
"1386 504 CURVE SMOOTH",
"1386 1262 LINE",
"1380 1418 OFFCURVE",
"1429 1450 OFFCURVE",
"1603 1456 CURVE",
"1603 1556 LINE"
);
},
{
closed = 1;
nodes = (
"84 1556 LINE",
"84 1456 LINE",
"247 1449 OFFCURVE",
"299 1441 OFFCURVE",
"292 1262 CURVE",
"292 849 LINE",
"299 674 OFFCURVE",
"248 662 OFFCURVE",
"84 650 CURVE",
"84 550 LINE",
"820 550 LINE",
"820 650 LINE",
"661 659 OFFCURVE",
"612 672 OFFCURVE",
"612 849 CURVE SMOOTH",
"612 1262 LINE SMOOTH",
"612 1442 OFFCURVE",
"655 1447 OFFCURVE",
"820 1456 CURVE",
"820 1556 LINE"
);
}
);
vertWidth = 2048;
width = 1648;
}
);
unicode = 0132;
},
{
color = 3;
glyphname = Ibreve;
lastChange = "2022-11-09 21:06:22 +0000";
layers = (
{
background = {
paths = (
{
closed = 1;
nodes = (
"314 1454 LINE",
"711 1454 LINE",
"711 1382 LINE",
"660 1378 OFFCURVE",
"626 1369 OFFCURVE",
"607 1356 CURVE SMOOTH",
"589 1343 OFFCURVE",
"580 1317 OFFCURVE",
"580 1278 CURVE SMOOTH",
"580 176 LINE SMOOTH",
"580 141 OFFCURVE",
"590 115 OFFCURVE",
"611 98 CURVE SMOOTH",
"625 87 OFFCURVE",
"658 79 OFFCURVE",
"711 72 CURVE",
"711 0 LINE",
"314 0 LINE",
"314 72 LINE",
"367 78 OFFCURVE",
"402 88 OFFCURVE",
"419 102 CURVE SMOOTH",
"436 117 OFFCURVE",
"445 141 OFFCURVE",
"445 176 CURVE SMOOTH",
"445 1278 LINE SMOOTH",
"445 1317 OFFCURVE",
"436 1343 OFFCURVE",
"418 1356 CURVE SMOOTH",
"399 1369 OFFCURVE",
"365 1378 OFFCURVE",
"314 1382 CURVE"
);
},
{
closed = 1;
nodes = (
"823 1800 LINE",
"777 1642 OFFCURVE",
"673 1563 OFFCURVE",
"511 1563 CURVE SMOOTH",
"349 1563 OFFCURVE",
"246 1642 OFFCURVE",
"201 1800 CURVE",
"285 1800 LINE",
"320 1719 OFFCURVE",
"396 1678 OFFCURVE",
"512 1678 CURVE SMOOTH",
"627 1678 OFFCURVE",
"702 1719 OFFCURVE",
"739 1800 CURVE"
);
}
);
};
layerId = "4E782664-D0D5-4FED-AFC2-B9212141A2ED";
paths = (
{
closed = 1;
nodes = (
"84 1454 LINE",
"84 1354 LINE",
"204 1350 OFFCURVE",
"273 1341 OFFCURVE",
"310 1314 CURVE SMOOTH",
"346 1287 OFFCURVE",
"355 1240 OFFCURVE",
"352 1159 CURVE",
"352 299 LINE",
"355 219 OFFCURVE",
"345 172 OFFCURVE",
"309 145 CURVE SMOOTH",
"272 117 OFFCURVE",
"203 107 OFFCURVE",
"84 100 CURVE",
"84 0 LINE",
"940 0 LINE",
"940 100 LINE",
"823 105 OFFCURVE",
"753 116 OFFCURVE",
"716 144 CURVE SMOOTH",
"679 171 OFFCURVE",
"669 219 OFFCURVE",
"672 299 CURVE",
"672 1159 LINE SMOOTH",
"672 1240 OFFCURVE",
"678 1286 OFFCURVE",
"715 1313 CURVE SMOOTH",
"751 1340 OFFCURVE",
"820 1349 OFFCURVE",
"940 1354 CURVE",
"940 1454 LINE"
);
},
{
closed = 1;
nodes = (
"196 1800 LINE",
"209 1735 OFFCURVE",
"232 1683 OFFCURVE",
"263 1642 CURVE SMOOTH",
"326 1560 OFFCURVE",
"417 1522 OFFCURVE",
"518 1522 CURVE SMOOTH",
"569 1522 OFFCURVE",
"616 1532 OFFCURVE",
"660 1551 CURVE SMOOTH",
"748 1590 OFFCURVE",
"815 1671 OFFCURVE",
"840 1800 CURVE",
"723 1800 LINE",
"688 1727 OFFCURVE",
"620 1677 OFFCURVE",
"516 1677 CURVE SMOOTH",
"411 1677 OFFCURVE",
"348 1727 OFFCURVE",
"313 1800 CURVE"
);
}
);
vertWidth = 2048;
width = 1024;
}
);
unicode = 012C;
},
{
color = 3;
glyphname = Idotaccent;
lastChange = "2022-11-09 21:05:00 +0000";
layers = (
{
background = {
paths = (
{
closed = 1;
nodes = (
"314 1454 LINE",
"711 1454 LINE",
"711 1382 LINE",
"660 1378 OFFCURVE",
"626 1369 OFFCURVE",
"607 1356 CURVE SMOOTH",
"589 1343 OFFCURVE",
"580 1317 OFFCURVE",
"580 1278 CURVE SMOOTH",
"580 176 LINE SMOOTH",
"580 141 OFFCURVE",
"590 115 OFFCURVE",
"611 98 CURVE SMOOTH",
"625 87 OFFCURVE",
"658 79 OFFCURVE",
"711 72 CURVE",
"711 0 LINE",
"314 0 LINE",
"314 72 LINE",
"367 78 OFFCURVE",
"402 88 OFFCURVE",
"419 102 CURVE SMOOTH",
"436 117 OFFCURVE",
"445 141 OFFCURVE",
"445 176 CURVE SMOOTH",
"445 1278 LINE SMOOTH",
"445 1317 OFFCURVE",
"436 1343 OFFCURVE",
"418 1356 CURVE SMOOTH",
"399 1369 OFFCURVE",
"365 1378 OFFCURVE",
"314 1382 CURVE"
);
},
{
closed = 1;
nodes = (
"532 1801 OFFCURVE",
"549 1797 OFFCURVE",
"565 1790 CURVE SMOOTH",
"610 1769 OFFCURVE",
"633 1733 OFFCURVE",
"633 1682 CURVE SMOOTH",
"633 1649 OFFCURVE",
"621 1621 OFFCURVE",
"598 1598 CURVE SMOOTH",
"575 1575 OFFCURVE",
"546 1563 OFFCURVE",
"513 1563 CURVE SMOOTH",
"493 1563 OFFCURVE",
"474 1568 OFFCURVE",
"457 1578 CURVE SMOOTH",
"416 1601 OFFCURVE",
"395 1636 OFFCURVE",
"395 1683 CURVE SMOOTH",
"395 1718 OFFCURVE",
"408 1747 OFFCURVE",
"434 1770 CURVE SMOOTH",
"456 1791 OFFCURVE",
"483 1801 OFFCURVE",
"515 1801 CURVE SMOOTH"
);
}
);
};
layerId = "4E782664-D0D5-4FED-AFC2-B9212141A2ED";
paths = (
{
closed = 1;
nodes = (
"84 1454 LINE",
"84 1354 LINE",
"204 1350 OFFCURVE",
"273 1341 OFFCURVE",
"310 1314 CURVE SMOOTH",
"346 1287 OFFCURVE",
"355 1240 OFFCURVE",
"352 1159 CURVE",
"352 299 LINE",
"355 219 OFFCURVE",
"345 172 OFFCURVE",
"309 145 CURVE SMOOTH",
"272 117 OFFCURVE",
"203 107 OFFCURVE",
"84 100 CURVE",
"84 0 LINE",
"940 0 LINE",
"940 100 LINE",
"823 105 OFFCURVE",
"753 116 OFFCURVE",
"716 144 CURVE SMOOTH",
"679 171 OFFCURVE",
"669 219 OFFCURVE",
"672 299 CURVE",
"672 1159 LINE SMOOTH",
"672 1240 OFFCURVE",
"678 1286 OFFCURVE",
"715 1313 CURVE SMOOTH",
"751 1340 OFFCURVE",
"820 1349 OFFCURVE",
"940 1354 CURVE",
"940 1454 LINE"
);
},
{
closed = 1;
nodes = (
"488 1802 OFFCURVE",
"464 1796 OFFCURVE",
"443 1783 CURVE SMOOTH",
"399 1757 OFFCURVE",
"371 1711 OFFCURVE",
"371 1659 CURVE SMOOTH",
"371 1633 OFFCURVE",
"378 1609 OFFCURVE",
"391 1588 CURVE SMOOTH",
"417 1544 OFFCURVE",
"462 1516 OFFCURVE",
"514 1516 CURVE SMOOTH",
"540 1516 OFFCURVE",
"564 1523 OFFCURVE",
"586 1536 CURVE SMOOTH",
"630 1562 OFFCURVE",
"658 1607 OFFCURVE",
"658 1659 CURVE SMOOTH",
"658 1685 OFFCURVE",
"652 1709 OFFCURVE",
"639 1731 CURVE SMOOTH",
"613 1774 OFFCURVE",
"566 1802 OFFCURVE",
"514 1802 CURVE SMOOTH"
);
}
);
vertWidth = 2048;
width = 1024;
}
);
unicode = 0130;
},
{
color = 3;
glyphname = Iogonek;
lastChange = "2022-11-09 22:06:26 +0000";
layers = (
{
background = {
paths = (
{
closed = 1;
nodes = (
"84 1556 LINE",
"84 1456 LINE",
"204 1452 OFFCURVE",
"273 1443 OFFCURVE",
"310 1416 CURVE SMOOTH",
"346 1389 OFFCURVE",
"355 1342 OFFCURVE",
"352 1261 CURVE",
"352 379 LINE",
"355 299 OFFCURVE",
"345 252 OFFCURVE",
"309 225 CURVE SMOOTH",
"272 197 OFFCURVE",
"203 187 OFFCURVE",
"84 180 CURVE",
"84 80 LINE",
"940 80 LINE",
"940 180 LINE",
"823 185 OFFCURVE",
"753 196 OFFCURVE",
"716 224 CURVE SMOOTH",
"679 251 OFFCURVE",
"669 299 OFFCURVE",
"672 379 CURVE",
"672 1261 LINE SMOOTH",
"672 1342 OFFCURVE",
"678 1388 OFFCURVE",
"715 1415 CURVE SMOOTH",
"751 1442 OFFCURVE",
"820 1451 OFFCURVE",
"940 1456 CURVE",
"940 1556 LINE"
);
},
{
closed = 1;
nodes = (
"380 52 OFFCURVE",
"321 -8 OFFCURVE",
"321 -86 CURVE SMOOTH",
"321 -123 OFFCURVE",
"331 -153 OFFCURVE",
"352 -176 CURVE SMOOTH",
"392 -222 OFFCURVE",
"463 -242 OFFCURVE",
"538 -242 CURVE SMOOTH",
"578 -242 OFFCURVE",
"613 -238 OFFCURVE",
"642 -230 CURVE SMOOTH",
"701 -215 OFFCURVE",
"748 -185 OFFCURVE",
"800 -141 CURVE",
"769 -68 LINE",
"710 -113 OFFCURVE",
"659 -135 OFFCURVE",
"603 -135 CURVE SMOOTH",
"554 -135 OFFCURVE",
"507 -114 OFFCURVE",
"507 -53 CURVE SMOOTH",
"507 -41 OFFCURVE",
"509 -27 OFFCURVE",
"514 -11 CURVE SMOOTH",
"524 25 OFFCURVE",
"552 66 OFFCURVE",
"610 91 CURVE",
"440 91 LINE"
);
}
);
};
layerId = "4E782664-D0D5-4FED-AFC2-B9212141A2ED";
paths = (
{
closed = 1;
nodes = (
"672 1342 OFFCURVE",
"678 1388 OFFCURVE",
"715 1415 CURVE SMOOTH",
"751 1442 OFFCURVE",
"820 1451 OFFCURVE",
"940 1456 CURVE",
"940 1556 LINE",
"84 1556 LINE",
"84 1456 LINE",
"204 1452 OFFCURVE",
"273 1443 OFFCURVE",
"310 1416 CURVE SMOOTH",
"346 1389 OFFCURVE",
"355 1342 OFFCURVE",
"352 1261 CURVE",
"352 379 LINE",
"355 299 OFFCURVE",
"345 252 OFFCURVE",
"309 225 CURVE SMOOTH",
"272 197 OFFCURVE",
"203 187 OFFCURVE",
"84 180 CURVE",
"84 80 LINE",
"424 80 LINE",
"370 41 OFFCURVE",
"321 -15 OFFCURVE",
"321 -86 CURVE SMOOTH",
"321 -123 OFFCURVE",
"331 -153 OFFCURVE",
"352 -176 CURVE SMOOTH",
"392 -222 OFFCURVE",
"463 -242 OFFCURVE",
"538 -242 CURVE SMOOTH",
"578 -242 OFFCURVE",
"613 -238 OFFCURVE",
"642 -230 CURVE SMOOTH",
"701 -215 OFFCURVE",
"748 -185 OFFCURVE",
"800 -141 CURVE",
"769 -68 LINE",
"710 -113 OFFCURVE",
"659 -135 OFFCURVE",
"603 -135 CURVE SMOOTH",
"554 -135 OFFCURVE",
"507 -114 OFFCURVE",
"507 -53 CURVE SMOOTH",
"507 -41 OFFCURVE",
"509 -27 OFFCURVE",
"514 -11 CURVE SMOOTH",
"523 20 OFFCURVE",
"545 55 OFFCURVE",
"588 80 CURVE",
"940 80 LINE",
"940 180 LINE",
"823 185 OFFCURVE",
"753 196 OFFCURVE",
"716 224 CURVE SMOOTH",
"679 251 OFFCURVE",
"669 299 OFFCURVE",
"672 379 CURVE",
"672 1261 LINE SMOOTH"
);
}
);
vertWidth = 2048;
width = 1024;
}
);
unicode = 012E;
},
{
color = 3;
glyphname = Itilde;
lastChange = "2022-11-09 21:12:42 +0000";
layers = (
{
background = {
paths = (
{
closed = 1;
nodes = (
"314 1454 LINE",
"711 1454 LINE",
"711 1382 LINE",
"660 1378 OFFCURVE",
"626 1369 OFFCURVE",
"607 1356 CURVE SMOOTH",
"589 1343 OFFCURVE",
"580 1317 OFFCURVE",
"580 1278 CURVE SMOOTH",
"580 176 LINE SMOOTH",
"580 141 OFFCURVE",
"590 115 OFFCURVE",
"611 98 CURVE SMOOTH",
"625 87 OFFCURVE",
"658 79 OFFCURVE",
"711 72 CURVE",
"711 0 LINE",
"314 0 LINE",
"314 72 LINE",
"367 78 OFFCURVE",
"402 88 OFFCURVE",
"419 102 CURVE SMOOTH",
"436 117 OFFCURVE",
"445 141 OFFCURVE",
"445 176 CURVE SMOOTH",
"445 1278 LINE SMOOTH",
"445 1317 OFFCURVE",
"436 1343 OFFCURVE",
"418 1356 CURVE SMOOTH",
"399 1369 OFFCURVE",
"365 1378 OFFCURVE",
"314 1382 CURVE"
);
},
{
closed = 1;
nodes = (
"170 1614 LINE",
"233 1722 OFFCURVE",
"306 1776 OFFCURVE",
"391 1776 CURVE SMOOTH",
"442 1776 OFFCURVE",
"492 1759 OFFCURVE",
"541 1726 CURVE SMOOTH",
"590 1693 OFFCURVE",
"634 1677 OFFCURVE",
"673 1677 CURVE SMOOTH",
"738 1677 OFFCURVE",
"789 1706 OFFCURVE",
"827 1764 CURVE",
"875 1704 LINE",
"811 1596 OFFCURVE",
"737 1542 OFFCURVE",
"654 1542 CURVE SMOOTH",
"603 1542 OFFCURVE",
"553 1558 OFFCURVE",
"504 1591 CURVE SMOOTH",
"455 1624 OFFCURVE",
"411 1641 OFFCURVE",
"371 1641 CURVE SMOOTH",
"307 1641 OFFCURVE",
"256 1612 OFFCURVE",
"217 1555 CURVE"
);
}
);
};
layerId = "4E782664-D0D5-4FED-AFC2-B9212141A2ED";
paths = (
{
closed = 1;
nodes = (
"84 1454 LINE",
"84 1354 LINE",
"204 1350 OFFCURVE",
"273 1341 OFFCURVE",
"310 1314 CURVE SMOOTH",
"346 1287 OFFCURVE",
"355 1240 OFFCURVE",
"352 1159 CURVE",
"352 299 LINE",
"355 219 OFFCURVE",
"345 172 OFFCURVE",
"309 145 CURVE SMOOTH",
"272 117 OFFCURVE",
"203 107 OFFCURVE",
"84 100 CURVE",
"84 0 LINE",
"940 0 LINE",
"940 100 LINE",
"823 105 OFFCURVE",
"753 116 OFFCURVE",
"716 144 CURVE SMOOTH",
"679 171 OFFCURVE",
"669 219 OFFCURVE",
"672 299 CURVE",
"672 1159 LINE SMOOTH",
"672 1240 OFFCURVE",
"678 1286 OFFCURVE",
"715 1313 CURVE SMOOTH",
"751 1340 OFFCURVE",
"820 1349 OFFCURVE",
"940 1354 CURVE",
"940 1454 LINE"
);
},
{
closed = 1;
nodes = (
"233 1544 LINE",
"264 1600 OFFCURVE",
"310 1628 OFFCURVE",
"369 1628 CURVE SMOOTH",
"420 1628 OFFCURVE",
"467 1616 OFFCURVE",
"512 1591 CURVE SMOOTH",
"573 1559 OFFCURVE",
"623 1544 OFFCURVE",
"690 1544 CURVE SMOOTH",
"766 1544 OFFCURVE",
"850 1607 OFFCURVE",
"903 1700 CURVE",
"848 1802 LINE",
"817 1746 OFFCURVE",
"772 1718 OFFCURVE",
"713 1718 CURVE SMOOTH",
"662 1718 OFFCURVE",
"617 1728 OFFCURVE",
"580 1749 CURVE SMOOTH",
"508 1790 OFFCURVE",
"462 1802 OFFCURVE",
"391 1802 CURVE SMOOTH",
"315 1802 OFFCURVE",
"231 1742 OFFCURVE",
"178 1647 CURVE"
);
}
);
vertWidth = 2048;
width = 1024;
}
);
unicode = 0128;
},
{
color = 3;
glyphname = Kcommaaccent;
lastChange = "2022-11-09 21:21:57 +0000";
layers = (
{
background = {
paths = (
{
closed = 1;
nodes = (
"35 144 LINE",
"128 152 OFFCURVE",
"186 167 OFFCURVE",
"208 188 CURVE SMOOTH",
"228 207 OFFCURVE",
"238 246 OFFCURVE",
"238 305 CURVE SMOOTH",
"238 1321 LINE SMOOTH",
"238 1382 OFFCURVE",
"227 1422 OFFCURVE",
"205 1441 CURVE SMOOTH",
"181 1462 OFFCURVE",
"124 1476 OFFCURVE",
"35 1482 CURVE",
"35 1556 LINE",
"587 1556 LINE",
"587 1482 LINE",
"494 1473 OFFCURVE",
"436 1459 OFFCURVE",
"414 1438 CURVE SMOOTH",
"395 1420 OFFCURVE",
"385 1381 OFFCURVE",
"385 1321 CURVE SMOOTH",
"385 782 LINE",
"1054 1382 LINE SMOOTH",
"1069 1396 OFFCURVE",
"1077 1409 OFFCURVE",
"1077 1422 CURVE SMOOTH",
"1077 1437 OFFCURVE",
"1057 1451 OFFCURVE",
"1018 1464 CURVE SMOOTH",
"989 1473 OFFCURVE",
"950 1479 OFFCURVE",
"901 1482 CURVE",
"901 1556 LINE",
"1454 1556 LINE",
"1454 1482 LINE",
"1390 1475 OFFCURVE",
"1337 1461 OFFCURVE",
"1295 1439 CURVE SMOOTH",
"1262 1422 OFFCURVE",
"1229 1395 OFFCURVE",
"1192 1362 CURVE SMOOTH",
"753 964 LINE",
"1370 273 LINE SMOOTH",
"1431 204 OFFCURVE",
"1509 160 OFFCURVE",
"1609 144 CURVE",
"1609 70 LINE",
"1036 70 LINE",
"1036 144 LINE",
"1152 153 OFFCURVE",
"1210 172 OFFCURVE",
"1210 200 CURVE SMOOTH",
"1210 216 OFFCURVE",
"1201 236 OFFCURVE",
"1181 258 CURVE SMOOTH",
"649 870 LINE",
"385 631 LINE",
"385 305 LINE SMOOTH",
"385 244 OFFCURVE",
"398 203 OFFCURVE",
"423 182 CURVE SMOOTH",
"444 165 OFFCURVE",
"498 153 OFFCURVE",
"587 144 CURVE",
"587 70 LINE",
"35 70 LINE"
);
},
{
closed = 1;
nodes = (
"736 -191 LINE",
"770 -171 OFFCURVE",
"788 -151 OFFCURVE",
"790 -130 CURVE",
"719 -130 OFFCURVE",
"670 -109 OFFCURVE",
"670 -56 CURVE SMOOTH",
"670 -6 OFFCURVE",
"715 21 OFFCURVE",
"779 21 CURVE SMOOTH",
"848 21 OFFCURVE",
"899 -10 OFFCURVE",
"899 -77 CURVE SMOOTH",
"899 -153 OFFCURVE",
"850 -199 OFFCURVE",
"777 -246 CURVE"
);
}
);
};
layerId = "4E782664-D0D5-4FED-AFC2-B9212141A2ED";
paths = (
{
closed = 1;
nodes = (
"1239 1262 LINE",
"1257 1280 LINE SMOOTH",
"1291 1314 OFFCURVE",
"1325 1343 OFFCURVE",
"1360 1366 CURVE SMOOTH",
"1428 1413 OFFCURVE",
"1507 1441 OFFCURVE",
"1614 1458 CURVE",
"1614 1556 LINE",
"977 1556 LINE",
"977 1456 LINE",
"1064 1455 OFFCURVE",
"1123 1423 OFFCURVE",
"1124 1382 CURVE SMOOTH",
"1127 1346 OFFCURVE",
"1116 1325 OFFCURVE",
"1079 1288 CURVE SMOOTH",
"594 807 LINE",
"594 1262 LINE",
"592 1311 OFFCURVE",
"596 1349 OFFCURVE",
"607 1376 CURVE SMOOTH",
"628 1429 OFFCURVE",
"684 1449 OFFCURVE",
"793 1456 CURVE",
"793 1556 LINE",
"53 1556 LINE",
"53 1456 LINE",
"149 1453 OFFCURVE",
"209 1442 OFFCURVE",
"242 1414 CURVE SMOOTH",
"274 1386 OFFCURVE",
"284 1338 OFFCURVE",
"281 1262 CURVE",
"281 369 LINE",
"283 318 OFFCURVE",
"278 279 OFFCURVE",
"266 252 CURVE SMOOTH",
"242 196 OFFCURVE",
"180 177 OFFCURVE",
"53 170 CURVE",
"53 70 LINE",
"801 70 LINE",
"801 170 LINE",
"745 173 OFFCURVE",
"702 181 OFFCURVE",
"671 194 CURVE SMOOTH",
"609 219 OFFCURVE",
"589 273 OFFCURVE",
"594 369 CURVE",
"594 637 LINE",
"863 888 LINE"
);
},
{
closed = 1;
nodes = (
"1071 306 LINE SMOOTH",
"1082 289 OFFCURVE",
"1091 274 OFFCURVE",
"1097 262 CURVE SMOOTH",
"1108 238 OFFCURVE",
"1109 221 OFFCURVE",
"1102 208 CURVE SMOOTH",
"1090 183 OFFCURVE",
"1051 170 OFFCURVE",
"985 170 CURVE",
"985 70 LINE",
"1698 70 LINE",
"1698 168 LINE",
"1663 173 OFFCURVE",
"1632 182 OFFCURVE",
"1606 193 CURVE SMOOTH",
"1554 216 OFFCURVE",
"1509 261 OFFCURVE",
"1450 342 CURVE SMOOTH",
"933 1050 LINE",
"708 835 LINE"
);
},
{
closed = 1;
nodes = (
"776 -211 LINE",
"816 -194 OFFCURVE",
"838 -178 OFFCURVE",
"840 -160 CURVE",
"728 -160 OFFCURVE",
"650 -136 OFFCURVE",
"650 -76 CURVE SMOOTH",
"650 -13 OFFCURVE",
"720 21 OFFCURVE",
"819 21 CURVE SMOOTH",
"923 21 OFFCURVE",
"999 -16 OFFCURVE",
"999 -97 CURVE SMOOTH",
"999 -164 OFFCURVE",
"950 -205 OFFCURVE",
"877 -246 CURVE"
);
}
);
vertWidth = 2048;
width = 1710;
}
);
unicode = 0136;
},
{
color = 3;
glyphname = Lcommaaccent;
lastChange = "2022-11-09 21:22:15 +0000";
layers = (
{
background = {
paths = (
{
closed = 1;
nodes = (
"154 1556 LINE",
"531 1556 LINE",
"531 1482 LINE",
"480 1477 OFFCURVE",
"445 1466 OFFCURVE",
"428 1447 CURVE SMOOTH",
"413 1431 OFFCURVE",
"406 1401 OFFCURVE",
"406 1357 CURVE SMOOTH",
"406 285 LINE SMOOTH",
"406 241 OFFCURVE",
"413 211 OFFCURVE",
"428 195 CURVE SMOOTH",
"442 180 OFFCURVE",
"468 172 OFFCURVE",
"506 172 CURVE SMOOTH",
"578 172 LINE SMOOTH",
"699 172 OFFCURVE",
"774 296 OFFCURVE",
"803 545 CURVE",
"871 545 LINE",
"848 70 LINE",
"154 70 LINE",
"154 144 LINE",
"199 149 OFFCURVE",
"231 161 OFFCURVE",
"248 179 CURVE SMOOTH",
"263 194 OFFCURVE",
"271 224 OFFCURVE",
"271 269 CURVE SMOOTH",
"271 1357 LINE SMOOTH",
"271 1406 OFFCURVE",
"263 1438 OFFCURVE",
"246 1454 CURVE SMOOTH",
"231 1469 OFFCURVE",
"200 1478 OFFCURVE",
"154 1482 CURVE"
);
},
{
closed = 1;
nodes = (
"456 -191 LINE",
"490 -171 OFFCURVE",
"508 -151 OFFCURVE",
"510 -130 CURVE",
"439 -130 OFFCURVE",
"390 -109 OFFCURVE",
"390 -56 CURVE SMOOTH",
"390 -6 OFFCURVE",
"435 21 OFFCURVE",
"499 21 CURVE SMOOTH",
"568 21 OFFCURVE",
"619 -10 OFFCURVE",
"619 -77 CURVE SMOOTH",
"619 -153 OFFCURVE",
"570 -199 OFFCURVE",
"497 -246 CURVE"
);
}
);
};
layerId = "4E782664-D0D5-4FED-AFC2-B9212141A2ED";
paths = (
{
closed = 1;
nodes = (
"57 1556 LINE",
"57 1456 LINE",
"153 1453 OFFCURVE",
"213 1442 OFFCURVE",
"246 1414 CURVE SMOOTH",
"278 1386 OFFCURVE",
"288 1338 OFFCURVE",
"285 1262 CURVE",
"285 369 LINE",
"287 318 OFFCURVE",
"282 279 OFFCURVE",
"270 252 CURVE SMOOTH",
"246 196 OFFCURVE",
"184 177 OFFCURVE",
"57 170 CURVE",
"57 70 LINE",
"1296 70 LINE",
"1339 641 LINE",
"1247 641 LINE",
"1214 372 OFFCURVE",
"1066 213 OFFCURVE",
"823 197 CURVE",
"760 197 LINE SMOOTH",
"639 197 OFFCURVE",
"597 246 OFFCURVE",
"602 383 CURVE",
"602 1262 LINE SMOOTH",
"602 1339 OFFCURVE",
"610 1387 OFFCURVE",
"644 1415 CURVE SMOOTH",
"678 1443 OFFCURVE",
"739 1453 OFFCURVE",
"840 1456 CURVE",
"840 1556 LINE"
);
},
{
closed = 1;
nodes = (
"656 -211 LINE",
"696 -194 OFFCURVE",
"718 -178 OFFCURVE",
"720 -160 CURVE",
"608 -160 OFFCURVE",
"530 -136 OFFCURVE",
"530 -76 CURVE SMOOTH",
"530 -13 OFFCURVE",
"600 21 OFFCURVE",
"699 21 CURVE SMOOTH",
"803 21 OFFCURVE",
"879 -16 OFFCURVE",
"879 -97 CURVE SMOOTH",
"879 -164 OFFCURVE",
"830 -205 OFFCURVE",
"757 -246 CURVE"
);
}
);
vertWidth = 2048;
width = 1341;
}
);
unicode = 013B;
},
{
color = 3;
glyphname = Ldot;
lastChange = "2022-11-09 21:04:44 +0000";
layers = (
{
background = {
paths = (
{
closed = 1;
nodes = (
"154 1556 LINE",
"531 1556 LINE",
"531 1482 LINE",
"480 1477 OFFCURVE",
"445 1466 OFFCURVE",
"428 1447 CURVE SMOOTH",
"413 1431 OFFCURVE",
"406 1401 OFFCURVE",
"406 1357 CURVE SMOOTH",
"406 215 LINE SMOOTH",
"406 171 OFFCURVE",
"413 141 OFFCURVE",
"428 125 CURVE SMOOTH",
"442 110 OFFCURVE",
"468 102 OFFCURVE",
"506 102 CURVE SMOOTH",
"578 102 LINE SMOOTH",
"699 102 OFFCURVE",
"774 226 OFFCURVE",
"803 475 CURVE",
"871 475 LINE",
"848 0 LINE",
"154 0 LINE",
"154 74 LINE",
"199 79 OFFCURVE",
"231 91 OFFCURVE",
"248 109 CURVE SMOOTH",
"263 124 OFFCURVE",
"271 154 OFFCURVE",
"271 199 CURVE SMOOTH",
"271 1357 LINE SMOOTH",
"271 1406 OFFCURVE",
"263 1438 OFFCURVE",
"246 1454 CURVE SMOOTH",
"231 1469 OFFCURVE",
"200 1478 OFFCURVE",
"154 1482 CURVE"
);
},
{
closed = 1;
nodes = (
"734 1081 OFFCURVE",
"751 1077 OFFCURVE",
"767 1070 CURVE SMOOTH",
"812 1049 OFFCURVE",
"835 1013 OFFCURVE",
"835 962 CURVE SMOOTH",
"835 929 OFFCURVE",
"823 901 OFFCURVE",
"800 878 CURVE SMOOTH",
"777 855 OFFCURVE",
"748 843 OFFCURVE",
"715 843 CURVE SMOOTH",
"695 843 OFFCURVE",
"676 848 OFFCURVE",
"659 858 CURVE SMOOTH",
"618 881 OFFCURVE",
"597 916 OFFCURVE",
"597 963 CURVE SMOOTH",
"597 998 OFFCURVE",
"610 1027 OFFCURVE",
"636 1050 CURVE SMOOTH",
"658 1071 OFFCURVE",
"685 1081 OFFCURVE",
"717 1081 CURVE SMOOTH"
);
}
);
};
layerId = "4E782664-D0D5-4FED-AFC2-B9212141A2ED";
paths = (
{
closed = 1;
nodes = (
"57 1556 LINE",
"57 1456 LINE",
"153 1453 OFFCURVE",
"213 1442 OFFCURVE",
"246 1414 CURVE SMOOTH",
"278 1386 OFFCURVE",
"288 1338 OFFCURVE",
"285 1262 CURVE",
"285 299 LINE",
"287 248 OFFCURVE",
"282 209 OFFCURVE",
"270 182 CURVE SMOOTH",
"246 126 OFFCURVE",
"184 107 OFFCURVE",
"57 100 CURVE",
"57 0 LINE",
"1296 0 LINE",
"1339 571 LINE",
"1247 571 LINE",
"1214 302 OFFCURVE",
"1066 143 OFFCURVE",
"823 127 CURVE",
"760 127 LINE SMOOTH",
"639 127 OFFCURVE",
"597 176 OFFCURVE",
"602 313 CURVE",
"602 1262 LINE SMOOTH",
"602 1339 OFFCURVE",
"610 1387 OFFCURVE",
"644 1415 CURVE SMOOTH",
"678 1443 OFFCURVE",
"739 1453 OFFCURVE",
"840 1456 CURVE",
"840 1556 LINE"
);
},
{
closed = 1;
nodes = (
"993 1102 OFFCURVE",
"969 1096 OFFCURVE",
"948 1083 CURVE SMOOTH",
"904 1057 OFFCURVE",
"876 1011 OFFCURVE",
"876 959 CURVE SMOOTH",
"876 933 OFFCURVE",
"883 909 OFFCURVE",
"896 888 CURVE SMOOTH",
"922 844 OFFCURVE",
"967 816 OFFCURVE",
"1019 816 CURVE SMOOTH",
"1045 816 OFFCURVE",
"1069 823 OFFCURVE",
"1091 836 CURVE SMOOTH",
"1135 862 OFFCURVE",
"1163 907 OFFCURVE",
"1163 959 CURVE SMOOTH",
"1163 985 OFFCURVE",
"1157 1009 OFFCURVE",
"1144 1031 CURVE SMOOTH",
"1118 1074 OFFCURVE",
"1071 1102 OFFCURVE",
"1019 1102 CURVE SMOOTH"
);
}
);
vertWidth = 2048;
width = 1341;
}
);
unicode = 013F;
},
{
color = 3;
glyphname = Ncommaaccent;
lastChange = "2022-11-09 21:22:22 +0000";
layers = (
{
background = {
paths = (
{
closed = 1;
nodes = (
"74 1556 LINE",
"352 1556 LINE",
"760 365 LINE",
"768 365 LINE",
"768 1382 LINE SMOOTH",
"768 1414 OFFCURVE",
"760 1437 OFFCURVE",
"745 1450 CURVE SMOOTH",
"727 1465 OFFCURVE",
"698 1476 OFFCURVE",
"657 1482 CURVE",
"657 1556 LINE",
"967 1556 LINE",
"967 1482 LINE",
"927 1476 OFFCURVE",
"898 1465 OFFCURVE",
"881 1450 CURVE SMOOTH",
"866 1436 OFFCURVE",
"858 1413 OFFCURVE",
"858 1382 CURVE SMOOTH",
"858 45 LINE",
"733 45 LINE",
"278 1370 LINE",
"270 1370 LINE",
"270 244 LINE SMOOTH",
"270 207 OFFCURVE",
"278 181 OFFCURVE",
"295 166 CURVE SMOOTH",
"308 155 OFFCURVE",
"336 147 OFFCURVE",
"379 144 CURVE",
"379 70 LINE",
"74 70 LINE",
"74 144 LINE",
"120 151 OFFCURVE",
"149 161 OFFCURVE",
"161 174 CURVE SMOOTH",
"174 188 OFFCURVE",
"180 211 OFFCURVE",
"180 244 CURVE SMOOTH",
"180 1382 LINE SMOOTH",
"180 1418 OFFCURVE",
"173 1442 OFFCURVE",
"159 1454 CURVE SMOOTH",
"146 1466 OFFCURVE",
"117 1475 OFFCURVE",
"74 1482 CURVE"
);
},
{
closed = 1;
nodes = (
"456 -191 LINE",
"490 -171 OFFCURVE",
"508 -151 OFFCURVE",
"510 -130 CURVE",
"439 -130 OFFCURVE",
"390 -109 OFFCURVE",
"390 -56 CURVE SMOOTH",
"390 -6 OFFCURVE",
"435 21 OFFCURVE",
"499 21 CURVE SMOOTH",
"568 21 OFFCURVE",
"619 -10 OFFCURVE",
"619 -77 CURVE SMOOTH",
"619 -153 OFFCURVE",
"570 -199 OFFCURVE",
"497 -246 CURVE"
);
}
);
};
layerId = "4E782664-D0D5-4FED-AFC2-B9212141A2ED";
paths = (
{
closed = 1;
nodes = (
"78 1556 LINE",
"78 1458 LINE",
"131 1453 OFFCURVE",
"172 1444 OFFCURVE",
"201 1431 CURVE SMOOTH",
"260 1406 OFFCURVE",
"280 1359 OFFCURVE",
"272 1276 CURVE",
"272 512 LINE SMOOTH",
"272 432 OFFCURVE",
"267 368 OFFCURVE",
"253 320 CURVE SMOOTH",
"224 223 OFFCURVE",
"157 181 OFFCURVE",
"37 170 CURVE",
"37 70 LINE",
"666 70 LINE",
"666 170 LINE",
"601 175 OFFCURVE",
"549 190 OFFCURVE",
"510 213 CURVE SMOOTH",
"433 259 OFFCURVE",
"403 352 OFFCURVE",
"403 512 CURVE SMOOTH",
"403 1300 LINE",
"412 1300 LINE",
"1272 45 LINE",
"1493 45 LINE",
"1493 1114 LINE SMOOTH",
"1493 1196 OFFCURVE",
"1498 1261 OFFCURVE",
"1512 1310 CURVE SMOOTH",
"1539 1406 OFFCURVE",
"1604 1447 OFFCURVE",
"1724 1456 CURVE",
"1724 1556 LINE",
"1104 1556 LINE",
"1104 1456 LINE",
"1169 1451 OFFCURVE",
"1221 1437 OFFCURVE",
"1259 1414 CURVE SMOOTH",
"1335 1369 OFFCURVE",
"1362 1277 OFFCURVE",
"1362 1114 CURVE SMOOTH",
"1362 549 LINE",
"1354 549 LINE",
"631 1556 LINE"
);
},
{
closed = 1;
nodes = (
"786 -211 LINE",
"826 -194 OFFCURVE",
"848 -178 OFFCURVE",
"850 -160 CURVE",
"738 -160 OFFCURVE",
"660 -136 OFFCURVE",
"660 -76 CURVE SMOOTH",
"660 -13 OFFCURVE",
"730 21 OFFCURVE",
"829 21 CURVE SMOOTH",
"933 21 OFFCURVE",
"1009 -16 OFFCURVE",
"1009 -97 CURVE SMOOTH",
"1009 -164 OFFCURVE",
"960 -205 OFFCURVE",
"887 -246 CURVE"
);
}
);
vertWidth = 2048;
width = 1761;
}
);
unicode = 0145;
},
{
color = 3;
glyphname = Eng;
lastChange = "2022-11-09 22:06:30 +0000";
layers = (
{
background = {
paths = (
{
closed = 1;
nodes = (
"78 1556 LINE",
"78 1458 LINE",
"131 1453 OFFCURVE",
"172 1444 OFFCURVE",
"201 1431 CURVE SMOOTH",
"260 1406 OFFCURVE",
"280 1359 OFFCURVE",
"272 1276 CURVE",
"272 512 LINE SMOOTH",
"272 432 OFFCURVE",
"267 368 OFFCURVE",
"253 320 CURVE SMOOTH",
"224 223 OFFCURVE",
"157 181 OFFCURVE",
"37 170 CURVE",
"37 70 LINE",
"666 70 LINE",
"666 170 LINE",
"601 175 OFFCURVE",
"549 190 OFFCURVE",
"510 213 CURVE SMOOTH",
"433 259 OFFCURVE",
"403 352 OFFCURVE",
"403 512 CURVE SMOOTH",
"403 1300 LINE",
"412 1300 LINE",
"1272 45 LINE",
"1438 45 LINE",
"1493 264 LINE",
"1493 1114 LINE SMOOTH",
"1493 1196 OFFCURVE",
"1498 1261 OFFCURVE",
"1512 1310 CURVE SMOOTH",
"1539 1406 OFFCURVE",
"1604 1447 OFFCURVE",
"1724 1456 CURVE",
"1724 1556 LINE",
"1104 1556 LINE",
"1104 1456 LINE",
"1169 1451 OFFCURVE",
"1221 1437 OFFCURVE",
"1259 1414 CURVE SMOOTH",
"1335 1369 OFFCURVE",
"1362 1277 OFFCURVE",
"1362 1114 CURVE SMOOTH",
"1362 549 LINE",
"1354 549 LINE",
"631 1556 LINE"
);
},
{
closed = 1;
nodes = (
"1366 256 LINE",
"1366 62 OFFCURVE",
"1331 -131 OFFCURVE",
"1117 -131 CURVE SMOOTH",
"1090 -131 OFFCURVE",
"1057 -127 OFFCURVE",
"1034 -111 CURVE",
"1075 -88 OFFCURVE",
"1098 -51 OFFCURVE",
"1098 14 CURVE SMOOTH",
"1098 86 OFFCURVE",
"1043 143 OFFCURVE",
"956 143 CURVE SMOOTH",
"927 143 OFFCURVE",
"903 136 OFFCURVE",
"883 121 CURVE SMOOTH",
"842 92 OFFCURVE",
"819 45 OFFCURVE",
"819 4 CURVE SMOOTH",
"819 -43 OFFCURVE",
"832 -85 OFFCURVE",
"857 -122 CURVE SMOOTH",
"908 -198 OFFCURVE",
"997 -244 OFFCURVE",
"1104 -244 CURVE SMOOTH",
"1400 -244 OFFCURVE",
"1493 -54 OFFCURVE",
"1493 264 CURVE"
);
}
);
};
layerId = "4E782664-D0D5-4FED-AFC2-B9212141A2ED";
paths = (
{
closed = 1;
nodes = (
"1169 1451 OFFCURVE",
"1221 1437 OFFCURVE",
"1259 1414 CURVE SMOOTH",
"1335 1369 OFFCURVE",
"1362 1277 OFFCURVE",
"1362 1114 CURVE SMOOTH",
"1362 549 LINE",
"1354 549 LINE",
"631 1556 LINE",
"78 1556 LINE",
"78 1458 LINE",
"131 1453 OFFCURVE",
"172 1444 OFFCURVE",
"201 1431 CURVE SMOOTH",
"260 1406 OFFCURVE",
"280 1359 OFFCURVE",
"272 1276 CURVE",
"272 512 LINE SMOOTH",
"272 432 OFFCURVE",
"267 368 OFFCURVE",
"253 320 CURVE SMOOTH",
"224 223 OFFCURVE",
"157 181 OFFCURVE",
"37 170 CURVE",
"37 70 LINE",
"666 70 LINE",
"666 170 LINE",
"601 175 OFFCURVE",
"549 190 OFFCURVE",
"510 213 CURVE SMOOTH",
"433 259 OFFCURVE",
"403 352 OFFCURVE",
"403 512 CURVE SMOOTH",
"403 1300 LINE",
"412 1300 LINE",
"1272 45 LINE",
"1343 45 LINE",
"1313 -57 OFFCURVE",
"1249 -131 OFFCURVE",
"1117 -131 CURVE SMOOTH",
"1090 -131 OFFCURVE",
"1057 -127 OFFCURVE",
"1034 -111 CURVE",
"1075 -88 OFFCURVE",
"1098 -51 OFFCURVE",
"1098 14 CURVE SMOOTH",
"1098 86 OFFCURVE",
"1043 143 OFFCURVE",
"956 143 CURVE SMOOTH",
"927 143 OFFCURVE",
"903 136 OFFCURVE",
"883 121 CURVE SMOOTH",
"842 92 OFFCURVE",
"819 45 OFFCURVE",
"819 4 CURVE SMOOTH",
"819 -43 OFFCURVE",
"832 -85 OFFCURVE",
"857 -122 CURVE SMOOTH",
"908 -198 OFFCURVE",
"997 -244 OFFCURVE",
"1104 -244 CURVE SMOOTH",
"1400 -244 OFFCURVE",
"1493 -54 OFFCURVE",
"1493 264 CURVE SMOOTH",
"1493 1114 LINE SMOOTH",
"1493 1196 OFFCURVE",
"1498 1261 OFFCURVE",
"1512 1310 CURVE SMOOTH",
"1539 1406 OFFCURVE",
"1604 1447 OFFCURVE",
"1724 1456 CURVE",
"1724 1556 LINE",
"1104 1556 LINE",
"1104 1456 LINE"
);
}
);
vertWidth = 2048;
width = 1720;
}
);
unicode = 014A;
},
{
color = 3;
glyphname = Obreve;
lastChange = "2022-11-09 21:06:29 +0000";
layers = (
{
background = {
paths = (
{
closed = 1;
nodes = (
"630 1493 OFFCURVE",
"724 1427 OFFCURVE",
"797 1294 CURVE SMOOTH",
"875 1151 OFFCURVE",
"914 961 OFFCURVE",
"914 724 CURVE SMOOTH",
"914 507 OFFCURVE",
"884 332 OFFCURVE",
"823 198 CURVE SMOOTH",
"752 40 OFFCURVE",
"648 -39 OFFCURVE",
"511 -39 CURVE SMOOTH",
"379 -39 OFFCURVE",
"277 37 OFFCURVE",
"206 189 CURVE SMOOTH",
"143 323 OFFCURVE",
"111 501 OFFCURVE",
"111 722 CURVE SMOOTH",
"111 983 OFFCURVE",
"157 1184 OFFCURVE",
"248 1327 CURVE SMOOTH",
"319 1438 OFFCURVE",
"407 1493 OFFCURVE",
"514 1493 CURVE SMOOTH"
);
},
{
closed = 1;
nodes = (
"438 1382 OFFCURVE",
"380 1328 OFFCURVE",
"337 1220 CURVE SMOOTH",
"292 1106 OFFCURVE",
"269 941 OFFCURVE",
"269 724 CURVE SMOOTH",
"269 525 OFFCURVE",
"290 368 OFFCURVE",
"331 253 CURVE SMOOTH",
"374 132 OFFCURVE",
"435 72 OFFCURVE",
"513 72 CURVE SMOOTH",
"585 72 OFFCURVE",
"642 124 OFFCURVE",
"685 229 CURVE SMOOTH",
"732 345 OFFCURVE",
"756 510 OFFCURVE",
"756 725 CURVE SMOOTH",
"756 956 OFFCURVE",
"730 1128 OFFCURVE",
"678 1243 CURVE SMOOTH",
"637 1336 OFFCURVE",
"581 1382 OFFCURVE",
"511 1382 CURVE SMOOTH"
);
},
{
closed = 1;
nodes = (
"826 1800 LINE",
"780 1642 OFFCURVE",
"676 1563 OFFCURVE",
"514 1563 CURVE SMOOTH",
"352 1563 OFFCURVE",
"249 1642 OFFCURVE",
"204 1800 CURVE",
"288 1800 LINE",
"323 1719 OFFCURVE",
"399 1678 OFFCURVE",
"515 1678 CURVE SMOOTH",
"630 1678 OFFCURVE",
"705 1719 OFFCURVE",
"742 1800 CURVE"
);
}
);
};
layerId = "4E782664-D0D5-4FED-AFC2-B9212141A2ED";
paths = (
{
closed = 1;
nodes = (
"682 1475 OFFCURVE",
"480 1401 OFFCURVE",
"336 1268 CURVE SMOOTH",
"191 1135 OFFCURVE",
"109 946 OFFCURVE",
"109 717 CURVE SMOOTH",
"109 489 OFFCURVE",
"191 300 OFFCURVE",
"336 167 CURVE SMOOTH",
"480 34 OFFCURVE",
"682 -41 OFFCURVE",
"922 -41 CURVE SMOOTH",
"1162 -41 OFFCURVE",
"1364 34 OFFCURVE",
"1509 167 CURVE SMOOTH",
"1653 300 OFFCURVE",
"1735 489 OFFCURVE",
"1735 717 CURVE SMOOTH",
"1735 946 OFFCURVE",
"1653 1135 OFFCURVE",
"1509 1268 CURVE SMOOTH",
"1364 1401 OFFCURVE",
"1162 1475 OFFCURVE",
"922 1475 CURVE SMOOTH"
);
},
{
closed = 1;
nodes = (
"1057 1368 OFFCURVE",
"1169 1305 OFFCURVE",
"1250 1191 CURVE SMOOTH",
"1330 1077 OFFCURVE",
"1376 914 OFFCURVE",
"1376 717 CURVE SMOOTH",
"1376 520 OFFCURVE",
"1331 359 OFFCURVE",
"1251 247 CURVE SMOOTH",
"1170 134 OFFCURVE",
"1057 72 OFFCURVE",
"922 72 CURVE SMOOTH",
"786 72 OFFCURVE",
"673 134 OFFCURVE",
"593 247 CURVE SMOOTH",
"512 359 OFFCURVE",
"467 520 OFFCURVE",
"467 717 CURVE SMOOTH",
"467 914 OFFCURVE",
"513 1077 OFFCURVE",
"594 1191 CURVE SMOOTH",
"674 1305 OFFCURVE",
"787 1368 OFFCURVE",
"922 1368 CURVE SMOOTH"
);
},
{
closed = 1;
nodes = (
"598 1800 LINE",
"611 1735 OFFCURVE",
"634 1683 OFFCURVE",
"665 1642 CURVE SMOOTH",
"728 1560 OFFCURVE",
"819 1522 OFFCURVE",
"920 1522 CURVE SMOOTH",
"971 1522 OFFCURVE",
"1018 1532 OFFCURVE",
"1062 1551 CURVE SMOOTH",
"1150 1590 OFFCURVE",
"1217 1671 OFFCURVE",
"1242 1800 CURVE",
"1125 1800 LINE",
"1090 1727 OFFCURVE",
"1022 1677 OFFCURVE",
"918 1677 CURVE SMOOTH",
"813 1677 OFFCURVE",
"750 1727 OFFCURVE",
"715 1800 CURVE"
);
}
);
vertWidth = 2048;
width = 1843;
}
);
unicode = 014E;
},
{
color = 3;
glyphname = Rcommaaccent;
lastChange = "2022-11-09 21:22:27 +0000";
layers = (
{
background = {
paths = (
{
closed = 1;
nodes = (
"90 1556 LINE",
"489 1556 LINE SMOOTH",
"714 1556 OFFCURVE",
"851 1402 OFFCURVE",
"851 1172 CURVE SMOOTH",
"851 979 OFFCURVE",
"760 842 OFFCURVE",
"559 817 CURVE",
"559 811 LINE",
"626 792 OFFCURVE",
"675 749 OFFCURVE",
"705 682 CURVE SMOOTH",
"734 620 OFFCURVE",
"772 497 OFFCURVE",
"833 307 CURVE SMOOTH",
"866 204 OFFCURVE",
"884 159 OFFCURVE",
"974 142 CURVE",
"974 70 LINE",
"745 70 LINE",
"668 382 OFFCURVE",
"607 577 OFFCURVE",
"570 660 CURVE SMOOTH",
"536 736 OFFCURVE",
"493 774 OFFCURVE",
"440 774 CURVE SMOOTH",
"319 774 LINE",
"319 244 LINE SMOOTH",
"319 207 OFFCURVE",
"326 181 OFFCURVE",
"339 166 CURVE SMOOTH",
"352 153 OFFCURVE",
"378 146 OFFCURVE",
"417 144 CURVE",
"417 70 LINE",
"90 70 LINE",
"90 144 LINE",
"129 150 OFFCURVE",
"155 159 OFFCURVE",
"168 172 CURVE SMOOTH",
"180 185 OFFCURVE",
"186 209 OFFCURVE",
"186 244 CURVE SMOOTH",
"186 1382 LINE SMOOTH",
"186 1421 OFFCURVE",
"180 1447 OFFCURVE",
"168 1460 CURVE SMOOTH",
"156 1472 OFFCURVE",
"130 1479 OFFCURVE",
"90 1482 CURVE"
);
},
{
closed = 1;
nodes = (
"319 876 LINE",
"438 876 LINE SMOOTH",
"613 876 OFFCURVE",
"708 993 OFFCURVE",
"708 1174 CURVE SMOOTH",
"708 1361 OFFCURVE",
"632 1454 OFFCURVE",
"479 1454 CURVE SMOOTH",
"399 1454 LINE SMOOTH",
"368 1454 OFFCURVE",
"347 1448 OFFCURVE",
"335 1435 CURVE SMOOTH",
"324 1424 OFFCURVE",
"319 1401 OFFCURVE",
"319 1366 CURVE SMOOTH"
);
},
{
closed = 1;
nodes = (
"456 -191 LINE",
"490 -171 OFFCURVE",
"508 -151 OFFCURVE",
"510 -130 CURVE",
"439 -130 OFFCURVE",
"390 -109 OFFCURVE",
"390 -56 CURVE SMOOTH",
"390 -6 OFFCURVE",
"435 21 OFFCURVE",
"499 21 CURVE SMOOTH",
"568 21 OFFCURVE",
"619 -10 OFFCURVE",
"619 -77 CURVE SMOOTH",
"619 -153 OFFCURVE",
"570 -199 OFFCURVE",
"497 -246 CURVE"
);
}
);
};
layerId = "4E782664-D0D5-4FED-AFC2-B9212141A2ED";
paths = (
{
closed = 1;
nodes = (
"41 1557 LINE",
"41 1465 LINE",
"137 1462 OFFCURVE",
"196 1452 OFFCURVE",
"229 1426 CURVE SMOOTH",
"261 1400 OFFCURVE",
"271 1355 OFFCURVE",
"268 1283 CURVE",
"268 349 LINE",
"270 302 OFFCURVE",
"265 265 OFFCURVE",
"253 239 CURVE SMOOTH",
"229 187 OFFCURVE",
"166 168 OFFCURVE",
"41 164 CURVE",
"41 70 LINE",
"807 70 LINE",
"807 164 LINE",
"744 166 OFFCURVE",
"696 173 OFFCURVE",
"663 184 CURVE SMOOTH",
"595 206 OFFCURVE",
"576 254 OFFCURVE",
"580 349 CURVE",
"580 785 LINE",
"678 785 LINE SMOOTH",
"725 785 OFFCURVE",
"767 778 OFFCURVE",
"804 767 CURVE SMOOTH",
"878 743 OFFCURVE",
"940 687 OFFCURVE",
"1001 585 CURVE SMOOTH",
"1065 478 OFFCURVE",
"1126 309 OFFCURVE",
"1206 70 CURVE",
"1690 70 LINE",
"1690 166 LINE",
"1597 173 OFFCURVE",
"1514 235 OFFCURVE",
"1475 320 CURVE SMOOTH",
"1471 327 OFFCURVE",
"1468 334 OFFCURVE",
"1465 339 CURVE SMOOTH",
"1462 344 OFFCURVE",
"1458 351 OFFCURVE",
"1455 359 CURVE SMOOTH",
"1451 367 OFFCURVE",
"1445 378 OFFCURVE",
"1438 392 CURVE SMOOTH",
"1372 526 OFFCURVE",
"1338 627 OFFCURVE",
"1299 689 CURVE SMOOTH",
"1263 745 OFFCURVE",
"1231 779 OFFCURVE",
"1192 799 CURVE SMOOTH",
"1153 818 OFFCURVE",
"1106 827 OFFCURVE",
"1038 838 CURVE",
"1038 846 LINE",
"1049 846 LINE SMOOTH",
"1173 846 OFFCURVE",
"1276 882 OFFCURVE",
"1351 943 CURVE SMOOTH",
"1426 1004 OFFCURVE",
"1468 1090 OFFCURVE",
"1468 1190 CURVE SMOOTH",
"1468 1338 OFFCURVE",
"1380 1459 OFFCURVE",
"1231 1510 CURVE SMOOTH",
"1139 1543 OFFCURVE",
"1008 1557 OFFCURVE",
"829 1557 CURVE SMOOTH"
);
},
{
closed = 1;
nodes = (
"580 896 LINE",
"580 1266 LINE",
"578 1312 OFFCURVE",
"582 1348 OFFCURVE",
"591 1374 CURVE SMOOTH",
"609 1425 OFFCURVE",
"656 1446 OFFCURVE",
"743 1446 CURVE SMOOTH",
"821 1446 LINE SMOOTH",
"900 1446 OFFCURVE",
"983 1420 OFFCURVE",
"1040 1381 CURVE SMOOTH",
"1099 1338 OFFCURVE",
"1128 1268 OFFCURVE",
"1128 1180 CURVE SMOOTH",
"1128 996 OFFCURVE",
"991 896 OFFCURVE",
"731 896 CURVE SMOOTH"
);
},
{
closed = 1;
nodes = (
"756 -211 LINE",
"796 -194 OFFCURVE",
"818 -178 OFFCURVE",
"820 -160 CURVE",
"708 -160 OFFCURVE",
"630 -136 OFFCURVE",
"630 -76 CURVE SMOOTH",
"630 -13 OFFCURVE",
"700 21 OFFCURVE",
"799 21 CURVE SMOOTH",
"903 21 OFFCURVE",
"979 -16 OFFCURVE",
"979 -97 CURVE SMOOTH",
"979 -164 OFFCURVE",
"930 -205 OFFCURVE",
"857 -246 CURVE"
);
}
);
vertWidth = 2048;
width = 1700;
}
);
unicode = 0156;
},
{
color = 3;
glyphname = Tbar;
lastChange = "2022-11-09 22:06:35 +0000";
layers = (
{
background = {
paths = (
{
closed = 1;
nodes = (
"66 1556 LINE",
"33 1010 LINE",
"123 1010 LINE",
"142 1127 OFFCURVE",
"195 1231 OFFCURVE",
"270 1307 CURVE SMOOTH",
"345 1383 OFFCURVE",
"438 1430 OFFCURVE",
"537 1430 CURVE SMOOTH",
"600 1430 LINE",
"600 295 LINE",
"603 218 OFFCURVE",
"592 169 OFFCURVE",
"559 141 CURVE SMOOTH",
"526 113 OFFCURVE",
"465 103 OFFCURVE",
"365 100 CURVE",
"365 0 LINE",
"1151 0 LINE",
"1151 100 LINE",
"1051 103 OFFCURVE",
"991 112 OFFCURVE",
"957 141 CURVE SMOOTH",
"923 169 OFFCURVE",
"912 218 OFFCURVE",
"915 295 CURVE",
"915 1430 LINE",
"979 1430 LINE SMOOTH",
"1078 1430 OFFCURVE",
"1171 1383 OFFCURVE",
"1246 1307 CURVE SMOOTH",
"1321 1231 OFFCURVE",
"1374 1127 OFFCURVE",
"1393 1010 CURVE",
"1483 1010 LINE",
"1450 1556 LINE"
);
},
{
closed = 1;
nodes = (
"359 820 LINE",
"359 693 LINE",
"1157 693 LINE",
"1157 820 LINE"
);
}
);
};
layerId = "4E782664-D0D5-4FED-AFC2-B9212141A2ED";
paths = (
{
closed = 1;
nodes = (
"33 1010 LINE",
"123 1010 LINE",
"142 1127 OFFCURVE",
"195 1231 OFFCURVE",
"270 1307 CURVE SMOOTH",
"345 1383 OFFCURVE",
"438 1430 OFFCURVE",
"537 1430 CURVE SMOOTH",
"600 1430 LINE",
"600 820 LINE",
"359 820 LINE",
"359 693 LINE",
"600 693 LINE",
"600 295 LINE",
"603 218 OFFCURVE",
"592 169 OFFCURVE",
"559 141 CURVE SMOOTH",
"526 113 OFFCURVE",
"465 103 OFFCURVE",
"365 100 CURVE",
"365 0 LINE",
"1151 0 LINE",
"1151 100 LINE",
"1051 103 OFFCURVE",
"991 112 OFFCURVE",
"957 141 CURVE SMOOTH",
"923 169 OFFCURVE",
"912 218 OFFCURVE",
"915 295 CURVE",
"915 693 LINE",
"1157 693 LINE",
"1157 820 LINE",
"915 820 LINE",
"915 1430 LINE",
"979 1430 LINE SMOOTH",
"1078 1430 OFFCURVE",
"1171 1383 OFFCURVE",
"1246 1307 CURVE SMOOTH",
"1321 1231 OFFCURVE",
"1374 1127 OFFCURVE",
"1393 1010 CURVE",
"1483 1010 LINE",
"1450 1556 LINE",
"66 1556 LINE"
);
}
);
vertWidth = 2048;
width = 1516;
}
);
unicode = 0166;
},
{
color = 3;
glyphname = Uogonek;
lastChange = "2022-11-09 22:06:39 +0000";
layers = (
{
background = {
paths = (
{
closed = 1;
nodes = (
"41 1556 LINE",
"41 1456 LINE",
"134 1453 OFFCURVE",
"191 1442 OFFCURVE",
"224 1414 CURVE SMOOTH",
"256 1385 OFFCURVE",
"265 1337 OFFCURVE",
"262 1261 CURVE",
"262 718 LINE SMOOTH",
"262 559 OFFCURVE",
"283 454 OFFCURVE",
"336 354 CURVE SMOOTH",
"435 165 OFFCURVE",
"641 63 OFFCURVE",
"920 63 CURVE SMOOTH",
"1179 63 OFFCURVE",
"1369 169 OFFCURVE",
"1458 362 CURVE SMOOTH",
"1503 458 OFFCURVE",
"1522 569 OFFCURVE",
"1522 733 CURVE SMOOTH",
"1522 1144 LINE SMOOTH",
"1522 1219 OFFCURVE",
"1526 1278 OFFCURVE",
"1539 1322 CURVE SMOOTH",
"1566 1409 OFFCURVE",
"1631 1447 OFFCURVE",
"1751 1456 CURVE",
"1751 1556 LINE",
"1143 1556 LINE",
"1143 1456 LINE",
"1243 1451 OFFCURVE",
"1307 1431 OFFCURVE",
"1344 1384 CURVE SMOOTH",
"1381 1337 OFFCURVE",
"1391 1261 OFFCURVE",
"1391 1144 CURVE SMOOTH",
"1391 741 LINE SMOOTH",
"1391 602 OFFCURVE",
"1376 516 OFFCURVE",
"1343 444 CURVE SMOOTH",
"1276 299 OFFCURVE",
"1162 231 OFFCURVE",
"983 231 CURVE SMOOTH",
"846 231 OFFCURVE",
"721 296 OFFCURVE",
"649 405 CURVE SMOOTH",
"600 478 OFFCURVE",
"575 590 OFFCURVE",
"575 739 CURVE SMOOTH",
"575 1261 LINE SMOOTH",
"575 1340 OFFCURVE",
"583 1388 OFFCURVE",
"617 1416 CURVE SMOOTH",
"651 1443 OFFCURVE",
"712 1453 OFFCURVE",
"815 1456 CURVE",
"815 1556 LINE"
);
},
{
closed = 1;
nodes = (
"750 52 OFFCURVE",
"691 -8 OFFCURVE",
"691 -86 CURVE SMOOTH",
"691 -123 OFFCURVE",
"701 -153 OFFCURVE",
"722 -176 CURVE SMOOTH",
"762 -222 OFFCURVE",
"833 -242 OFFCURVE",
"908 -242 CURVE SMOOTH",
"948 -242 OFFCURVE",
"983 -238 OFFCURVE",
"1012 -230 CURVE SMOOTH",
"1071 -215 OFFCURVE",
"1118 -185 OFFCURVE",
"1170 -141 CURVE",
"1139 -68 LINE",
"1080 -113 OFFCURVE",
"1029 -135 OFFCURVE",
"973 -135 CURVE SMOOTH",
"924 -135 OFFCURVE",
"877 -114 OFFCURVE",
"877 -53 CURVE SMOOTH",
"877 -41 OFFCURVE",
"879 -27 OFFCURVE",
"884 -11 CURVE SMOOTH",
"894 25 OFFCURVE",
"922 66 OFFCURVE",
"980 91 CURVE",
"810 91 LINE"
);
}
);
};
layerId = "4E782664-D0D5-4FED-AFC2-B9212141A2ED";
paths = (
{
closed = 1;
nodes = (
"1243 1451 OFFCURVE",
"1307 1431 OFFCURVE",
"1344 1384 CURVE SMOOTH",
"1381 1337 OFFCURVE",
"1391 1261 OFFCURVE",
"1391 1144 CURVE SMOOTH",
"1391 741 LINE SMOOTH",
"1391 602 OFFCURVE",
"1376 516 OFFCURVE",
"1343 444 CURVE SMOOTH",
"1276 299 OFFCURVE",
"1162 231 OFFCURVE",
"983 231 CURVE SMOOTH",
"846 231 OFFCURVE",
"721 296 OFFCURVE",
"649 405 CURVE SMOOTH",
"600 478 OFFCURVE",
"575 590 OFFCURVE",
"575 739 CURVE SMOOTH",
"575 1261 LINE SMOOTH",
"575 1340 OFFCURVE",
"583 1388 OFFCURVE",
"617 1416 CURVE SMOOTH",
"651 1443 OFFCURVE",
"712 1453 OFFCURVE",
"815 1456 CURVE",
"815 1556 LINE",
"41 1556 LINE",
"41 1456 LINE",
"134 1453 OFFCURVE",
"191 1442 OFFCURVE",
"224 1414 CURVE SMOOTH",
"256 1385 OFFCURVE",
"265 1337 OFFCURVE",
"262 1261 CURVE",
"262 718 LINE SMOOTH",
"262 559 OFFCURVE",
"283 454 OFFCURVE",
"336 354 CURVE SMOOTH",
"418 197 OFFCURVE",
"574 101 OFFCURVE",
"783 72 CURVE",
"734 33 OFFCURVE",
"691 -20 OFFCURVE",
"691 -86 CURVE SMOOTH",
"691 -123 OFFCURVE",
"701 -153 OFFCURVE",
"722 -176 CURVE SMOOTH",
"762 -222 OFFCURVE",
"833 -242 OFFCURVE",
"908 -242 CURVE SMOOTH",
"948 -242 OFFCURVE",
"983 -238 OFFCURVE",
"1012 -230 CURVE SMOOTH",
"1071 -215 OFFCURVE",
"1118 -185 OFFCURVE",
"1170 -141 CURVE",
"1139 -68 LINE",
"1080 -113 OFFCURVE",
"1029 -135 OFFCURVE",
"973 -135 CURVE SMOOTH",
"924 -135 OFFCURVE",
"877 -114 OFFCURVE",
"877 -53 CURVE SMOOTH",
"877 -41 OFFCURVE",
"879 -27 OFFCURVE",
"884 -11 CURVE SMOOTH",
"891 14 OFFCURVE",
"906 41 OFFCURVE",
"934 63 CURVE",
"1186 67 OFFCURVE",
"1371 172 OFFCURVE",
"1458 362 CURVE SMOOTH",
"1503 458 OFFCURVE",
"1522 569 OFFCURVE",
"1522 733 CURVE SMOOTH",
"1522 1144 LINE SMOOTH",
"1522 1219 OFFCURVE",
"1526 1278 OFFCURVE",
"1539 1322 CURVE SMOOTH",
"1566 1409 OFFCURVE",
"1631 1447 OFFCURVE",
"1751 1456 CURVE",
"1751 1556 LINE",
"1143 1556 LINE",
"1143 1456 LINE"
);
}
);
vertWidth = 2048;
width = 1782;
}
);
unicode = 0172;
},
{
color = 3;
glyphname = Utilde;
lastChange = "2022-11-09 21:12:28 +0000";
layers = (
{
background = {
paths = (
{
closed = 1;
nodes = (
"72 1454 LINE",
"399 1454 LINE",
"399 1380 LINE",
"365 1376 OFFCURVE",
"341 1367 OFFCURVE",
"326 1352 CURVE SMOOTH",
"312 1338 OFFCURVE",
"305 1314 OFFCURVE",
"305 1280 CURVE SMOOTH",
"305 578 LINE SMOOTH",
"305 405 OFFCURVE",
"318 286 OFFCURVE",
"343 219 CURVE SMOOTH",
"376 132 OFFCURVE",
"439 88 OFFCURVE",
"533 88 CURVE SMOOTH",
"625 88 OFFCURVE",
"686 131 OFFCURVE",
"717 218 CURVE SMOOTH",
"744 295 OFFCURVE",
"758 417 OFFCURVE",
"758 586 CURVE SMOOTH",
"758 1280 LINE SMOOTH",
"758 1312 OFFCURVE",
"752 1335 OFFCURVE",
"740 1349 CURVE SMOOTH",
"726 1365 OFFCURVE",
"701 1375 OFFCURVE",
"666 1380 CURVE",
"666 1454 LINE",
"942 1454 LINE",
"942 1380 LINE",
"904 1373 OFFCURVE",
"879 1364 OFFCURVE",
"866 1352 CURVE SMOOTH",
"854 1339 OFFCURVE",
"848 1315 OFFCURVE",
"848 1280 CURVE SMOOTH",
"848 586 LINE SMOOTH",
"848 436 OFFCURVE",
"840 325 OFFCURVE",
"825 254 CURVE SMOOTH",
"783 59 OFFCURVE",
"684 -39 OFFCURVE",
"527 -39 CURVE SMOOTH",
"399 -39 OFFCURVE",
"303 16 OFFCURVE",
"240 125 CURVE SMOOTH",
"209 178 OFFCURVE",
"189 250 OFFCURVE",
"180 340 CURVE SMOOTH",
"175 400 OFFCURVE",
"172 479 OFFCURVE",
"172 578 CURVE SMOOTH",
"172 1280 LINE SMOOTH",
"172 1319 OFFCURVE",
"165 1345 OFFCURVE",
"151 1358 CURVE SMOOTH",
"139 1370 OFFCURVE",
"113 1377 OFFCURVE",
"72 1380 CURVE"
);
},
{
closed = 1;
nodes = (
"170 1614 LINE",
"233 1722 OFFCURVE",
"306 1776 OFFCURVE",
"391 1776 CURVE SMOOTH",
"442 1776 OFFCURVE",
"492 1759 OFFCURVE",
"541 1726 CURVE SMOOTH",
"590 1693 OFFCURVE",
"634 1677 OFFCURVE",
"673 1677 CURVE SMOOTH",
"738 1677 OFFCURVE",
"789 1706 OFFCURVE",
"827 1764 CURVE",
"875 1704 LINE",
"811 1596 OFFCURVE",
"737 1542 OFFCURVE",
"654 1542 CURVE SMOOTH",
"603 1542 OFFCURVE",
"553 1558 OFFCURVE",
"504 1591 CURVE SMOOTH",
"455 1624 OFFCURVE",
"411 1641 OFFCURVE",
"371 1641 CURVE SMOOTH",
"307 1641 OFFCURVE",
"256 1612 OFFCURVE",
"217 1555 CURVE"
);
}
);
};
layerId = "4E782664-D0D5-4FED-AFC2-B9212141A2ED";
paths = (
{
closed = 1;
nodes = (
"41 1456 LINE",
"41 1356 LINE",
"134 1353 OFFCURVE",
"191 1342 OFFCURVE",
"224 1314 CURVE SMOOTH",
"256 1285 OFFCURVE",
"265 1237 OFFCURVE",
"262 1161 CURVE",
"262 608 LINE SMOOTH",
"262 449 OFFCURVE",
"283 344 OFFCURVE",
"336 244 CURVE SMOOTH",
"435 55 OFFCURVE",
"641 -47 OFFCURVE",
"920 -47 CURVE SMOOTH",
"1179 -47 OFFCURVE",
"1369 59 OFFCURVE",
"1458 252 CURVE SMOOTH",
"1503 348 OFFCURVE",
"1522 459 OFFCURVE",
"1522 623 CURVE SMOOTH",
"1522 1044 LINE SMOOTH",
"1522 1119 OFFCURVE",
"1526 1178 OFFCURVE",
"1539 1222 CURVE SMOOTH",
"1566 1309 OFFCURVE",
"1631 1347 OFFCURVE",
"1751 1356 CURVE",
"1751 1456 LINE",
"1143 1456 LINE",
"1143 1356 LINE",
"1243 1351 OFFCURVE",
"1307 1331 OFFCURVE",
"1344 1284 CURVE SMOOTH",
"1381 1237 OFFCURVE",
"1391 1161 OFFCURVE",
"1391 1044 CURVE SMOOTH",
"1391 631 LINE SMOOTH",
"1391 492 OFFCURVE",
"1376 406 OFFCURVE",
"1343 334 CURVE SMOOTH",
"1276 189 OFFCURVE",
"1162 121 OFFCURVE",
"983 121 CURVE SMOOTH",
"846 121 OFFCURVE",
"721 186 OFFCURVE",
"649 295 CURVE SMOOTH",
"600 368 OFFCURVE",
"575 480 OFFCURVE",
"575 629 CURVE SMOOTH",
"575 1161 LINE SMOOTH",
"575 1240 OFFCURVE",
"583 1288 OFFCURVE",
"617 1316 CURVE SMOOTH",
"651 1343 OFFCURVE",
"712 1353 OFFCURVE",
"815 1356 CURVE",
"815 1456 LINE"
);
},
{
closed = 1;
nodes = (
"663 1544 LINE",
"694 1600 OFFCURVE",
"740 1628 OFFCURVE",
"799 1628 CURVE SMOOTH",
"850 1628 OFFCURVE",
"897 1616 OFFCURVE",
"942 1591 CURVE SMOOTH",
"1003 1559 OFFCURVE",
"1053 1544 OFFCURVE",
"1120 1544 CURVE SMOOTH",
"1196 1544 OFFCURVE",
"1280 1607 OFFCURVE",
"1333 1700 CURVE",
"1278 1802 LINE",
"1247 1746 OFFCURVE",
"1202 1718 OFFCURVE",
"1143 1718 CURVE SMOOTH",
"1092 1718 OFFCURVE",
"1047 1728 OFFCURVE",
"1010 1749 CURVE SMOOTH",
"938 1790 OFFCURVE",
"892 1802 OFFCURVE",
"821 1802 CURVE SMOOTH",
"745 1802 OFFCURVE",
"661 1742 OFFCURVE",
"608 1647 CURVE"
);
}
);
vertWidth = 2048;
width = 1782;
}
);
unicode = 0168;
},
{
color = 3;
glyphname = Wcircumflex;
lastChange = "2022-11-09 21:06:47 +0000";
layers = (
{
background = {
paths = (
{
closed = 1;
nodes = (
"10 1456 LINE",
"248 1456 LINE",
"248 1382 LINE",
"215 1365 OFFCURVE",
"198 1342 OFFCURVE",
"198 1314 CURVE SMOOTH",
"198 1293 OFFCURVE",
"200 1264 OFFCURVE",
"205 1229 CURVE SMOOTH",
"332 291 LINE",
"340 291 LINE",
"461 1337 LINE",
"600 1337 LINE",
"733 291 LINE",
"739 291 LINE",
"850 1214 LINE SMOOTH",
"853 1241 OFFCURVE",
"854 1270 OFFCURVE",
"854 1301 CURVE SMOOTH",
"854 1348 OFFCURVE",
"829 1375 OFFCURVE",
"778 1382 CURVE",
"778 1456 LINE",
"1011 1456 LINE",
"1011 1384 LINE",
"974 1364 OFFCURVE",
"951 1310 OFFCURVE",
"940 1223 CURVE SMOOTH",
"784 -25 LINE",
"663 -25 LINE",
"522 1030 LINE",
"516 1030 LINE",
"387 -25 LINE",
"268 -25 LINE",
"80 1247 LINE SMOOTH",
"69 1322 OFFCURVE",
"46 1367 OFFCURVE",
"10 1382 CURVE"
);
},
{
closed = 1;
nodes = (
"443 1800 LINE",
"611 1800 LINE",
"871 1563 LINE",
"744 1563 LINE",
"527 1696 LINE",
"310 1563 LINE",
"183 1563 LINE"
);
}
);
};
layerId = "4E782664-D0D5-4FED-AFC2-B9212141A2ED";
paths = (
{
closed = 1;
nodes = (
"25 1456 LINE",
"25 1358 LINE",
"55 1352 OFFCURVE",
"80 1342 OFFCURVE",
"100 1327 CURVE SMOOTH",
"139 1298 OFFCURVE",
"164 1239 OFFCURVE",
"199 1127 CURVE SMOOTH",
"555 -25 LINE",
"754 -25 LINE",
"1018 885 LINE",
"1026 885 LINE",
"1288 -25 LINE",
"1475 -25 LINE",
"1794 1022 LINE SMOOTH",
"1832 1148 OFFCURVE",
"1855 1228 OFFCURVE",
"1888 1277 CURVE SMOOTH",
"1920 1325 OFFCURVE",
"1962 1347 OFFCURVE",
"2023 1360 CURVE",
"2023 1456 LINE",
"1542 1456 LINE",
"1542 1358 LINE",
"1653 1342 OFFCURVE",
"1706 1294 OFFCURVE",
"1706 1203 CURVE SMOOTH",
"1706 1172 OFFCURVE",
"1696 1106 OFFCURVE",
"1675 1037 CURVE",
"1483 416 LINE",
"1477 416 LINE",
"1202 1321 LINE",
"999 1321 LINE",
"750 418 LINE",
"743 418 LINE",
"514 1137 LINE",
"497 1190 OFFCURVE",
"487 1243 OFFCURVE",
"487 1270 CURVE SMOOTH",
"487 1330 OFFCURVE",
"528 1355 OFFCURVE",
"627 1356 CURVE",
"627 1456 LINE"
);
},
{
closed = 1;
nodes = (
"968 1800 LINE",
"708 1538 LINE",
"865 1538 LINE",
"1072 1667 LINE",
"1279 1538 LINE",
"1437 1538 LINE",
"1177 1800 LINE"
);
}
);
vertWidth = 2048;
width = 2048;
}
);
unicode = 0174;
},
{
color = 3;
glyphname = Ycircumflex;
lastChange = "2022-11-09 21:06:42 +0000";
layers = (
{
background = {
paths = (
{
closed = 1;
nodes = (
"72 1454 LINE",
"418 1454 LINE",
"418 1378 LINE",
"357 1372 OFFCURVE",
"326 1352 OFFCURVE",
"326 1319 CURVE SMOOTH",
"326 1302 OFFCURVE",
"329 1284 OFFCURVE",
"336 1266 CURVE SMOOTH",
"537 723 LINE",
"737 1249 LINE SMOOTH",
"746 1270 OFFCURVE",
"750 1290 OFFCURVE",
"750 1307 CURVE SMOOTH",
"750 1345 OFFCURVE",
"719 1369 OFFCURVE",
"656 1378 CURVE",
"656 1454 LINE",
"953 1454 LINE",
"953 1378 LINE",
"920 1368 OFFCURVE",
"897 1355 OFFCURVE",
"885 1340 CURVE SMOOTH",
"867 1317 OFFCURVE",
"849 1281 OFFCURVE",
"830 1233 CURVE SMOOTH",
"576 588 LINE",
"576 172 LINE SMOOTH",
"576 141 OFFCURVE",
"584 119 OFFCURVE",
"601 104 CURVE SMOOTH",
"615 92 OFFCURVE",
"645 81 OFFCURVE",
"690 72 CURVE",
"690 0 LINE",
"330 0 LINE",
"330 72 LINE",
"377 77 OFFCURVE",
"407 87 OFFCURVE",
"422 102 CURVE SMOOTH",
"436 115 OFFCURVE",
"443 139 OFFCURVE",
"443 172 CURVE SMOOTH",
"443 594 LINE",
"189 1268 LINE SMOOTH",
"164 1333 OFFCURVE",
"125 1369 OFFCURVE",
"72 1378 CURVE"
);
},
{
closed = 1;
nodes = (
"443 1800 LINE",
"611 1800 LINE",
"871 1563 LINE",
"744 1563 LINE",
"527 1696 LINE",
"310 1563 LINE",
"183 1563 LINE"
);
}
);
};
layerId = "4E782664-D0D5-4FED-AFC2-B9212141A2ED";
paths = (
{
closed = 1;
nodes = (
"20 1454 LINE",
"20 1356 LINE",
"79 1345 OFFCURVE",
"120 1330 OFFCURVE",
"160 1297 CURVE SMOOTH",
"200 1264 OFFCURVE",
"241 1209 OFFCURVE",
"301 1120 CURVE SMOOTH",
"653 604 LINE",
"653 295 LINE",
"656 218 OFFCURVE",
"645 169 OFFCURVE",
"612 141 CURVE SMOOTH",
"579 113 OFFCURVE",
"518 103 OFFCURVE",
"418 100 CURVE",
"418 0 LINE",
"1202 0 LINE",
"1202 100 LINE",
"1103 103 OFFCURVE",
"1043 112 OFFCURVE",
"1008 141 CURVE SMOOTH",
"973 169 OFFCURVE",
"964 218 OFFCURVE",
"967 295 CURVE",
"967 616 LINE",
"1251 1014 LINE SMOOTH",
"1290 1069 OFFCURVE",
"1324 1115 OFFCURVE",
"1353 1152 CURVE SMOOTH",
"1410 1226 OFFCURVE",
"1452 1272 OFFCURVE",
"1491 1301 CURVE SMOOTH",
"1530 1330 OFFCURVE",
"1568 1345 OFFCURVE",
"1620 1358 CURVE",
"1620 1454 LINE",
"1010 1454 LINE",
"1010 1354 LINE",
"1079 1352 OFFCURVE",
"1132 1343 OFFCURVE",
"1169 1326 CURVE SMOOTH",
"1206 1309 OFFCURVE",
"1225 1287 OFFCURVE",
"1225 1260 CURVE SMOOTH",
"1225 1207 OFFCURVE",
"1195 1135 OFFCURVE",
"1124 1038 CURVE SMOOTH",
"913 748 LINE",
"631 1139 LINE SMOOTH",
"590 1195 OFFCURVE",
"571 1241 OFFCURVE",
"571 1274 CURVE SMOOTH",
"571 1301 OFFCURVE",
"586 1321 OFFCURVE",
"616 1334 CURVE SMOOTH",
"645 1347 OFFCURVE",
"693 1353 OFFCURVE",
"760 1354 CURVE",
"760 1454 LINE"
);
},
{
closed = 1;
nodes = (
"788 1800 LINE",
"528 1538 LINE",
"685 1538 LINE",
"892 1667 LINE",
"1099 1538 LINE",
"1257 1538 LINE",
"997 1800 LINE"
);
}
);
vertWidth = 2048;
width = 1638;
}
);
unicode = 0176;
},
{
color = 3;
glyphname = Ydieresis;
lastChange = "2022-11-09 21:04:25 +0000";
layers = (
{
background = {
paths = (
{
closed = 1;
nodes = (
"72 1454 LINE",
"418 1454 LINE",
"418 1378 LINE",
"357 1372 OFFCURVE",
"326 1352 OFFCURVE",
"326 1319 CURVE SMOOTH",
"326 1302 OFFCURVE",
"329 1284 OFFCURVE",
"336 1266 CURVE SMOOTH",
"537 723 LINE",
"737 1249 LINE SMOOTH",
"745 1270 OFFCURVE",
"750 1290 OFFCURVE",
"750 1307 CURVE SMOOTH",
"750 1345 OFFCURVE",
"719 1369 OFFCURVE",
"656 1378 CURVE",
"656 1454 LINE",
"953 1454 LINE",
"953 1378 LINE",
"920 1368 OFFCURVE",
"897 1355 OFFCURVE",
"885 1340 CURVE SMOOTH",
"867 1317 OFFCURVE",
"849 1281 OFFCURVE",
"830 1233 CURVE SMOOTH",
"576 588 LINE",
"576 172 LINE SMOOTH",
"576 141 OFFCURVE",
"584 119 OFFCURVE",
"601 104 CURVE SMOOTH",
"615 92 OFFCURVE",
"645 81 OFFCURVE",
"690 72 CURVE",
"690 0 LINE",
"330 0 LINE",
"330 72 LINE",
"377 77 OFFCURVE",
"407 87 OFFCURVE",
"422 102 CURVE SMOOTH",
"436 115 OFFCURVE",
"443 139 OFFCURVE",
"443 172 CURVE SMOOTH",
"443 594 LINE",
"189 1268 LINE SMOOTH",
"164 1333 OFFCURVE",
"125 1369 OFFCURVE",
"72 1378 CURVE"
);
},
{
closed = 1;
nodes = (
"313 1801 OFFCURVE",
"330 1797 OFFCURVE",
"346 1790 CURVE SMOOTH",
"391 1768 OFFCURVE",
"414 1732 OFFCURVE",
"414 1682 CURVE SMOOTH",
"414 1649 OFFCURVE",
"402 1621 OFFCURVE",
"379 1598 CURVE SMOOTH",
"356 1575 OFFCURVE",
"327 1563 OFFCURVE",
"294 1563 CURVE SMOOTH",
"274 1563 OFFCURVE",
"255 1568 OFFCURVE",
"238 1578 CURVE SMOOTH",
"197 1601 OFFCURVE",
"176 1636 OFFCURVE",
"176 1683 CURVE SMOOTH",
"176 1718 OFFCURVE",
"189 1747 OFFCURVE",
"215 1770 CURVE SMOOTH",
"237 1791 OFFCURVE",
"264 1801 OFFCURVE",
"296 1801 CURVE SMOOTH"
);
},
{
closed = 1;
nodes = (
"768 1801 OFFCURVE",
"785 1797 OFFCURVE",
"801 1790 CURVE SMOOTH",
"846 1768 OFFCURVE",
"869 1732 OFFCURVE",
"869 1682 CURVE SMOOTH",
"869 1649 OFFCURVE",
"857 1621 OFFCURVE",
"834 1598 CURVE SMOOTH",
"811 1575 OFFCURVE",
"782 1563 OFFCURVE",
"749 1563 CURVE SMOOTH",
"729 1563 OFFCURVE",
"710 1568 OFFCURVE",
"693 1578 CURVE SMOOTH",
"652 1601 OFFCURVE",
"631 1636 OFFCURVE",
"631 1683 CURVE SMOOTH",
"631 1717 OFFCURVE",
"644 1746 OFFCURVE",
"670 1770 CURVE SMOOTH",
"692 1791 OFFCURVE",
"719 1801 OFFCURVE",
"751 1801 CURVE SMOOTH"
);
}
);
};
layerId = "4E782664-D0D5-4FED-AFC2-B9212141A2ED";
paths = (
{
closed = 1;
nodes = (
"20 1454 LINE",
"20 1356 LINE",
"79 1345 OFFCURVE",
"120 1330 OFFCURVE",
"160 1297 CURVE SMOOTH",
"200 1264 OFFCURVE",
"241 1209 OFFCURVE",
"301 1120 CURVE SMOOTH",
"653 604 LINE",
"653 295 LINE",
"656 218 OFFCURVE",
"645 169 OFFCURVE",
"612 141 CURVE SMOOTH",
"579 113 OFFCURVE",
"518 103 OFFCURVE",
"418 100 CURVE",
"418 0 LINE",
"1202 0 LINE",
"1202 100 LINE",
"1103 103 OFFCURVE",
"1043 112 OFFCURVE",
"1008 141 CURVE SMOOTH",
"973 169 OFFCURVE",
"964 218 OFFCURVE",
"967 295 CURVE",
"967 616 LINE",
"1251 1014 LINE SMOOTH",
"1290 1069 OFFCURVE",
"1324 1115 OFFCURVE",
"1353 1152 CURVE SMOOTH",
"1410 1226 OFFCURVE",
"1452 1272 OFFCURVE",
"1491 1301 CURVE SMOOTH",
"1530 1330 OFFCURVE",
"1568 1345 OFFCURVE",
"1620 1358 CURVE",
"1620 1454 LINE",
"1010 1454 LINE",
"1010 1354 LINE",
"1079 1352 OFFCURVE",
"1132 1343 OFFCURVE",
"1169 1326 CURVE SMOOTH",
"1206 1309 OFFCURVE",
"1225 1287 OFFCURVE",
"1225 1260 CURVE SMOOTH",
"1225 1207 OFFCURVE",
"1195 1135 OFFCURVE",
"1124 1038 CURVE SMOOTH",
"913 748 LINE",
"631 1139 LINE SMOOTH",
"590 1195 OFFCURVE",
"571 1241 OFFCURVE",
"571 1274 CURVE SMOOTH",
"571 1301 OFFCURVE",
"586 1321 OFFCURVE",
"616 1334 CURVE SMOOTH",
"645 1347 OFFCURVE",
"693 1353 OFFCURVE",
"760 1354 CURVE",
"760 1454 LINE"
);
},
{
closed = 1;
nodes = (
"599 1802 OFFCURVE",
"575 1796 OFFCURVE",
"554 1783 CURVE SMOOTH",
"510 1757 OFFCURVE",
"481 1711 OFFCURVE",
"481 1659 CURVE SMOOTH",
"481 1633 OFFCURVE",
"488 1609 OFFCURVE",
"501 1588 CURVE SMOOTH",
"528 1544 OFFCURVE",
"573 1516 OFFCURVE",
"625 1516 CURVE SMOOTH",
"651 1516 OFFCURVE",
"675 1523 OFFCURVE",
"697 1536 CURVE SMOOTH",
"740 1562 OFFCURVE",
"768 1607 OFFCURVE",
"768 1659 CURVE SMOOTH",
"768 1685 OFFCURVE",
"762 1709 OFFCURVE",
"749 1731 CURVE SMOOTH",
"723 1774 OFFCURVE",
"677 1802 OFFCURVE",
"625 1802 CURVE SMOOTH"
);
},
{
closed = 1;
nodes = (
"1070 1802 OFFCURVE",
"1046 1796 OFFCURVE",
"1025 1783 CURVE SMOOTH",
"981 1757 OFFCURVE",
"952 1711 OFFCURVE",
"952 1659 CURVE SMOOTH",
"952 1633 OFFCURVE",
"959 1609 OFFCURVE",
"972 1588 CURVE SMOOTH",
"999 1544 OFFCURVE",
"1044 1516 OFFCURVE",
"1096 1516 CURVE SMOOTH",
"1122 1516 OFFCURVE",
"1146 1523 OFFCURVE",
"1168 1536 CURVE SMOOTH",
"1211 1562 OFFCURVE",
"1239 1607 OFFCURVE",
"1239 1659 CURVE SMOOTH",
"1239 1685 OFFCURVE",
"1233 1709 OFFCURVE",
"1220 1731 CURVE SMOOTH",
"1194 1774 OFFCURVE",
"1148 1802 OFFCURVE",
"1096 1802 CURVE SMOOTH"
);
}
);
vertWidth = 2048;
width = 1638;
}
);
unicode = 0178;
},
{
color = 3;
glyphname = cdotaccent;
lastChange = "2022-11-09 21:35:43 +0000";
layers = (
{
background = {
paths = (
{
closed = 1;
nodes = (
"848 272 LINE",
"789 63 OFFCURVE",
"684 -41 OFFCURVE",
"533 -41 CURVE SMOOTH",
"417 -41 OFFCURVE",
"324 19 OFFCURVE",
"254 140 CURVE SMOOTH",
"191 247 OFFCURVE",
"160 385 OFFCURVE",
"160 554 CURVE SMOOTH",
"160 705 OFFCURVE",
"189 833 OFFCURVE",
"246 940 CURVE SMOOTH",
"321 1078 OFFCURVE",
"422 1147 OFFCURVE",
"549 1147 CURVE SMOOTH",
"630 1147 OFFCURVE",
"695 1122 OFFCURVE",
"746 1071 CURVE SMOOTH",
"797 1021 OFFCURVE",
"822 967 OFFCURVE",
"822 910 CURVE SMOOTH",
"822 879 OFFCURVE",
"813 854 OFFCURVE",
"796 834 CURVE SMOOTH",
"777 812 OFFCURVE",
"752 801 OFFCURVE",
"721 801 CURVE SMOOTH",
"678 801 OFFCURVE",
"648 820 OFFCURVE",
"630 858 CURVE SMOOTH",
"624 870 OFFCURVE",
"621 883 OFFCURVE",
"621 897 CURVE SMOOTH",
"621 936 OFFCURVE",
"637 966 OFFCURVE",
"670 987 CURVE",
"653 1028 OFFCURVE",
"615 1049 OFFCURVE",
"557 1049 CURVE SMOOTH",
"498 1049 OFFCURVE",
"448 1015 OFFCURVE",
"405 946 CURVE SMOOTH",
"346 852 OFFCURVE",
"316 721 OFFCURVE",
"316 553 CURVE SMOOTH",
"316 408 OFFCURVE",
"340 290 OFFCURVE",
"388 201 CURVE SMOOTH",
"433 116 OFFCURVE",
"489 74 OFFCURVE",
"554 74 CURVE SMOOTH",
"655 74 OFFCURVE",
"731 157 OFFCURVE",
"783 322 CURVE"
);
},
{
closed = 1;
nodes = (
"565 1596 OFFCURVE",
"589 1589 OFFCURVE",
"612 1575 CURVE SMOOTH",
"658 1548 OFFCURVE",
"681 1507 OFFCURVE",
"681 1454 CURVE SMOOTH",
"681 1418 OFFCURVE",
"669 1386 OFFCURVE",
"644 1359 CURVE SMOOTH",
"616 1328 OFFCURVE",
"581 1313 OFFCURVE",
"538 1313 CURVE SMOOTH",
"515 1313 OFFCURVE",
"493 1319 OFFCURVE",
"472 1330 CURVE SMOOTH",
"423 1357 OFFCURVE",
"398 1399 OFFCURVE",
"398 1455 CURVE SMOOTH",
"398 1494 OFFCURVE",
"412 1528 OFFCURVE",
"441 1556 CURVE SMOOTH",
"468 1583 OFFCURVE",
"501 1596 OFFCURVE",
"540 1596 CURVE SMOOTH"
);
}
);
};
layerId = "4E782664-D0D5-4FED-AFC2-B9212141A2ED";
paths = (
{
closed = 1;
nodes = (
"1149 319 LINE",
"1064 182 OFFCURVE",
"951 113 OFFCURVE",
"809 113 CURVE SMOOTH",
"738 113 OFFCURVE",
"676 132 OFFCURVE",
"623 170 CURVE SMOOTH",
"518 246 OFFCURVE",
"459 390 OFFCURVE",
"459 582 CURVE SMOOTH",
"459 675 OFFCURVE",
"472 756 OFFCURVE",
"498 825 CURVE SMOOTH",
"549 961 OFFCURVE",
"644 1038 OFFCURVE",
"772 1038 CURVE SMOOTH",
"860 1038 OFFCURVE",
"930 1018 OFFCURVE",
"965 979 CURVE",
"913 953 OFFCURVE",
"887 907 OFFCURVE",
"887 840 CURVE SMOOTH",
"887 817 OFFCURVE",
"894 795 OFFCURVE",
"908 774 CURVE SMOOTH",
"936 733 OFFCURVE",
"985 705 OFFCURVE",
"1038 705 CURVE SMOOTH",
"1065 705 OFFCURVE",
"1090 712 OFFCURVE",
"1112 726 CURVE SMOOTH",
"1156 754 OFFCURVE",
"1184 803 OFFCURVE",
"1184 860 CURVE SMOOTH",
"1184 939 OFFCURVE",
"1135 1010 OFFCURVE",
"1052 1063 CURVE SMOOTH",
"968 1115 OFFCURVE",
"857 1147 OFFCURVE",
"733 1147 CURVE SMOOTH",
"552 1147 OFFCURVE",
"400 1088 OFFCURVE",
"293 984 CURVE SMOOTH",
"185 879 OFFCURVE",
"125 732 OFFCURVE",
"125 553 CURVE SMOOTH",
"125 373 OFFCURVE",
"182 225 OFFCURVE",
"284 121 CURVE SMOOTH",
"386 17 OFFCURVE",
"531 -41 OFFCURVE",
"707 -41 CURVE SMOOTH",
"942 -41 OFFCURVE",
"1104 47 OFFCURVE",
"1219 236 CURVE"
);
},
{
closed = 1;
nodes = (
"704 1597 OFFCURVE",
"680 1591 OFFCURVE",
"659 1578 CURVE SMOOTH",
"615 1552 OFFCURVE",
"587 1506 OFFCURVE",
"587 1454 CURVE SMOOTH",
"587 1428 OFFCURVE",
"594 1404 OFFCURVE",
"607 1383 CURVE SMOOTH",
"633 1339 OFFCURVE",
"678 1311 OFFCURVE",
"730 1311 CURVE SMOOTH",
"756 1311 OFFCURVE",
"780 1318 OFFCURVE",
"802 1331 CURVE SMOOTH",
"845 1357 OFFCURVE",
"873 1402 OFFCURVE",
"873 1454 CURVE SMOOTH",
"873 1480 OFFCURVE",
"867 1504 OFFCURVE",
"854 1526 CURVE SMOOTH",
"828 1569 OFFCURVE",
"782 1597 OFFCURVE",
"730 1597 CURVE SMOOTH"
);
}
);
vertWidth = 2048;
width = 1321;
}
);
unicode = 010B;
},
{
color = 3;
glyphname = ebreve;
lastChange = "2022-11-09 21:43:48 +0000";
layers = (
{
background = {
paths = (
{
closed = 1;
nodes = (
"297 564 LINE",
"297 525 LINE SMOOTH",
"297 390 OFFCURVE",
"321 281 OFFCURVE",
"368 198 CURVE SMOOTH",
"415 115 OFFCURVE",
"474 74 OFFCURVE",
"545 74 CURVE SMOOTH",
"643 74 OFFCURVE",
"722 154 OFFCURVE",
"783 314 CURVE",
"844 252 LINE",
"770 57 OFFCURVE",
"662 -41 OFFCURVE",
"521 -41 CURVE SMOOTH",
"432 -41 OFFCURVE",
"355 -2 OFFCURVE",
"290 77 CURVE SMOOTH",
"202 185 OFFCURVE",
"158 339 OFFCURVE",
"158 539 CURVE SMOOTH",
"158 716 OFFCURVE",
"192 863 OFFCURVE",
"261 979 CURVE SMOOTH",
"328 1091 OFFCURVE",
"412 1147 OFFCURVE",
"511 1147 CURVE SMOOTH",
"610 1147 OFFCURVE",
"693 1090 OFFCURVE",
"760 976 CURVE SMOOTH",
"820 872 OFFCURVE",
"850 748 OFFCURVE",
"850 605 CURVE SMOOTH",
"850 564 LINE"
);
},
{
closed = 1;
nodes = (
"703 662 LINE",
"700 780 OFFCURVE",
"681 874 OFFCURVE",
"647 943 CURVE SMOOTH",
"612 1015 OFFCURVE",
"567 1051 OFFCURVE",
"512 1051 CURVE SMOOTH",
"463 1051 OFFCURVE",
"419 1016 OFFCURVE",
"378 946 CURVE SMOOTH",
"333 870 OFFCURVE",
"308 775 OFFCURVE",
"303 662 CURVE"
);
},
{
closed = 1;
nodes = (
"820 1557 LINE",
"818 1481 OFFCURVE",
"799 1420 OFFCURVE",
"764 1373 CURVE SMOOTH",
"709 1300 OFFCURVE",
"625 1264 OFFCURVE",
"512 1264 CURVE SMOOTH",
"390 1264 OFFCURVE",
"303 1306 OFFCURVE",
"250 1389 CURVE SMOOTH",
"222 1434 OFFCURVE",
"207 1490 OFFCURVE",
"205 1557 CURVE",
"302 1557 LINE",
"317 1444 OFFCURVE",
"387 1387 OFFCURVE",
"513 1387 CURVE SMOOTH",
"638 1387 OFFCURVE",
"708 1444 OFFCURVE",
"723 1557 CURVE"
);
}
);
};
layerId = "4E782664-D0D5-4FED-AFC2-B9212141A2ED";
paths = (
{
closed = 1;
nodes = (
"430 537 LINE",
"1237 537 LINE",
"1237 586 LINE SMOOTH",
"1237 766 OFFCURVE",
"1178 907 OFFCURVE",
"1059 1010 CURVE SMOOTH",
"956 1097 OFFCURVE",
"811 1147 OFFCURVE",
"670 1147 CURVE SMOOTH",
"505 1147 OFFCURVE",
"365 1086 OFFCURVE",
"263 980 CURVE SMOOTH",
"161 874 OFFCURVE",
"102 726 OFFCURVE",
"102 553 CURVE SMOOTH",
"102 373 OFFCURVE",
"162 225 OFFCURVE",
"270 121 CURVE SMOOTH",
"378 17 OFFCURVE",
"531 -41 OFFCURVE",
"719 -41 CURVE SMOOTH",
"944 -41 OFFCURVE",
"1108 49 OFFCURVE",
"1229 238 CURVE",
"1153 328 LINE",
"1068 187 OFFCURVE",
"942 111 OFFCURVE",
"799 111 CURVE SMOOTH",
"563 111 OFFCURVE",
"430 260 OFFCURVE",
"430 524 CURVE SMOOTH"
);
},
{
closed = 1;
nodes = (
"432 651 LINE",
"439 762 OFFCURVE",
"452 828 OFFCURVE",
"481 893 CURVE SMOOTH",
"524 985 OFFCURVE",
"597 1038 OFFCURVE",
"678 1038 CURVE SMOOTH",
"721 1038 OFFCURVE",
"760 1021 OFFCURVE",
"794 988 CURVE SMOOTH",
"862 920 OFFCURVE",
"904 800 OFFCURVE",
"907 651 CURVE"
);
},
{
closed = 1;
nodes = (
"346 1556 LINE",
"359 1491 OFFCURVE",
"382 1439 OFFCURVE",
"413 1398 CURVE SMOOTH",
"476 1316 OFFCURVE",
"567 1278 OFFCURVE",
"667 1278 CURVE SMOOTH",
"718 1278 OFFCURVE",
"765 1288 OFFCURVE",
"809 1307 CURVE SMOOTH",
"897 1346 OFFCURVE",
"964 1427 OFFCURVE",
"989 1556 CURVE",
"872 1556 LINE",
"837 1483 OFFCURVE",
"770 1434 OFFCURVE",
"665 1434 CURVE SMOOTH",
"561 1434 OFFCURVE",
"497 1483 OFFCURVE",
"462 1556 CURVE"
);
}
);
vertWidth = 2048;
width = 1352;
}
);
unicode = 0115;
},
{
color = 3;
glyphname = edotaccent;
lastChange = "2022-11-09 21:35:36 +0000";
layers = (
{
background = {
paths = (
{
closed = 1;
nodes = (
"297 564 LINE",
"297 525 LINE SMOOTH",
"297 390 OFFCURVE",
"321 281 OFFCURVE",
"368 198 CURVE SMOOTH",
"415 115 OFFCURVE",
"474 74 OFFCURVE",
"545 74 CURVE SMOOTH",
"643 74 OFFCURVE",
"722 154 OFFCURVE",
"783 314 CURVE",
"844 252 LINE",
"770 57 OFFCURVE",
"662 -41 OFFCURVE",
"521 -41 CURVE SMOOTH",
"432 -41 OFFCURVE",
"355 -2 OFFCURVE",
"290 77 CURVE SMOOTH",
"202 185 OFFCURVE",
"158 339 OFFCURVE",
"158 539 CURVE SMOOTH",
"158 716 OFFCURVE",
"192 863 OFFCURVE",
"261 979 CURVE SMOOTH",
"328 1091 OFFCURVE",
"412 1147 OFFCURVE",
"511 1147 CURVE SMOOTH",
"610 1147 OFFCURVE",
"693 1090 OFFCURVE",
"760 976 CURVE SMOOTH",
"820 872 OFFCURVE",
"850 748 OFFCURVE",
"850 605 CURVE SMOOTH",
"850 564 LINE"
);
},
{
closed = 1;
nodes = (
"703 662 LINE",
"700 780 OFFCURVE",
"681 874 OFFCURVE",
"647 943 CURVE SMOOTH",
"612 1015 OFFCURVE",
"567 1051 OFFCURVE",
"512 1051 CURVE SMOOTH",
"463 1051 OFFCURVE",
"419 1016 OFFCURVE",
"378 946 CURVE SMOOTH",
"333 870 OFFCURVE",
"308 775 OFFCURVE",
"303 662 CURVE"
);
},
{
closed = 1;
nodes = (
"538 1596 OFFCURVE",
"562 1589 OFFCURVE",
"585 1575 CURVE SMOOTH",
"631 1548 OFFCURVE",
"654 1507 OFFCURVE",
"654 1454 CURVE SMOOTH",
"654 1418 OFFCURVE",
"642 1386 OFFCURVE",
"617 1359 CURVE SMOOTH",
"589 1328 OFFCURVE",
"554 1313 OFFCURVE",
"511 1313 CURVE SMOOTH",
"488 1313 OFFCURVE",
"466 1319 OFFCURVE",
"445 1330 CURVE SMOOTH",
"396 1357 OFFCURVE",
"371 1399 OFFCURVE",
"371 1455 CURVE SMOOTH",
"371 1494 OFFCURVE",
"385 1528 OFFCURVE",
"414 1556 CURVE SMOOTH",
"441 1583 OFFCURVE",
"474 1596 OFFCURVE",
"513 1596 CURVE SMOOTH"
);
}
);
};
layerId = "4E782664-D0D5-4FED-AFC2-B9212141A2ED";
paths = (
{
closed = 1;
nodes = (
"430 537 LINE",
"1237 537 LINE",
"1237 586 LINE SMOOTH",
"1237 766 OFFCURVE",
"1178 907 OFFCURVE",
"1059 1010 CURVE SMOOTH",
"956 1097 OFFCURVE",
"811 1147 OFFCURVE",
"670 1147 CURVE SMOOTH",
"505 1147 OFFCURVE",
"365 1086 OFFCURVE",
"263 980 CURVE SMOOTH",
"161 874 OFFCURVE",
"102 726 OFFCURVE",
"102 553 CURVE SMOOTH",
"102 373 OFFCURVE",
"162 225 OFFCURVE",
"270 121 CURVE SMOOTH",
"378 17 OFFCURVE",
"531 -41 OFFCURVE",
"719 -41 CURVE SMOOTH",
"944 -41 OFFCURVE",
"1108 49 OFFCURVE",
"1229 238 CURVE",
"1153 328 LINE",
"1068 187 OFFCURVE",
"942 111 OFFCURVE",
"799 111 CURVE SMOOTH",
"563 111 OFFCURVE",
"430 260 OFFCURVE",
"430 524 CURVE SMOOTH"
);
},
{
closed = 1;
nodes = (
"432 651 LINE",
"439 762 OFFCURVE",
"452 828 OFFCURVE",
"481 893 CURVE SMOOTH",
"524 985 OFFCURVE",
"597 1038 OFFCURVE",
"678 1038 CURVE SMOOTH",
"721 1038 OFFCURVE",
"760 1021 OFFCURVE",
"794 988 CURVE SMOOTH",
"862 920 OFFCURVE",
"904 800 OFFCURVE",
"907 651 CURVE"
);
},
{
closed = 1;
nodes = (
"644 1597 OFFCURVE",
"620 1591 OFFCURVE",
"599 1578 CURVE SMOOTH",
"555 1552 OFFCURVE",
"527 1506 OFFCURVE",
"527 1454 CURVE SMOOTH",
"527 1428 OFFCURVE",
"534 1404 OFFCURVE",
"547 1383 CURVE SMOOTH",
"573 1339 OFFCURVE",
"618 1311 OFFCURVE",
"670 1311 CURVE SMOOTH",
"696 1311 OFFCURVE",
"720 1318 OFFCURVE",
"742 1331 CURVE SMOOTH",
"785 1357 OFFCURVE",
"813 1402 OFFCURVE",
"813 1454 CURVE SMOOTH",
"813 1480 OFFCURVE",
"807 1504 OFFCURVE",
"794 1526 CURVE SMOOTH",
"768 1569 OFFCURVE",
"722 1597 OFFCURVE",
"670 1597 CURVE SMOOTH"
);
}
);
vertWidth = 2048;
width = 1352;
}
);
unicode = 0117;
},
{
color = 3;
glyphname = gbreve;
lastChange = "2022-11-09 21:43:54 +0000";
layers = (
{
background = {
paths = (
{
closed = 1;
nodes = (
"287 264 LINE",
"212 294 OFFCURVE",
"174 342 OFFCURVE",
"174 407 CURVE SMOOTH",
"174 470 OFFCURVE",
"210 516 OFFCURVE",
"283 543 CURVE",
"212 601 OFFCURVE",
"176 688 OFFCURVE",
"176 804 CURVE SMOOTH",
"176 879 OFFCURVE",
"195 947 OFFCURVE",
"232 1007 CURVE SMOOTH",
"291 1100 OFFCURVE",
"373 1147 OFFCURVE",
"478 1147 CURVE SMOOTH",
"557 1147 OFFCURVE",
"621 1118 OFFCURVE",
"668 1059 CURVE",
"693 1109 OFFCURVE",
"729 1146 OFFCURVE",
"774 1169 CURVE SMOOTH",
"799 1182 OFFCURVE",
"823 1188 OFFCURVE",
"845 1188 CURVE SMOOTH",
"873 1188 OFFCURVE",
"897 1177 OFFCURVE",
"918 1156 CURVE SMOOTH",
"942 1131 OFFCURVE",
"954 1099 OFFCURVE",
"954 1062 CURVE SMOOTH",
"954 1000 OFFCURVE",
"927 969 OFFCURVE",
"873 969 CURVE SMOOTH",
"854 969 OFFCURVE",
"838 975 OFFCURVE",
"824 987 CURVE SMOOTH",
"805 1002 OFFCURVE",
"796 1024 OFFCURVE",
"796 1052 CURVE SMOOTH",
"796 1061 OFFCURVE",
"798 1072 OFFCURVE",
"801 1085 CURVE",
"773 1083 OFFCURVE",
"746 1056 OFFCURVE",
"721 1004 CURVE",
"759 944 OFFCURVE",
"778 877 OFFCURVE",
"778 802 CURVE SMOOTH",
"778 710 OFFCURVE",
"757 636 OFFCURVE",
"716 579 CURVE SMOOTH",
"664 510 OFFCURVE",
"586 475 OFFCURVE",
"482 475 CURVE SMOOTH",
"436 475 OFFCURVE",
"396 481 OFFCURVE",
"361 494 CURVE",
"316 489 OFFCURVE",
"293 466 OFFCURVE",
"293 426 CURVE SMOOTH",
"293 401 OFFCURVE",
"304 383 OFFCURVE",
"327 372 CURVE SMOOTH",
"351 360 OFFCURVE",
"386 351 OFFCURVE",
"432 346 CURVE SMOOTH",
"598 328 LINE SMOOTH",
"688 318 OFFCURVE",
"756 294 OFFCURVE",
"801 257 CURVE SMOOTH",
"857 212 OFFCURVE",
"885 142 OFFCURVE",
"885 49 CURVE SMOOTH",
"885 -146 OFFCURVE",
"753 -244 OFFCURVE",
"488 -244 CURVE SMOOTH",
"383 -244 OFFCURVE",
"298 -221 OFFCURVE",
"234 -175 CURVE SMOOTH",
"161 -122 OFFCURVE",
"125 -48 OFFCURVE",
"125 47 CURVE SMOOTH",
"125 149 OFFCURVE",
"179 218 OFFCURVE",
"287 254 CURVE"
);
},
{
closed = 1;
nodes = (
"423 1055 OFFCURVE",
"381 1029 OFFCURVE",
"350 977 CURVE SMOOTH",
"323 930 OFFCURVE",
"309 871 OFFCURVE",
"309 800 CURVE SMOOTH",
"309 745 OFFCURVE",
"317 698 OFFCURVE",
"334 660 CURVE SMOOTH",
"362 597 OFFCURVE",
"410 565 OFFCURVE",
"479 565 CURVE SMOOTH",
"535 565 OFFCURVE",
"578 589 OFFCURVE",
"608 638 CURVE SMOOTH",
"634 681 OFFCURVE",
"647 736 OFFCURVE",
"647 804 CURVE SMOOTH",
"647 887 OFFCURVE",
"626 953 OFFCURVE",
"585 1002 CURVE SMOOTH",
"555 1037 OFFCURVE",
"519 1055 OFFCURVE",
"476 1055 CURVE SMOOTH"
);
},
{
closed = 1;
nodes = (
"329 207 OFFCURVE",
"248 156 OFFCURVE",
"248 54 CURVE SMOOTH",
"248 11 OFFCURVE",
"262 -29 OFFCURVE",
"291 -65 CURVE SMOOTH",
"338 -124 OFFCURVE",
"406 -154 OFFCURVE",
"493 -154 CURVE SMOOTH",
"552 -154 OFFCURVE",
"603 -142 OFFCURVE",
"645 -118 CURVE SMOOTH",
"709 -81 OFFCURVE",
"741 -28 OFFCURVE",
"741 42 CURVE SMOOTH",
"741 152 OFFCURVE",
"657 207 OFFCURVE",
"490 207 CURVE SMOOTH"
);
},
{
closed = 1;
nodes = (
"786 1557 LINE",
"784 1481 OFFCURVE",
"765 1420 OFFCURVE",
"730 1373 CURVE SMOOTH",
"675 1300 OFFCURVE",
"591 1264 OFFCURVE",
"478 1264 CURVE SMOOTH",
"356 1264 OFFCURVE",
"269 1306 OFFCURVE",
"216 1389 CURVE SMOOTH",
"188 1434 OFFCURVE",
"173 1490 OFFCURVE",
"171 1557 CURVE",
"268 1557 LINE",
"283 1444 OFFCURVE",
"353 1387 OFFCURVE",
"479 1387 CURVE SMOOTH",
"604 1387 OFFCURVE",
"674 1444 OFFCURVE",
"689 1557 CURVE"
);
}
);
};
layerId = "4E782664-D0D5-4FED-AFC2-B9212141A2ED";
paths = (
{
closed = 1;
nodes = (
"1261 1251 OFFCURVE",
"1224 1245 OFFCURVE",
"1185 1234 CURVE SMOOTH",
"1106 1211 OFFCURVE",
"1028 1167 OFFCURVE",
"977 1102 CURVE",
"960 1110 OFFCURVE",
"937 1117 OFFCURVE",
"908 1124 CURVE SMOOTH",
"849 1137 OFFCURVE",
"776 1145 OFFCURVE",
"700 1145 CURVE SMOOTH",
"586 1145 OFFCURVE",
"488 1131 OFFCURVE",
"407 1103 CURVE SMOOTH",
"244 1047 OFFCURVE",
"154 943 OFFCURVE",
"154 807 CURVE SMOOTH",
"154 666 OFFCURVE",
"229 596 OFFCURVE",
"354 561 CURVE",
"305 557 OFFCURVE",
"264 547 OFFCURVE",
"233 530 CURVE SMOOTH",
"169 496 OFFCURVE",
"141 443 OFFCURVE",
"141 387 CURVE SMOOTH",
"141 306 OFFCURVE",
"215 233 OFFCURVE",
"354 217 CURVE",
"354 211 LINE",
"299 202 OFFCURVE",
"254 188 OFFCURVE",
"219 167 CURVE SMOOTH",
"147 126 OFFCURVE",
"113 69 OFFCURVE",
"113 12 CURVE SMOOTH",
"113 -39 OFFCURVE",
"137 -84 OFFCURVE",
"186 -123 CURVE SMOOTH",
"283 -201 OFFCURVE",
"466 -246 OFFCURVE",
"705 -246 CURVE SMOOTH",
"952 -246 OFFCURVE",
"1111 -207 OFFCURVE",
"1207 -143 CURVE SMOOTH",
"1302 -79 OFFCURVE",
"1339 6 OFFCURVE",
"1339 98 CURVE SMOOTH",
"1339 165 OFFCURVE",
"1307 242 OFFCURVE",
"1239 287 CURVE SMOOTH",
"1163 336 OFFCURVE",
"1051 369 OFFCURVE",
"879 373 CURVE SMOOTH",
"627 379 LINE SMOOTH",
"543 381 OFFCURVE",
"479 387 OFFCURVE",
"435 398 CURVE SMOOTH",
"391 408 OFFCURVE",
"369 425 OFFCURVE",
"369 449 CURVE SMOOTH",
"369 480 OFFCURVE",
"383 503 OFFCURVE",
"451 508 CURVE",
"470 503 OFFCURVE",
"494 499 OFFCURVE",
"523 496 CURVE SMOOTH",
"580 488 OFFCURVE",
"647 483 OFFCURVE",
"698 483 CURVE SMOOTH",
"813 483 OFFCURVE",
"909 497 OFFCURVE",
"988 526 CURVE SMOOTH",
"1144 583 OFFCURVE",
"1225 690 OFFCURVE",
"1225 827 CURVE SMOOTH",
"1225 918 OFFCURVE",
"1174 994 OFFCURVE",
"1085 1047 CURVE",
"1095 1068 OFFCURVE",
"1110 1085 OFFCURVE",
"1129 1099 CURVE SMOOTH",
"1168 1126 OFFCURVE",
"1215 1139 OFFCURVE",
"1243 1130 CURVE",
"1228 1102 OFFCURVE",
"1231 1065 OFFCURVE",
"1249 1033 CURVE SMOOTH",
"1267 1001 OFFCURVE",
"1301 979 OFFCURVE",
"1350 979 CURVE SMOOTH",
"1421 979 OFFCURVE",
"1470 1031 OFFCURVE",
"1470 1108 CURVE SMOOTH",
"1470 1135 OFFCURVE",
"1462 1159 OFFCURVE",
"1447 1181 CURVE SMOOTH",
"1416 1224 OFFCURVE",
"1362 1251 OFFCURVE",
"1294 1251 CURVE SMOOTH"
);
},
{
closed = 1;
nodes = (
"841 1047 OFFCURVE",
"924 977 OFFCURVE",
"924 821 CURVE SMOOTH",
"924 768 OFFCURVE",
"914 725 OFFCURVE",
"893 690 CURVE SMOOTH",
"852 620 OFFCURVE",
"779 586 OFFCURVE",
"694 586 CURVE SMOOTH",
"654 586 OFFCURVE",
"616 594 OFFCURVE",
"579 611 CURVE SMOOTH",
"506 643 OFFCURVE",
"455 712 OFFCURVE",
"455 821 CURVE SMOOTH",
"455 976 OFFCURVE",
"537 1047 OFFCURVE",
"694 1047 CURVE SMOOTH"
);
},
{
closed = 1;
nodes = (
"882 147 OFFCURVE",
"989 123 OFFCURVE",
"1038 88 CURVE SMOOTH",
"1063 71 OFFCURVE",
"1075 52 OFFCURVE",
"1075 31 CURVE SMOOTH",
"1075 -2 OFFCURVE",
"1061 -31 OFFCURVE",
"1033 -56 CURVE SMOOTH",
"977 -108 OFFCURVE",
"869 -139 OFFCURVE",
"717 -139 CURVE SMOOTH",
"624 -139 OFFCURVE",
"533 -124 OFFCURVE",
"465 -97 CURVE SMOOTH",
"396 -70 OFFCURVE",
"352 -33 OFFCURVE",
"352 8 CURVE SMOOTH",
"352 59 OFFCURVE",
"380 95 OFFCURVE",
"435 116 CURVE SMOOTH",
"490 137 OFFCURVE",
"580 147 OFFCURVE",
"705 147 CURVE SMOOTH"
);
},
{
closed = 1;
nodes = (
"376 1556 LINE",
"389 1491 OFFCURVE",
"412 1439 OFFCURVE",
"443 1398 CURVE SMOOTH",
"506 1316 OFFCURVE",
"597 1278 OFFCURVE",
"697 1278 CURVE SMOOTH",
"748 1278 OFFCURVE",
"795 1288 OFFCURVE",
"839 1307 CURVE SMOOTH",
"927 1346 OFFCURVE",
"994 1427 OFFCURVE",
"1019 1556 CURVE",
"902 1556 LINE",
"867 1483 OFFCURVE",
"800 1434 OFFCURVE",
"695 1434 CURVE SMOOTH",
"591 1434 OFFCURVE",
"527 1483 OFFCURVE",
"492 1556 CURVE"
);
}
);
vertWidth = 2048;
width = 1475;
}
);
unicode = 011F;
},
{
color = 3;
glyphname = gcommaaccent;
lastChange = "2022-11-09 21:42:52 +0000";
layers = (
{
background = {
paths = (
{
closed = 1;
nodes = (
"287 264 LINE",
"212 294 OFFCURVE",
"174 342 OFFCURVE",
"174 407 CURVE SMOOTH",
"174 470 OFFCURVE",
"210 516 OFFCURVE",
"283 543 CURVE",
"212 601 OFFCURVE",
"176 688 OFFCURVE",
"176 804 CURVE SMOOTH",
"176 879 OFFCURVE",
"195 947 OFFCURVE",
"232 1007 CURVE SMOOTH",
"291 1100 OFFCURVE",
"373 1147 OFFCURVE",
"478 1147 CURVE SMOOTH",
"557 1147 OFFCURVE",
"621 1118 OFFCURVE",
"668 1059 CURVE",
"693 1109 OFFCURVE",
"729 1146 OFFCURVE",
"774 1169 CURVE SMOOTH",
"799 1182 OFFCURVE",
"823 1188 OFFCURVE",
"845 1188 CURVE SMOOTH",
"873 1188 OFFCURVE",
"897 1177 OFFCURVE",
"918 1156 CURVE SMOOTH",
"942 1131 OFFCURVE",
"954 1099 OFFCURVE",
"954 1062 CURVE SMOOTH",
"954 1000 OFFCURVE",
"927 969 OFFCURVE",
"873 969 CURVE SMOOTH",
"854 969 OFFCURVE",
"838 975 OFFCURVE",
"824 987 CURVE SMOOTH",
"805 1002 OFFCURVE",
"796 1024 OFFCURVE",
"796 1052 CURVE SMOOTH",
"796 1061 OFFCURVE",
"798 1072 OFFCURVE",
"801 1085 CURVE",
"773 1083 OFFCURVE",
"746 1056 OFFCURVE",
"721 1004 CURVE",
"759 944 OFFCURVE",
"778 877 OFFCURVE",
"778 802 CURVE SMOOTH",
"778 710 OFFCURVE",
"757 636 OFFCURVE",
"716 579 CURVE SMOOTH",
"664 510 OFFCURVE",
"586 475 OFFCURVE",
"482 475 CURVE SMOOTH",
"436 475 OFFCURVE",
"396 481 OFFCURVE",
"361 494 CURVE",
"316 489 OFFCURVE",
"293 466 OFFCURVE",
"293 426 CURVE SMOOTH",
"293 401 OFFCURVE",
"304 383 OFFCURVE",
"327 372 CURVE SMOOTH",
"351 360 OFFCURVE",
"386 351 OFFCURVE",
"432 346 CURVE SMOOTH",
"598 328 LINE SMOOTH",
"688 318 OFFCURVE",
"756 294 OFFCURVE",
"801 257 CURVE SMOOTH",
"857 212 OFFCURVE",
"885 142 OFFCURVE",
"885 49 CURVE SMOOTH",
"885 -146 OFFCURVE",
"753 -244 OFFCURVE",
"488 -244 CURVE SMOOTH",
"383 -244 OFFCURVE",
"298 -221 OFFCURVE",
"234 -175 CURVE SMOOTH",
"161 -122 OFFCURVE",
"125 -48 OFFCURVE",
"125 47 CURVE SMOOTH",
"125 149 OFFCURVE",
"179 218 OFFCURVE",
"287 254 CURVE"
);
},
{
closed = 1;
nodes = (
"423 1055 OFFCURVE",
"381 1029 OFFCURVE",
"350 977 CURVE SMOOTH",
"323 930 OFFCURVE",
"309 871 OFFCURVE",
"309 800 CURVE SMOOTH",
"309 745 OFFCURVE",
"317 698 OFFCURVE",
"334 660 CURVE SMOOTH",
"362 597 OFFCURVE",
"410 565 OFFCURVE",
"479 565 CURVE SMOOTH",
"535 565 OFFCURVE",
"578 589 OFFCURVE",
"608 638 CURVE SMOOTH",
"634 681 OFFCURVE",
"647 736 OFFCURVE",
"647 804 CURVE SMOOTH",
"647 887 OFFCURVE",
"626 953 OFFCURVE",
"585 1002 CURVE SMOOTH",
"555 1037 OFFCURVE",
"519 1055 OFFCURVE",
"476 1055 CURVE SMOOTH"
);
},
{
closed = 1;
nodes = (
"329 207 OFFCURVE",
"248 156 OFFCURVE",
"248 54 CURVE SMOOTH",
"248 11 OFFCURVE",
"262 -29 OFFCURVE",
"291 -65 CURVE SMOOTH",
"338 -124 OFFCURVE",
"406 -154 OFFCURVE",
"493 -154 CURVE SMOOTH",
"552 -154 OFFCURVE",
"603 -142 OFFCURVE",
"645 -118 CURVE SMOOTH",
"709 -81 OFFCURVE",
"741 -28 OFFCURVE",
"741 42 CURVE SMOOTH",
"741 152 OFFCURVE",
"657 207 OFFCURVE",
"490 207 CURVE SMOOTH"
);
},
{
closed = 1;
nodes = (
"551 1606 LINE",
"511 1576 OFFCURVE",
"489 1546 OFFCURVE",
"487 1515 CURVE",
"558 1515 OFFCURVE",
"607 1488 OFFCURVE",
"607 1421 CURVE SMOOTH",
"607 1352 OFFCURVE",
"554 1314 OFFCURVE",
"478 1314 CURVE SMOOTH",
"398 1314 OFFCURVE",
"338 1354 OFFCURVE",
"338 1442 CURVE SMOOTH",
"338 1540 OFFCURVE",
"407 1600 OFFCURVE",
"510 1661 CURVE"
);
},
{
closed = 1;
nodes = (
"674 1597 OFFCURVE",
"650 1591 OFFCURVE",
"629 1578 CURVE SMOOTH",
"585 1552 OFFCURVE",
"557 1506 OFFCURVE",
"557 1454 CURVE SMOOTH",
"557 1428 OFFCURVE",
"564 1404 OFFCURVE",
"577 1383 CURVE SMOOTH",
"603 1339 OFFCURVE",
"648 1311 OFFCURVE",
"700 1311 CURVE SMOOTH",
"726 1311 OFFCURVE",
"750 1318 OFFCURVE",
"772 1331 CURVE SMOOTH",
"815 1357 OFFCURVE",
"843 1402 OFFCURVE",
"843 1454 CURVE SMOOTH",
"843 1480 OFFCURVE",
"837 1504 OFFCURVE",
"824 1526 CURVE SMOOTH",
"798 1569 OFFCURVE",
"752 1597 OFFCURVE",
"700 1597 CURVE SMOOTH"
);
}
);
};
layerId = "4E782664-D0D5-4FED-AFC2-B9212141A2ED";
paths = (
{
closed = 1;
nodes = (
"1261 1251 OFFCURVE",
"1224 1245 OFFCURVE",
"1185 1234 CURVE SMOOTH",
"1106 1211 OFFCURVE",
"1028 1167 OFFCURVE",
"977 1102 CURVE",
"960 1110 OFFCURVE",
"937 1117 OFFCURVE",
"908 1124 CURVE SMOOTH",
"849 1137 OFFCURVE",
"776 1145 OFFCURVE",
"700 1145 CURVE SMOOTH",
"586 1145 OFFCURVE",
"488 1131 OFFCURVE",
"407 1103 CURVE SMOOTH",
"244 1047 OFFCURVE",
"154 943 OFFCURVE",
"154 807 CURVE SMOOTH",
"154 666 OFFCURVE",
"229 596 OFFCURVE",
"354 561 CURVE",
"305 557 OFFCURVE",
"264 547 OFFCURVE",
"233 530 CURVE SMOOTH",
"169 496 OFFCURVE",
"141 443 OFFCURVE",
"141 387 CURVE SMOOTH",
"141 306 OFFCURVE",
"215 233 OFFCURVE",
"354 217 CURVE",
"354 211 LINE",
"299 202 OFFCURVE",
"254 188 OFFCURVE",
"219 167 CURVE SMOOTH",
"147 126 OFFCURVE",
"113 69 OFFCURVE",
"113 12 CURVE SMOOTH",
"113 -39 OFFCURVE",
"137 -84 OFFCURVE",
"186 -123 CURVE SMOOTH",
"283 -201 OFFCURVE",
"466 -246 OFFCURVE",
"705 -246 CURVE SMOOTH",
"952 -246 OFFCURVE",
"1111 -207 OFFCURVE",
"1207 -143 CURVE SMOOTH",
"1302 -79 OFFCURVE",
"1339 6 OFFCURVE",
"1339 98 CURVE SMOOTH",
"1339 165 OFFCURVE",
"1307 242 OFFCURVE",
"1239 287 CURVE SMOOTH",
"1163 336 OFFCURVE",
"1051 369 OFFCURVE",
"879 373 CURVE SMOOTH",
"627 379 LINE SMOOTH",
"543 381 OFFCURVE",
"479 387 OFFCURVE",
"435 398 CURVE SMOOTH",
"391 408 OFFCURVE",
"369 425 OFFCURVE",
"369 449 CURVE SMOOTH",
"369 480 OFFCURVE",
"383 503 OFFCURVE",
"451 508 CURVE",
"470 503 OFFCURVE",
"494 499 OFFCURVE",
"523 496 CURVE SMOOTH",
"580 488 OFFCURVE",
"647 483 OFFCURVE",
"698 483 CURVE SMOOTH",
"813 483 OFFCURVE",
"909 497 OFFCURVE",
"988 526 CURVE SMOOTH",
"1144 583 OFFCURVE",
"1225 690 OFFCURVE",
"1225 827 CURVE SMOOTH",
"1225 918 OFFCURVE",
"1174 994 OFFCURVE",
"1085 1047 CURVE",
"1095 1068 OFFCURVE",
"1110 1085 OFFCURVE",
"1129 1099 CURVE SMOOTH",
"1168 1126 OFFCURVE",
"1215 1139 OFFCURVE",
"1243 1130 CURVE",
"1228 1102 OFFCURVE",
"1231 1065 OFFCURVE",
"1249 1033 CURVE SMOOTH",
"1267 1001 OFFCURVE",
"1301 979 OFFCURVE",
"1350 979 CURVE SMOOTH",
"1421 979 OFFCURVE",
"1470 1031 OFFCURVE",
"1470 1108 CURVE SMOOTH",
"1470 1135 OFFCURVE",
"1462 1159 OFFCURVE",
"1447 1181 CURVE SMOOTH",
"1416 1224 OFFCURVE",
"1362 1251 OFFCURVE",
"1294 1251 CURVE SMOOTH"
);
},
{
closed = 1;
nodes = (
"841 1047 OFFCURVE",
"924 977 OFFCURVE",
"924 821 CURVE SMOOTH",
"924 768 OFFCURVE",
"914 725 OFFCURVE",
"893 690 CURVE SMOOTH",
"852 620 OFFCURVE",
"779 586 OFFCURVE",
"694 586 CURVE SMOOTH",
"654 586 OFFCURVE",
"616 594 OFFCURVE",
"579 611 CURVE SMOOTH",
"506 643 OFFCURVE",
"455 712 OFFCURVE",
"455 821 CURVE SMOOTH",
"455 976 OFFCURVE",
"537 1047 OFFCURVE",
"694 1047 CURVE SMOOTH"
);
},
{
closed = 1;
nodes = (
"882 147 OFFCURVE",
"989 123 OFFCURVE",
"1038 88 CURVE SMOOTH",
"1063 71 OFFCURVE",
"1075 52 OFFCURVE",
"1075 31 CURVE SMOOTH",
"1075 -2 OFFCURVE",
"1061 -31 OFFCURVE",
"1033 -56 CURVE SMOOTH",
"977 -108 OFFCURVE",
"869 -139 OFFCURVE",
"717 -139 CURVE SMOOTH",
"624 -139 OFFCURVE",
"533 -124 OFFCURVE",
"465 -97 CURVE SMOOTH",
"396 -70 OFFCURVE",
"352 -33 OFFCURVE",
"352 8 CURVE SMOOTH",
"352 59 OFFCURVE",
"380 95 OFFCURVE",
"435 116 CURVE SMOOTH",
"490 137 OFFCURVE",
"580 147 OFFCURVE",
"705 147 CURVE SMOOTH"
);
},
{
closed = 1;
nodes = (
"823 1606 LINE",
"752 1569 OFFCURVE",
"713 1534 OFFCURVE",
"709 1495 CURVE",
"821 1495 OFFCURVE",
"899 1471 OFFCURVE",
"899 1411 CURVE SMOOTH",
"899 1348 OFFCURVE",
"829 1314 OFFCURVE",
"730 1314 CURVE SMOOTH",
"626 1314 OFFCURVE",
"550 1351 OFFCURVE",
"550 1432 CURVE SMOOTH",
"550 1526 OFFCURVE",
"619 1583 OFFCURVE",
"722 1641 CURVE"
);
}
);
vertWidth = 2048;
width = 1475;
}
);
unicode = 0123;
},
{
color = 3;
glyphname = gdotaccent;
lastChange = "2022-11-09 21:35:31 +0000";
layers = (
{
background = {
paths = (
{
closed = 1;
nodes = (
"287 264 LINE",
"212 294 OFFCURVE",
"174 342 OFFCURVE",
"174 407 CURVE SMOOTH",
"174 470 OFFCURVE",
"210 516 OFFCURVE",
"283 543 CURVE",
"212 601 OFFCURVE",
"176 688 OFFCURVE",
"176 804 CURVE SMOOTH",
"176 879 OFFCURVE",
"195 947 OFFCURVE",
"232 1007 CURVE SMOOTH",
"291 1100 OFFCURVE",
"373 1147 OFFCURVE",
"478 1147 CURVE SMOOTH",
"557 1147 OFFCURVE",
"621 1118 OFFCURVE",
"668 1059 CURVE",
"693 1109 OFFCURVE",
"729 1146 OFFCURVE",
"774 1169 CURVE SMOOTH",
"799 1182 OFFCURVE",
"823 1188 OFFCURVE",
"845 1188 CURVE SMOOTH",
"873 1188 OFFCURVE",
"897 1177 OFFCURVE",
"918 1156 CURVE SMOOTH",
"942 1131 OFFCURVE",
"954 1099 OFFCURVE",
"954 1062 CURVE SMOOTH",
"954 1000 OFFCURVE",
"927 969 OFFCURVE",
"873 969 CURVE SMOOTH",
"854 969 OFFCURVE",
"838 975 OFFCURVE",
"824 987 CURVE SMOOTH",
"805 1002 OFFCURVE",
"796 1024 OFFCURVE",
"796 1052 CURVE SMOOTH",
"796 1061 OFFCURVE",
"798 1072 OFFCURVE",
"801 1085 CURVE",
"773 1083 OFFCURVE",
"746 1056 OFFCURVE",
"721 1004 CURVE",
"759 944 OFFCURVE",
"778 877 OFFCURVE",
"778 802 CURVE SMOOTH",
"778 710 OFFCURVE",
"757 636 OFFCURVE",
"716 579 CURVE SMOOTH",
"664 510 OFFCURVE",
"586 475 OFFCURVE",
"482 475 CURVE SMOOTH",
"436 475 OFFCURVE",
"396 481 OFFCURVE",
"361 494 CURVE",
"316 489 OFFCURVE",
"293 466 OFFCURVE",
"293 426 CURVE SMOOTH",
"293 401 OFFCURVE",
"304 383 OFFCURVE",
"327 372 CURVE SMOOTH",
"351 360 OFFCURVE",
"386 351 OFFCURVE",
"432 346 CURVE SMOOTH",
"598 328 LINE SMOOTH",
"688 318 OFFCURVE",
"756 294 OFFCURVE",
"801 257 CURVE SMOOTH",
"857 212 OFFCURVE",
"885 142 OFFCURVE",
"885 49 CURVE SMOOTH",
"885 -146 OFFCURVE",
"753 -244 OFFCURVE",
"488 -244 CURVE SMOOTH",
"383 -244 OFFCURVE",
"298 -221 OFFCURVE",
"234 -175 CURVE SMOOTH",
"161 -122 OFFCURVE",
"125 -48 OFFCURVE",
"125 47 CURVE SMOOTH",
"125 149 OFFCURVE",
"179 218 OFFCURVE",
"287 254 CURVE"
);
},
{
closed = 1;
nodes = (
"423 1055 OFFCURVE",
"381 1029 OFFCURVE",
"350 977 CURVE SMOOTH",
"323 930 OFFCURVE",
"309 871 OFFCURVE",
"309 800 CURVE SMOOTH",
"309 745 OFFCURVE",
"317 698 OFFCURVE",
"334 660 CURVE SMOOTH",
"362 597 OFFCURVE",
"410 565 OFFCURVE",
"479 565 CURVE SMOOTH",
"535 565 OFFCURVE",
"578 589 OFFCURVE",
"608 638 CURVE SMOOTH",
"634 681 OFFCURVE",
"647 736 OFFCURVE",
"647 804 CURVE SMOOTH",
"647 887 OFFCURVE",
"626 953 OFFCURVE",
"585 1002 CURVE SMOOTH",
"555 1037 OFFCURVE",
"519 1055 OFFCURVE",
"476 1055 CURVE SMOOTH"
);
},
{
closed = 1;
nodes = (
"329 207 OFFCURVE",
"248 156 OFFCURVE",
"248 54 CURVE SMOOTH",
"248 11 OFFCURVE",
"262 -29 OFFCURVE",
"291 -65 CURVE SMOOTH",
"338 -124 OFFCURVE",
"406 -154 OFFCURVE",
"493 -154 CURVE SMOOTH",
"552 -154 OFFCURVE",
"603 -142 OFFCURVE",
"645 -118 CURVE SMOOTH",
"709 -81 OFFCURVE",
"741 -28 OFFCURVE",
"741 42 CURVE SMOOTH",
"741 152 OFFCURVE",
"657 207 OFFCURVE",
"490 207 CURVE SMOOTH"
);
},
{
closed = 1;
nodes = (
"505 1596 OFFCURVE",
"529 1589 OFFCURVE",
"552 1575 CURVE SMOOTH",
"598 1548 OFFCURVE",
"621 1507 OFFCURVE",
"621 1454 CURVE SMOOTH",
"621 1418 OFFCURVE",
"609 1386 OFFCURVE",
"584 1359 CURVE SMOOTH",
"556 1328 OFFCURVE",
"521 1313 OFFCURVE",
"478 1313 CURVE SMOOTH",
"455 1313 OFFCURVE",
"433 1319 OFFCURVE",
"412 1330 CURVE SMOOTH",
"363 1357 OFFCURVE",
"338 1399 OFFCURVE",
"338 1455 CURVE SMOOTH",
"338 1494 OFFCURVE",
"352 1528 OFFCURVE",
"381 1556 CURVE SMOOTH",
"408 1583 OFFCURVE",
"441 1596 OFFCURVE",
"480 1596 CURVE SMOOTH"
);
}
);
};
layerId = "4E782664-D0D5-4FED-AFC2-B9212141A2ED";
paths = (
{
closed = 1;
nodes = (
"1261 1251 OFFCURVE",
"1224 1245 OFFCURVE",
"1185 1234 CURVE SMOOTH",
"1106 1211 OFFCURVE",
"1028 1167 OFFCURVE",
"977 1102 CURVE",
"960 1110 OFFCURVE",
"937 1117 OFFCURVE",
"908 1124 CURVE SMOOTH",
"849 1137 OFFCURVE",
"776 1145 OFFCURVE",
"700 1145 CURVE SMOOTH",
"586 1145 OFFCURVE",
"488 1131 OFFCURVE",
"407 1103 CURVE SMOOTH",
"244 1047 OFFCURVE",
"154 943 OFFCURVE",
"154 807 CURVE SMOOTH",
"154 666 OFFCURVE",
"229 596 OFFCURVE",
"354 561 CURVE",
"305 557 OFFCURVE",
"264 547 OFFCURVE",
"233 530 CURVE SMOOTH",
"169 496 OFFCURVE",
"141 443 OFFCURVE",
"141 387 CURVE SMOOTH",
"141 306 OFFCURVE",
"215 233 OFFCURVE",
"354 217 CURVE",
"354 211 LINE",
"299 202 OFFCURVE",
"254 188 OFFCURVE",
"219 167 CURVE SMOOTH",
"147 126 OFFCURVE",
"113 69 OFFCURVE",
"113 12 CURVE SMOOTH",
"113 -39 OFFCURVE",
"137 -84 OFFCURVE",
"186 -123 CURVE SMOOTH",
"283 -201 OFFCURVE",
"466 -246 OFFCURVE",
"705 -246 CURVE SMOOTH",
"952 -246 OFFCURVE",
"1111 -207 OFFCURVE",
"1207 -143 CURVE SMOOTH",
"1302 -79 OFFCURVE",
"1339 6 OFFCURVE",
"1339 98 CURVE SMOOTH",
"1339 165 OFFCURVE",
"1307 242 OFFCURVE",
"1239 287 CURVE SMOOTH",
"1163 336 OFFCURVE",
"1051 369 OFFCURVE",
"879 373 CURVE SMOOTH",
"627 379 LINE SMOOTH",
"543 381 OFFCURVE",
"479 387 OFFCURVE",
"435 398 CURVE SMOOTH",
"391 408 OFFCURVE",
"369 425 OFFCURVE",
"369 449 CURVE SMOOTH",
"369 480 OFFCURVE",
"383 503 OFFCURVE",
"451 508 CURVE",
"470 503 OFFCURVE",
"494 499 OFFCURVE",
"523 496 CURVE SMOOTH",
"580 488 OFFCURVE",
"647 483 OFFCURVE",
"698 483 CURVE SMOOTH",
"813 483 OFFCURVE",
"909 497 OFFCURVE",
"988 526 CURVE SMOOTH",
"1144 583 OFFCURVE",
"1225 690 OFFCURVE",
"1225 827 CURVE SMOOTH",
"1225 918 OFFCURVE",
"1174 994 OFFCURVE",
"1085 1047 CURVE",
"1095 1068 OFFCURVE",
"1110 1085 OFFCURVE",
"1129 1099 CURVE SMOOTH",
"1168 1126 OFFCURVE",
"1215 1139 OFFCURVE",
"1243 1130 CURVE",
"1228 1102 OFFCURVE",
"1231 1065 OFFCURVE",
"1249 1033 CURVE SMOOTH",
"1267 1001 OFFCURVE",
"1301 979 OFFCURVE",
"1350 979 CURVE SMOOTH",
"1421 979 OFFCURVE",
"1470 1031 OFFCURVE",
"1470 1108 CURVE SMOOTH",
"1470 1135 OFFCURVE",
"1462 1159 OFFCURVE",
"1447 1181 CURVE SMOOTH",
"1416 1224 OFFCURVE",
"1362 1251 OFFCURVE",
"1294 1251 CURVE SMOOTH"
);
},
{
closed = 1;
nodes = (
"841 1047 OFFCURVE",
"924 977 OFFCURVE",
"924 821 CURVE SMOOTH",
"924 768 OFFCURVE",
"914 725 OFFCURVE",
"893 690 CURVE SMOOTH",
"852 620 OFFCURVE",
"779 586 OFFCURVE",
"694 586 CURVE SMOOTH",
"654 586 OFFCURVE",
"616 594 OFFCURVE",
"579 611 CURVE SMOOTH",
"506 643 OFFCURVE",
"455 712 OFFCURVE",
"455 821 CURVE SMOOTH",
"455 976 OFFCURVE",
"537 1047 OFFCURVE",
"694 1047 CURVE SMOOTH"
);
},
{
closed = 1;
nodes = (
"882 147 OFFCURVE",
"989 123 OFFCURVE",
"1038 88 CURVE SMOOTH",
"1063 71 OFFCURVE",
"1075 52 OFFCURVE",
"1075 31 CURVE SMOOTH",
"1075 -2 OFFCURVE",
"1061 -31 OFFCURVE",
"1033 -56 CURVE SMOOTH",
"977 -108 OFFCURVE",
"869 -139 OFFCURVE",
"717 -139 CURVE SMOOTH",
"624 -139 OFFCURVE",
"533 -124 OFFCURVE",
"465 -97 CURVE SMOOTH",
"396 -70 OFFCURVE",
"352 -33 OFFCURVE",
"352 8 CURVE SMOOTH",
"352 59 OFFCURVE",
"380 95 OFFCURVE",
"435 116 CURVE SMOOTH",
"490 137 OFFCURVE",
"580 147 OFFCURVE",
"705 147 CURVE SMOOTH"
);
},
{
closed = 1;
nodes = (
"674 1597 OFFCURVE",
"650 1591 OFFCURVE",
"629 1578 CURVE SMOOTH",
"585 1552 OFFCURVE",
"557 1506 OFFCURVE",
"557 1454 CURVE SMOOTH",
"557 1428 OFFCURVE",
"564 1404 OFFCURVE",
"577 1383 CURVE SMOOTH",
"603 1339 OFFCURVE",
"648 1311 OFFCURVE",
"700 1311 CURVE SMOOTH",
"726 1311 OFFCURVE",
"750 1318 OFFCURVE",
"772 1331 CURVE SMOOTH",
"815 1357 OFFCURVE",
"843 1402 OFFCURVE",
"843 1454 CURVE SMOOTH",
"843 1480 OFFCURVE",
"837 1504 OFFCURVE",
"824 1526 CURVE SMOOTH",
"798 1569 OFFCURVE",
"752 1597 OFFCURVE",
"700 1597 CURVE SMOOTH"
);
}
);
vertWidth = 2048;
width = 1475;
}
);
unicode = 0121;
},
{
color = 0;
glyphname = idotless;
lastChange = "2022-11-09 21:28:45 +0000";
layers = (
{
layerId = "4E782664-D0D5-4FED-AFC2-B9212141A2ED";
paths = (
{
closed = 1;
nodes = (
"590 1147 LINE",
"541 1138 OFFCURVE",
"490 1131 OFFCURVE",
"437 1125 CURVE SMOOTH",
"329 1112 OFFCURVE",
"220 1106 OFFCURVE",
"123 1106 CURVE",
"123 1010 LINE",
"156 1010 OFFCURVE",
"183 1008 OFFCURVE",
"206 1004 CURVE SMOOTH",
"250 995 OFFCURVE",
"286 978 OFFCURVE",
"296 938 CURVE SMOOTH",
"301 917 OFFCURVE",
"303 884 OFFCURVE",
"303 838 CURVE SMOOTH",
"303 274 LINE SMOOTH",
"303 243 OFFCURVE",
"302 219 OFFCURVE",
"300 201 CURVE SMOOTH",
"295 164 OFFCURVE",
"285 144 OFFCURVE",
"262 127 CURVE SMOOTH",
"233 104 OFFCURVE",
"188 96 OFFCURVE",
"104 96 CURVE",
"104 0 LINE",
"782 0 LINE",
"782 96 LINE",
"743 96 OFFCURVE",
"712 98 OFFCURVE",
"688 103 CURVE SMOOTH",
"640 112 OFFCURVE",
"618 135 OFFCURVE",
"606 157 CURVE SMOOTH",
"594 179 OFFCURVE",
"590 213 OFFCURVE",
"590 274 CURVE SMOOTH"
);
}
);
vertWidth = 2048;
width = 840;
}
);
unicode = 0131;
},
{
color = 3;
glyphname = ibreve;
lastChange = "2022-11-09 21:43:59 +0000";
layers = (
{
background = {
paths = (
{
closed = 1;
nodes = (
"311 0 LINE",
"311 74 LINE",
"368 82 OFFCURVE",
"404 93 OFFCURVE",
"421 106 CURVE SMOOTH",
"442 123 OFFCURVE",
"452 154 OFFCURVE",
"452 197 CURVE SMOOTH",
"452 928 LINE SMOOTH",
"452 965 OFFCURVE",
"444 991 OFFCURVE",
"427 1004 CURVE SMOOTH",
"409 1018 OFFCURVE",
"375 1027 OFFCURVE",
"325 1032 CURVE",
"325 1106 LINE",
"406 1107 OFFCURVE",
"492 1120 OFFCURVE",
"581 1147 CURVE",
"581 197 LINE SMOOTH",
"581 153 OFFCURVE",
"591 123 OFFCURVE",
"610 106 CURVE SMOOTH",
"629 91 OFFCURVE",
"665 80 OFFCURVE",
"718 74 CURVE",
"718 0 LINE"
);
},
{
closed = 1;
nodes = (
"806 1557 LINE",
"804 1481 OFFCURVE",
"785 1420 OFFCURVE",
"750 1373 CURVE SMOOTH",
"695 1300 OFFCURVE",
"611 1264 OFFCURVE",
"498 1264 CURVE SMOOTH",
"376 1264 OFFCURVE",
"289 1306 OFFCURVE",
"236 1389 CURVE SMOOTH",
"208 1434 OFFCURVE",
"193 1490 OFFCURVE",
"191 1557 CURVE",
"288 1557 LINE",
"303 1444 OFFCURVE",
"373 1387 OFFCURVE",
"499 1387 CURVE SMOOTH",
"624 1387 OFFCURVE",
"694 1444 OFFCURVE",
"709 1557 CURVE"
);
}
);
};
layerId = "4E782664-D0D5-4FED-AFC2-B9212141A2ED";
paths = (
{
closed = 1;
nodes = (
"590 1147 LINE",
"541 1138 OFFCURVE",
"490 1131 OFFCURVE",
"437 1125 CURVE SMOOTH",
"329 1112 OFFCURVE",
"220 1106 OFFCURVE",
"123 1106 CURVE",
"123 1010 LINE",
"156 1010 OFFCURVE",
"183 1008 OFFCURVE",
"206 1004 CURVE SMOOTH",
"250 995 OFFCURVE",
"286 978 OFFCURVE",
"296 938 CURVE SMOOTH",
"301 917 OFFCURVE",
"303 884 OFFCURVE",
"303 838 CURVE SMOOTH",
"303 274 LINE SMOOTH",
"303 243 OFFCURVE",
"302 219 OFFCURVE",
"300 201 CURVE SMOOTH",
"295 164 OFFCURVE",
"285 144 OFFCURVE",
"262 127 CURVE SMOOTH",
"233 104 OFFCURVE",
"188 96 OFFCURVE",
"104 96 CURVE",
"104 0 LINE",
"782 0 LINE",
"782 96 LINE",
"743 96 OFFCURVE",
"712 98 OFFCURVE",
"688 103 CURVE SMOOTH",
"640 112 OFFCURVE",
"618 135 OFFCURVE",
"606 157 CURVE SMOOTH",
"594 179 OFFCURVE",
"590 213 OFFCURVE",
"590 274 CURVE SMOOTH"
);
},
{
closed = 1;
nodes = (
"111 1556 LINE",
"124 1491 OFFCURVE",
"147 1439 OFFCURVE",
"178 1398 CURVE SMOOTH",
"241 1316 OFFCURVE",
"332 1278 OFFCURVE",
"432 1278 CURVE SMOOTH",
"483 1278 OFFCURVE",
"530 1288 OFFCURVE",
"574 1307 CURVE SMOOTH",
"662 1346 OFFCURVE",
"729 1427 OFFCURVE",
"754 1556 CURVE",
"637 1556 LINE",
"602 1483 OFFCURVE",
"535 1434 OFFCURVE",
"430 1434 CURVE SMOOTH",
"326 1434 OFFCURVE",
"262 1483 OFFCURVE",
"227 1556 CURVE"
);
}
);
vertWidth = 2048;
width = 840;
}
);
unicode = 012D;
},
{
color = 3;
glyphname = ij;
lastChange = "2022-11-09 22:01:12 +0000";
layers = (
{
background = {
paths = (
{
closed = 1;
nodes = (
"334 1653 OFFCURVE",
"357 1646 OFFCURVE",
"378 1633 CURVE SMOOTH",
"417 1608 OFFCURVE",
"437 1572 OFFCURVE",
"437 1526 CURVE SMOOTH",
"437 1493 OFFCURVE",
"425 1464 OFFCURVE",
"402 1439 CURVE SMOOTH",
"377 1412 OFFCURVE",
"347 1399 OFFCURVE",
"310 1399 CURVE SMOOTH",
"289 1399 OFFCURVE",
"269 1404 OFFCURVE",
"250 1414 CURVE SMOOTH",
"205 1439 OFFCURVE",
"183 1476 OFFCURVE",
"183 1526 CURVE SMOOTH",
"183 1565 OFFCURVE",
"198 1597 OFFCURVE",
"227 1622 CURVE SMOOTH",
"251 1643 OFFCURVE",
"279 1653 OFFCURVE",
"310 1653 CURVE SMOOTH"
);
},
{
closed = 1;
nodes = (
"109 200 LINE",
"109 274 LINE",
"166 282 OFFCURVE",
"202 293 OFFCURVE",
"219 306 CURVE SMOOTH",
"240 323 OFFCURVE",
"250 354 OFFCURVE",
"250 397 CURVE SMOOTH",
"250 928 LINE SMOOTH",
"250 965 OFFCURVE",
"242 991 OFFCURVE",
"225 1004 CURVE SMOOTH",
"207 1018 OFFCURVE",
"173 1027 OFFCURVE",
"123 1032 CURVE",
"123 1106 LINE",
"204 1107 OFFCURVE",
"290 1120 OFFCURVE",
"379 1147 CURVE",
"379 397 LINE SMOOTH",
"379 353 OFFCURVE",
"389 323 OFFCURVE",
"408 306 CURVE SMOOTH",
"427 291 OFFCURVE",
"463 280 OFFCURVE",
"516 274 CURVE",
"516 200 LINE"
);
},
{
closed = 1;
nodes = (
"829 1653 OFFCURVE",
"852 1646 OFFCURVE",
"873 1633 CURVE SMOOTH",
"912 1608 OFFCURVE",
"932 1572 OFFCURVE",
"932 1526 CURVE SMOOTH",
"932 1493 OFFCURVE",
"920 1464 OFFCURVE",
"897 1439 CURVE SMOOTH",
"872 1412 OFFCURVE",
"842 1399 OFFCURVE",
"805 1399 CURVE SMOOTH",
"784 1399 OFFCURVE",
"764 1404 OFFCURVE",
"745 1414 CURVE SMOOTH",
"700 1439 OFFCURVE",
"678 1476 OFFCURVE",
"678 1526 CURVE SMOOTH",
"678 1565 OFFCURVE",
"693 1597 OFFCURVE",
"722 1622 CURVE SMOOTH",
"746 1643 OFFCURVE",
"774 1653 OFFCURVE",
"805 1653 CURVE SMOOTH"
);
},
{
closed = 1;
nodes = (
"627 1106 LINE",
"706 1107 OFFCURVE",
"792 1120 OFFCURVE",
"885 1147 CURVE",
"885 272 LINE SMOOTH",
"885 -19 OFFCURVE",
"809 -244 OFFCURVE",
"491 -244 CURVE SMOOTH",
"347 -244 OFFCURVE",
"209 -168 OFFCURVE",
"209 -53 CURVE SMOOTH",
"209 -15 OFFCURVE",
"220 15 OFFCURVE",
"242 36 CURVE SMOOTH",
"261 55 OFFCURVE",
"285 64 OFFCURVE",
"312 64 CURVE SMOOTH",
"351 64 OFFCURVE",
"379 49 OFFCURVE",
"397 19 CURVE SMOOTH",
"407 2 OFFCURVE",
"412 -18 OFFCURVE",
"412 -41 CURVE SMOOTH",
"412 -84 OFFCURVE",
"397 -114 OFFCURVE",
"367 -131 CURVE",
"393 -150 OFFCURVE",
"433 -160 OFFCURVE",
"483 -160 CURVE SMOOTH",
"729 -160 OFFCURVE",
"756 50 OFFCURVE",
"756 274 CURVE SMOOTH",
"756 928 LINE SMOOTH",
"756 963 OFFCURVE",
"746 988 OFFCURVE",
"727 1003 CURVE SMOOTH",
"711 1016 OFFCURVE",
"678 1026 OFFCURVE",
"627 1032 CURVE"
);
}
);
};
layerId = "4E782664-D0D5-4FED-AFC2-B9212141A2ED";
paths = (
{
closed = 1;
nodes = (
"402 1653 OFFCURVE",
"371 1645 OFFCURVE",
"343 1628 CURVE SMOOTH",
"287 1594 OFFCURVE",
"250 1535 OFFCURVE",
"250 1466 CURVE SMOOTH",
"250 1432 OFFCURVE",
"259 1401 OFFCURVE",
"276 1373 CURVE SMOOTH",
"310 1316 OFFCURVE",
"368 1280 OFFCURVE",
"436 1280 CURVE SMOOTH",
"471 1280 OFFCURVE",
"502 1288 OFFCURVE",
"530 1305 CURVE SMOOTH",
"586 1338 OFFCURVE",
"623 1398 OFFCURVE",
"623 1466 CURVE SMOOTH",
"623 1501 OFFCURVE",
"615 1532 OFFCURVE",
"598 1560 CURVE SMOOTH",
"564 1616 OFFCURVE",
"505 1653 OFFCURVE",
"436 1653 CURVE SMOOTH"
);
},
{
closed = 1;
nodes = (
"590 1147 LINE",
"541 1138 OFFCURVE",
"490 1131 OFFCURVE",
"437 1125 CURVE SMOOTH",
"329 1112 OFFCURVE",
"220 1106 OFFCURVE",
"123 1106 CURVE",
"123 1010 LINE",
"203 1010 OFFCURVE",
"281 999 OFFCURVE",
"296 938 CURVE SMOOTH",
"301 917 OFFCURVE",
"303 884 OFFCURVE",
"303 838 CURVE SMOOTH",
"303 474 LINE SMOOTH",
"303 323 OFFCURVE",
"268 296 OFFCURVE",
"104 296 CURVE",
"104 200 LINE",
"782 200 LINE",
"782 296 LINE",
"626 296 OFFCURVE",
"590 324 OFFCURVE",
"590 474 CURVE SMOOTH"
);
},
{
closed = 1;
nodes = (
"978 1653 OFFCURVE",
"947 1645 OFFCURVE",
"919 1628 CURVE SMOOTH",
"863 1594 OFFCURVE",
"826 1535 OFFCURVE",
"826 1466 CURVE SMOOTH",
"826 1432 OFFCURVE",
"835 1401 OFFCURVE",
"852 1373 CURVE SMOOTH",
"886 1316 OFFCURVE",
"944 1280 OFFCURVE",
"1012 1280 CURVE SMOOTH",
"1047 1280 OFFCURVE",
"1078 1288 OFFCURVE",
"1106 1305 CURVE SMOOTH",
"1162 1338 OFFCURVE",
"1199 1398 OFFCURVE",
"1199 1466 CURVE SMOOTH",
"1199 1501 OFFCURVE",
"1191 1532 OFFCURVE",
"1174 1560 CURVE SMOOTH",
"1140 1616 OFFCURVE",
"1081 1653 OFFCURVE",
"1012 1653 CURVE SMOOTH"
);
},
{
closed = 1;
nodes = (
"1164 1145 LINE",
"1007 1114 OFFCURVE",
"834 1104 OFFCURVE",
"697 1104 CURVE",
"697 1010 LINE",
"740 1010 OFFCURVE",
"803 1000 OFFCURVE",
"836 981 CURVE SMOOTH",
"849 974 OFFCURVE",
"858 966 OFFCURVE",
"864 956 CURVE SMOOTH",
"875 935 OFFCURVE",
"877 901 OFFCURVE",
"877 838 CURVE SMOOTH",
"877 256 LINE SMOOTH",
"877 66 OFFCURVE",
"848 -131 OFFCURVE",
"598 -131 CURVE SMOOTH",
"568 -131 OFFCURVE",
"531 -127 OFFCURVE",
"505 -111 CURVE",
"546 -88 OFFCURVE",
"569 -51 OFFCURVE",
"569 14 CURVE SMOOTH",
"569 86 OFFCURVE",
"514 143 OFFCURVE",
"427 143 CURVE SMOOTH",
"351 143 OFFCURVE",
"290 76 OFFCURVE",
"290 4 CURVE SMOOTH",
"290 -139 OFFCURVE",
"463 -244 OFFCURVE",
"675 -244 CURVE SMOOTH",
"987 -244 OFFCURVE",
"1164 -54 OFFCURVE",
"1164 264 CURVE SMOOTH"
);
}
);
vertWidth = 2048;
width = 1391;
}
);
unicode = 0133;
},
{
color = 3;
glyphname = iogonek;
lastChange = "2022-11-09 22:06:44 +0000";
layers = (
{
background = {
paths = (
{
closed = 1;
nodes = (
"402 1653 OFFCURVE",
"371 1645 OFFCURVE",
"343 1628 CURVE SMOOTH",
"287 1594 OFFCURVE",
"250 1535 OFFCURVE",
"250 1466 CURVE SMOOTH",
"250 1432 OFFCURVE",
"259 1401 OFFCURVE",
"276 1373 CURVE SMOOTH",
"310 1316 OFFCURVE",
"368 1280 OFFCURVE",
"436 1280 CURVE SMOOTH",
"471 1280 OFFCURVE",
"502 1288 OFFCURVE",
"530 1305 CURVE SMOOTH",
"586 1338 OFFCURVE",
"623 1398 OFFCURVE",
"623 1466 CURVE SMOOTH",
"623 1501 OFFCURVE",
"615 1532 OFFCURVE",
"598 1560 CURVE SMOOTH",
"564 1616 OFFCURVE",
"505 1653 OFFCURVE",
"436 1653 CURVE SMOOTH"
);
},
{
closed = 1;
nodes = (
"590 1147 LINE",
"541 1138 OFFCURVE",
"490 1131 OFFCURVE",
"437 1125 CURVE SMOOTH",
"329 1112 OFFCURVE",
"220 1106 OFFCURVE",
"123 1106 CURVE",
"123 1010 LINE",
"156 1010 OFFCURVE",
"183 1008 OFFCURVE",
"206 1004 CURVE SMOOTH",
"250 995 OFFCURVE",
"286 978 OFFCURVE",
"296 938 CURVE SMOOTH",
"301 917 OFFCURVE",
"303 884 OFFCURVE",
"303 838 CURVE SMOOTH",
"303 354 LINE SMOOTH",
"303 323 OFFCURVE",
"302 299 OFFCURVE",
"300 281 CURVE SMOOTH",
"295 244 OFFCURVE",
"285 224 OFFCURVE",
"262 207 CURVE SMOOTH",
"233 184 OFFCURVE",
"188 176 OFFCURVE",
"104 176 CURVE",
"104 80 LINE",
"782 80 LINE",
"782 176 LINE",
"743 176 OFFCURVE",
"712 178 OFFCURVE",
"688 183 CURVE SMOOTH",
"640 192 OFFCURVE",
"618 215 OFFCURVE",
"606 237 CURVE SMOOTH",
"594 259 OFFCURVE",
"590 293 OFFCURVE",
"590 354 CURVE SMOOTH"
);
},
{
closed = 1;
nodes = (
"410 144 OFFCURVE",
"333 104 OFFCURVE",
"272 44 CURVE SMOOTH",
"236 8 OFFCURVE",
"212 -35 OFFCURVE",
"212 -86 CURVE SMOOTH",
"212 -123 OFFCURVE",
"222 -153 OFFCURVE",
"243 -176 CURVE SMOOTH",
"283 -222 OFFCURVE",
"354 -242 OFFCURVE",
"429 -242 CURVE SMOOTH",
"468 -242 OFFCURVE",
"503 -238 OFFCURVE",
"533 -230 CURVE SMOOTH",
"592 -215 OFFCURVE",
"639 -185 OFFCURVE",
"691 -141 CURVE",
"660 -68 LINE",
"601 -113 OFFCURVE",
"550 -135 OFFCURVE",
"494 -135 CURVE SMOOTH",
"445 -135 OFFCURVE",
"398 -114 OFFCURVE",
"398 -53 CURVE SMOOTH",
"398 -7 OFFCURVE",
"428 78 OFFCURVE",
"562 127 CURVE",
"469 166 LINE"
);
}
);
};
layerId = "4E782664-D0D5-4FED-AFC2-B9212141A2ED";
paths = (
{
closed = 1;
nodes = (
"471 1280 OFFCURVE",
"502 1288 OFFCURVE",
"530 1305 CURVE SMOOTH",
"586 1338 OFFCURVE",
"623 1398 OFFCURVE",
"623 1466 CURVE SMOOTH",
"623 1501 OFFCURVE",
"615 1532 OFFCURVE",
"598 1560 CURVE SMOOTH",
"564 1616 OFFCURVE",
"505 1653 OFFCURVE",
"436 1653 CURVE SMOOTH",
"402 1653 OFFCURVE",
"371 1645 OFFCURVE",
"343 1628 CURVE SMOOTH",
"287 1594 OFFCURVE",
"250 1535 OFFCURVE",
"250 1466 CURVE SMOOTH",
"250 1432 OFFCURVE",
"259 1401 OFFCURVE",
"276 1373 CURVE SMOOTH",
"310 1316 OFFCURVE",
"368 1280 OFFCURVE",
"436 1280 CURVE SMOOTH"
);
},
{
closed = 1;
nodes = (
"782 176 LINE",
"743 176 OFFCURVE",
"712 178 OFFCURVE",
"688 183 CURVE SMOOTH",
"640 192 OFFCURVE",
"618 215 OFFCURVE",
"606 237 CURVE SMOOTH",
"594 259 OFFCURVE",
"590 293 OFFCURVE",
"590 354 CURVE SMOOTH",
"590 1147 LINE",
"541 1138 OFFCURVE",
"490 1131 OFFCURVE",
"437 1125 CURVE SMOOTH",
"329 1112 OFFCURVE",
"220 1106 OFFCURVE",
"123 1106 CURVE",
"123 1010 LINE",
"156 1010 OFFCURVE",
"183 1008 OFFCURVE",
"206 1004 CURVE SMOOTH",
"250 995 OFFCURVE",
"286 978 OFFCURVE",
"296 938 CURVE SMOOTH",
"301 917 OFFCURVE",
"303 884 OFFCURVE",
"303 838 CURVE SMOOTH",
"303 354 LINE SMOOTH",
"303 323 OFFCURVE",
"302 299 OFFCURVE",
"300 281 CURVE SMOOTH",
"295 244 OFFCURVE",
"285 224 OFFCURVE",
"262 207 CURVE SMOOTH",
"233 184 OFFCURVE",
"188 176 OFFCURVE",
"104 176 CURVE",
"104 80 LINE",
"313 80 LINE",
"299 69 OFFCURVE",
"285 57 OFFCURVE",
"272 44 CURVE SMOOTH",
"236 8 OFFCURVE",
"212 -35 OFFCURVE",
"212 -86 CURVE SMOOTH",
"212 -123 OFFCURVE",
"222 -153 OFFCURVE",
"243 -176 CURVE SMOOTH",
"283 -222 OFFCURVE",
"354 -242 OFFCURVE",
"429 -242 CURVE SMOOTH",
"468 -242 OFFCURVE",
"503 -238 OFFCURVE",
"533 -230 CURVE SMOOTH",
"592 -215 OFFCURVE",
"639 -185 OFFCURVE",
"691 -141 CURVE",
"660 -68 LINE",
"601 -113 OFFCURVE",
"550 -135 OFFCURVE",
"494 -135 CURVE SMOOTH",
"445 -135 OFFCURVE",
"398 -114 OFFCURVE",
"398 -53 CURVE SMOOTH",
"398 -20 OFFCURVE",
"414 34 OFFCURVE",
"474 80 CURVE",
"782 80 LINE"
);
}
);
vertWidth = 2048;
width = 840;
}
);
unicode = 012F;
},
{
color = 3;
glyphname = itilde;
lastChange = "2022-11-09 21:44:23 +0000";
layers = (
{
background = {
paths = (
{
closed = 1;
nodes = (
"311 0 LINE",
"311 74 LINE",
"368 82 OFFCURVE",
"404 93 OFFCURVE",
"421 106 CURVE SMOOTH",
"442 123 OFFCURVE",
"452 154 OFFCURVE",
"452 197 CURVE SMOOTH",
"452 928 LINE SMOOTH",
"452 965 OFFCURVE",
"444 991 OFFCURVE",
"427 1004 CURVE SMOOTH",
"409 1018 OFFCURVE",
"375 1027 OFFCURVE",
"325 1032 CURVE",
"325 1106 LINE",
"406 1107 OFFCURVE",
"492 1120 OFFCURVE",
"581 1147 CURVE",
"581 197 LINE SMOOTH",
"581 153 OFFCURVE",
"591 123 OFFCURVE",
"610 106 CURVE SMOOTH",
"629 91 OFFCURVE",
"665 80 OFFCURVE",
"718 74 CURVE",
"718 0 LINE"
);
},
{
closed = 1;
nodes = (
"150 1368 LINE",
"213 1476 OFFCURVE",
"286 1530 OFFCURVE",
"371 1530 CURVE SMOOTH",
"422 1530 OFFCURVE",
"476 1511 OFFCURVE",
"531 1474 CURVE SMOOTH",
"572 1446 OFFCURVE",
"613 1432 OFFCURVE",
"653 1432 CURVE SMOOTH",
"718 1432 OFFCURVE",
"769 1461 OFFCURVE",
"807 1518 CURVE",
"854 1458 LINE",
"791 1351 OFFCURVE",
"718 1297 OFFCURVE",
"634 1297 CURVE SMOOTH",
"583 1297 OFFCURVE",
"533 1313 OFFCURVE",
"484 1346 CURVE SMOOTH",
"435 1379 OFFCURVE",
"390 1395 OFFCURVE",
"351 1395 CURVE SMOOTH",
"286 1395 OFFCURVE",
"235 1366 OFFCURVE",
"197 1309 CURVE"
);
}
);
};
layerId = "4E782664-D0D5-4FED-AFC2-B9212141A2ED";
paths = (
{
closed = 1;
nodes = (
"590 1147 LINE",
"541 1138 OFFCURVE",
"490 1131 OFFCURVE",
"437 1125 CURVE SMOOTH",
"329 1112 OFFCURVE",
"220 1106 OFFCURVE",
"123 1106 CURVE",
"123 1010 LINE",
"156 1010 OFFCURVE",
"183 1008 OFFCURVE",
"206 1004 CURVE SMOOTH",
"250 995 OFFCURVE",
"286 978 OFFCURVE",
"296 938 CURVE SMOOTH",
"301 917 OFFCURVE",
"303 884 OFFCURVE",
"303 838 CURVE SMOOTH",
"303 274 LINE SMOOTH",
"303 243 OFFCURVE",
"302 219 OFFCURVE",
"300 201 CURVE SMOOTH",
"295 164 OFFCURVE",
"285 144 OFFCURVE",
"262 127 CURVE SMOOTH",
"233 104 OFFCURVE",
"188 96 OFFCURVE",
"104 96 CURVE",
"104 0 LINE",
"782 0 LINE",
"782 96 LINE",
"743 96 OFFCURVE",
"712 98 OFFCURVE",
"688 103 CURVE SMOOTH",
"640 112 OFFCURVE",
"618 135 OFFCURVE",
"606 157 CURVE SMOOTH",
"594 179 OFFCURVE",
"590 213 OFFCURVE",
"590 274 CURVE SMOOTH"
);
},
{
closed = 1;
nodes = (
"151 1333 LINE",
"181 1389 OFFCURVE",
"226 1417 OFFCURVE",
"286 1417 CURVE SMOOTH",
"337 1417 OFFCURVE",
"384 1405 OFFCURVE",
"429 1380 CURVE SMOOTH",
"492 1348 OFFCURVE",
"540 1333 OFFCURVE",
"607 1333 CURVE SMOOTH",
"683 1333 OFFCURVE",
"767 1396 OFFCURVE",
"820 1489 CURVE",
"765 1591 LINE",
"734 1535 OFFCURVE",
"689 1507 OFFCURVE",
"630 1507 CURVE SMOOTH",
"579 1507 OFFCURVE",
"535 1517 OFFCURVE",
"497 1538 CURVE SMOOTH",
"425 1579 OFFCURVE",
"379 1591 OFFCURVE",
"308 1591 CURVE SMOOTH",
"232 1591 OFFCURVE",
"150 1531 OFFCURVE",
"95 1436 CURVE"
);
}
);
vertWidth = 2048;
width = 840;
}
);
unicode = 0129;
},
{
color = 3;
glyphname = kcommaaccent;
lastChange = "2022-11-09 22:06:49 +0000";
layers = (
{
background = {
paths = (
{
closed = 1;
nodes = (
"938 784 LINE SMOOTH",
"1031 867 OFFCURVE",
"1111 938 OFFCURVE",
"1192 975 CURVE SMOOTH",
"1243 998 OFFCURVE",
"1305 1011 OFFCURVE",
"1352 1012 CURVE",
"1352 1106 LINE",
"745 1106 LINE",
"745 1010 LINE",
"785 1010 OFFCURVE",
"815 1008 OFFCURVE",
"835 1004 CURVE SMOOTH",
"875 996 OFFCURVE",
"913 984 OFFCURVE",
"913 956 CURVE SMOOTH",
"913 941 OFFCURVE",
"906 924 OFFCURVE",
"891 903 CURVE SMOOTH",
"876 882 OFFCURVE",
"849 856 OFFCURVE",
"811 825 CURVE SMOOTH",
"528 596 LINE",
"528 1597 LINE",
"479 1588 OFFCURVE",
"426 1581 OFFCURVE",
"371 1575 CURVE SMOOTH",
"260 1563 OFFCURVE",
"149 1556 OFFCURVE",
"53 1556 CURVE",
"53 1460 LINE",
"116 1460 OFFCURVE",
"161 1450 OFFCURVE",
"190 1434 CURVE SMOOTH",
"227 1413 OFFCURVE",
"233 1380 OFFCURVE",
"233 1288 CURVE SMOOTH",
"233 338 LINE SMOOTH",
"233 246 OFFCURVE",
"227 213 OFFCURVE",
"190 193 CURVE SMOOTH",
"161 176 OFFCURVE",
"115 166 OFFCURVE",
"47 166 CURVE",
"47 70 LINE",
"662 70 LINE",
"662 166 LINE",
"606 166 OFFCURVE",
"547 198 OFFCURVE",
"536 239 CURVE SMOOTH",
"531 259 OFFCURVE",
"528 292 OFFCURVE",
"528 338 CURVE SMOOTH",
"528 449 LINE",
"643 545 LINE",
"840 696 LINE"
);
},
{
closed = 1;
nodes = (
"858 283 LINE",
"873 264 OFFCURVE",
"883 249 OFFCURVE",
"888 240 CURVE SMOOTH",
"893 231 OFFCURVE",
"895 222 OFFCURVE",
"895 213 CURVE SMOOTH",
"895 196 OFFCURVE",
"885 186 OFFCURVE",
"870 179 CURVE SMOOTH",
"854 170 OFFCURVE",
"832 166 OFFCURVE",
"817 166 CURVE",
"817 70 LINE",
"1413 70 LINE",
"1413 164 LINE",
"1400 167 OFFCURVE",
"1385 171 OFFCURVE",
"1370 174 CURVE SMOOTH",
"1354 177 OFFCURVE",
"1338 184 OFFCURVE",
"1321 195 CURVE SMOOTH",
"1288 218 OFFCURVE",
"1253 249 OFFCURVE",
"1206 310 CURVE SMOOTH",
"842 790 LINE",
"622 618 LINE"
);
},
{
closed = 1;
nodes = (
"656 -211 LINE",
"696 -194 OFFCURVE",
"718 -178 OFFCURVE",
"720 -160 CURVE",
"608 -160 OFFCURVE",
"530 -136 OFFCURVE",
"530 -76 CURVE SMOOTH",
"530 -13 OFFCURVE",
"600 21 OFFCURVE",
"699 21 CURVE SMOOTH",
"803 21 OFFCURVE",
"879 -16 OFFCURVE",
"879 -97 CURVE SMOOTH",
"879 -164 OFFCURVE",
"830 -205 OFFCURVE",
"757 -246 CURVE"
);
}
);
};
layerId = "4E782664-D0D5-4FED-AFC2-B9212141A2ED";
paths = (
{
closed = 1;
nodes = (
"1354 177 OFFCURVE",
"1338 184 OFFCURVE",
"1321 195 CURVE SMOOTH",
"1288 218 OFFCURVE",
"1253 249 OFFCURVE",
"1206 310 CURVE SMOOTH",
"884 735 LINE",
"938 784 LINE SMOOTH",
"1031 867 OFFCURVE",
"1111 938 OFFCURVE",
"1192 975 CURVE SMOOTH",
"1243 998 OFFCURVE",
"1305 1011 OFFCURVE",
"1352 1012 CURVE",
"1352 1106 LINE",
"745 1106 LINE",
"745 1010 LINE",
"785 1010 OFFCURVE",
"815 1008 OFFCURVE",
"835 1004 CURVE SMOOTH",
"875 996 OFFCURVE",
"913 984 OFFCURVE",
"913 956 CURVE SMOOTH",
"913 941 OFFCURVE",
"906 924 OFFCURVE",
"891 903 CURVE SMOOTH",
"876 882 OFFCURVE",
"849 856 OFFCURVE",
"811 825 CURVE SMOOTH",
"528 596 LINE",
"528 1597 LINE",
"479 1588 OFFCURVE",
"426 1581 OFFCURVE",
"371 1575 CURVE SMOOTH",
"260 1563 OFFCURVE",
"149 1556 OFFCURVE",
"53 1556 CURVE",
"53 1460 LINE",
"116 1460 OFFCURVE",
"161 1450 OFFCURVE",
"190 1434 CURVE SMOOTH",
"227 1413 OFFCURVE",
"233 1380 OFFCURVE",
"233 1288 CURVE SMOOTH",
"233 338 LINE SMOOTH",
"233 246 OFFCURVE",
"227 213 OFFCURVE",
"190 193 CURVE SMOOTH",
"161 176 OFFCURVE",
"115 166 OFFCURVE",
"47 166 CURVE",
"47 70 LINE",
"662 70 LINE",
"662 166 LINE",
"606 166 OFFCURVE",
"547 198 OFFCURVE",
"536 239 CURVE SMOOTH",
"531 259 OFFCURVE",
"528 292 OFFCURVE",
"528 338 CURVE SMOOTH",
"528 449 LINE",
"643 545 LINE",
"663 560 LINE",
"858 283 LINE",
"873 264 OFFCURVE",
"883 249 OFFCURVE",
"888 240 CURVE SMOOTH",
"893 231 OFFCURVE",
"895 222 OFFCURVE",
"895 213 CURVE SMOOTH",
"895 196 OFFCURVE",
"885 186 OFFCURVE",
"870 179 CURVE SMOOTH",
"854 170 OFFCURVE",
"832 166 OFFCURVE",
"817 166 CURVE",
"817 70 LINE",
"1413 70 LINE",
"1413 164 LINE",
"1400 167 OFFCURVE",
"1385 171 OFFCURVE",
"1370 174 CURVE SMOOTH"
);
},
{
closed = 1;
nodes = (
"600 21 OFFCURVE",
"530 -13 OFFCURVE",
"530 -76 CURVE SMOOTH",
"530 -136 OFFCURVE",
"608 -160 OFFCURVE",
"720 -160 CURVE",
"718 -178 OFFCURVE",
"696 -194 OFFCURVE",
"656 -211 CURVE",
"757 -246 LINE",
"830 -205 OFFCURVE",
"879 -164 OFFCURVE",
"879 -97 CURVE SMOOTH",
"879 -16 OFFCURVE",
"803 21 OFFCURVE",
"699 21 CURVE SMOOTH"
);
}
);
vertWidth = 2048;
width = 1444;
}
);
unicode = 0137;
},
{
color = 3;
glyphname = kgreenlandic;
lastChange = "2022-11-09 21:30:40 +0000";
layers = (
{
background = {
paths = (
{
closed = 1;
nodes = (
"123 0 LINE",
"123 74 LINE",
"168 82 OFFCURVE",
"198 95 OFFCURVE",
"213 113 CURVE SMOOTH",
"227 130 OFFCURVE",
"234 158 OFFCURVE",
"234 197 CURVE SMOOTH",
"234 927 LINE SMOOTH",
"234 964 OFFCURVE",
"226 990 OFFCURVE",
"211 1003 CURVE SMOOTH",
"194 1018 OFFCURVE",
"165 1027 OFFCURVE",
"123 1032 CURVE",
"123 1106 LINE",
"209 1106 OFFCURVE",
"289 1120 OFFCURVE",
"363 1147 CURVE",
"363 571 LINE",
"604 905 LINE SMOOTH",
"624 933 OFFCURVE",
"635 958 OFFCURVE",
"635 980 CURVE SMOOTH",
"635 999 OFFCURVE",
"626 1012 OFFCURVE",
"608 1018 CURVE SMOOTH",
"595 1023 OFFCURVE",
"576 1027 OFFCURVE",
"551 1032 CURVE",
"551 1106 LINE",
"883 1106 LINE",
"883 1032 LINE",
"829 1022 OFFCURVE",
"772 975 OFFCURVE",
"713 891 CURVE SMOOTH",
"551 662 LINE",
"785 203 LINE SMOOTH",
"821 132 OFFCURVE",
"870 89 OFFCURVE",
"934 74 CURVE",
"934 0 LINE",
"584 0 LINE",
"584 74 LINE",
"633 90 OFFCURVE",
"658 108 OFFCURVE",
"658 129 CURVE SMOOTH",
"658 142 OFFCURVE",
"652 161 OFFCURVE",
"641 184 CURVE SMOOTH",
"463 563 LINE",
"363 420 LINE",
"363 197 LINE SMOOTH",
"363 154 OFFCURVE",
"368 125 OFFCURVE",
"379 109 CURVE SMOOTH",
"390 92 OFFCURVE",
"414 80 OFFCURVE",
"449 74 CURVE",
"449 0 LINE"
);
}
);
};
layerId = "4E782664-D0D5-4FED-AFC2-B9212141A2ED";
paths = (
{
closed = 1;
nodes = (
"528 1147 LINE",
"479 1138 OFFCURVE",
"426 1131 OFFCURVE",
"371 1125 CURVE SMOOTH",
"260 1113 OFFCURVE",
"149 1106 OFFCURVE",
"53 1106 CURVE",
"53 1010 LINE",
"116 1010 OFFCURVE",
"161 1000 OFFCURVE",
"190 984 CURVE SMOOTH",
"227 963 OFFCURVE",
"233 930 OFFCURVE",
"233 838 CURVE SMOOTH",
"233 268 LINE SMOOTH",
"233 176 OFFCURVE",
"227 143 OFFCURVE",
"190 123 CURVE SMOOTH",
"161 106 OFFCURVE",
"115 96 OFFCURVE",
"47 96 CURVE",
"47 0 LINE",
"662 0 LINE",
"662 96 LINE",
"606 96 OFFCURVE",
"547 128 OFFCURVE",
"536 169 CURVE SMOOTH",
"531 189 OFFCURVE",
"528 222 OFFCURVE",
"528 268 CURVE SMOOTH",
"528 449 LINE",
"631 535 LINE",
"858 213 LINE",
"873 194 OFFCURVE",
"883 179 OFFCURVE",
"888 170 CURVE SMOOTH",
"893 161 OFFCURVE",
"895 152 OFFCURVE",
"895 143 CURVE SMOOTH",
"895 126 OFFCURVE",
"885 116 OFFCURVE",
"870 109 CURVE SMOOTH",
"854 100 OFFCURVE",
"832 96 OFFCURVE",
"817 96 CURVE",
"817 0 LINE",
"1413 0 LINE",
"1413 94 LINE",
"1400 97 OFFCURVE",
"1385 101 OFFCURVE",
"1370 104 CURVE SMOOTH",
"1354 107 OFFCURVE",
"1338 114 OFFCURVE",
"1321 125 CURVE SMOOTH",
"1288 148 OFFCURVE",
"1253 179 OFFCURVE",
"1206 240 CURVE SMOOTH",
"852 707 LINE",
"938 784 LINE SMOOTH",
"1031 867 OFFCURVE",
"1111 938 OFFCURVE",
"1192 975 CURVE SMOOTH",
"1243 998 OFFCURVE",
"1305 1011 OFFCURVE",
"1352 1012 CURVE",
"1352 1106 LINE",
"745 1106 LINE",
"745 1010 LINE",
"785 1010 OFFCURVE",
"815 1008 OFFCURVE",
"835 1004 CURVE SMOOTH",
"875 996 OFFCURVE",
"913 984 OFFCURVE",
"913 956 CURVE SMOOTH",
"913 941 OFFCURVE",
"906 924 OFFCURVE",
"891 903 CURVE SMOOTH",
"876 882 OFFCURVE",
"849 856 OFFCURVE",
"811 825 CURVE SMOOTH",
"528 596 LINE"
);
}
);
vertWidth = 2048;
width = 1444;
}
);
unicode = 0138;
},
{
color = 3;
glyphname = lcommaaccent;
lastChange = "2022-11-09 21:41:46 +0000";
layers = (
{
background = {
paths = (
{
closed = 1;
nodes = (
"311 70 LINE",
"311 144 LINE",
"368 152 OFFCURVE",
"404 163 OFFCURVE",
"421 176 CURVE SMOOTH",
"442 193 OFFCURVE",
"452 224 OFFCURVE",
"452 267 CURVE SMOOTH",
"452 1379 LINE SMOOTH",
"452 1416 OFFCURVE",
"444 1441 OFFCURVE",
"427 1454 CURVE SMOOTH",
"409 1469 OFFCURVE",
"375 1478 OFFCURVE",
"325 1483 CURVE",
"325 1557 LINE",
"406 1557 OFFCURVE",
"492 1571 OFFCURVE",
"581 1598 CURVE",
"581 267 LINE SMOOTH",
"581 223 OFFCURVE",
"591 193 OFFCURVE",
"610 176 CURVE SMOOTH",
"629 161 OFFCURVE",
"665 150 OFFCURVE",
"718 144 CURVE",
"718 70 LINE"
);
},
{
closed = 1;
nodes = (
"456 -191 LINE",
"490 -171 OFFCURVE",
"508 -151 OFFCURVE",
"510 -130 CURVE",
"439 -130 OFFCURVE",
"390 -109 OFFCURVE",
"390 -56 CURVE SMOOTH",
"390 -6 OFFCURVE",
"435 21 OFFCURVE",
"499 21 CURVE SMOOTH",
"568 21 OFFCURVE",
"619 -10 OFFCURVE",
"619 -77 CURVE SMOOTH",
"619 -153 OFFCURVE",
"570 -199 OFFCURVE",
"497 -246 CURVE"
);
}
);
};
layerId = "4E782664-D0D5-4FED-AFC2-B9212141A2ED";
paths = (
{
closed = 1;
nodes = (
"594 1597 LINE",
"543 1588 OFFCURVE",
"490 1581 OFFCURVE",
"435 1575 CURVE SMOOTH",
"324 1563 OFFCURVE",
"213 1556 OFFCURVE",
"117 1556 CURVE",
"117 1460 LINE",
"178 1460 OFFCURVE",
"223 1450 OFFCURVE",
"254 1434 CURVE SMOOTH",
"291 1413 OFFCURVE",
"297 1380 OFFCURVE",
"297 1288 CURVE SMOOTH",
"297 338 LINE SMOOTH",
"297 246 OFFCURVE",
"291 213 OFFCURVE",
"254 193 CURVE SMOOTH",
"223 176 OFFCURVE",
"178 166 OFFCURVE",
"111 166 CURVE",
"111 70 LINE",
"774 70 LINE",
"774 166 LINE",
"713 166 OFFCURVE",
"668 176 OFFCURVE",
"637 193 CURVE SMOOTH",
"600 213 OFFCURVE",
"594 246 OFFCURVE",
"594 338 CURVE SMOOTH"
);
},
{
closed = 1;
nodes = (
"376 -211 LINE",
"416 -194 OFFCURVE",
"438 -178 OFFCURVE",
"440 -160 CURVE",
"328 -160 OFFCURVE",
"250 -136 OFFCURVE",
"250 -76 CURVE SMOOTH",
"250 -13 OFFCURVE",
"320 21 OFFCURVE",
"419 21 CURVE SMOOTH",
"523 21 OFFCURVE",
"599 -16 OFFCURVE",
"599 -97 CURVE SMOOTH",
"599 -164 OFFCURVE",
"550 -205 OFFCURVE",
"477 -246 CURVE"
);
}
);
vertWidth = 2048;
width = 860;
}
);
unicode = 013C;
},
{
color = 3;
glyphname = ldot;
lastChange = "2022-11-09 21:36:08 +0000";
layers = (
{
background = {
paths = (
{
closed = 1;
nodes = (
"311 0 LINE",
"311 74 LINE",
"368 82 OFFCURVE",
"404 93 OFFCURVE",
"421 106 CURVE SMOOTH",
"442 123 OFFCURVE",
"452 154 OFFCURVE",
"452 197 CURVE SMOOTH",
"452 1379 LINE SMOOTH",
"452 1416 OFFCURVE",
"444 1441 OFFCURVE",
"427 1454 CURVE SMOOTH",
"409 1469 OFFCURVE",
"375 1478 OFFCURVE",
"325 1483 CURVE",
"325 1557 LINE",
"406 1557 OFFCURVE",
"492 1571 OFFCURVE",
"581 1598 CURVE",
"581 197 LINE SMOOTH",
"581 153 OFFCURVE",
"591 123 OFFCURVE",
"610 106 CURVE SMOOTH",
"629 91 OFFCURVE",
"665 80 OFFCURVE",
"718 74 CURVE",
"718 0 LINE"
);
},
{
closed = 1;
nodes = (
"1039 921 OFFCURVE",
"1056 917 OFFCURVE",
"1072 910 CURVE SMOOTH",
"1117 889 OFFCURVE",
"1140 853 OFFCURVE",
"1140 802 CURVE SMOOTH",
"1140 769 OFFCURVE",
"1128 741 OFFCURVE",
"1105 718 CURVE SMOOTH",
"1082 695 OFFCURVE",
"1053 683 OFFCURVE",
"1020 683 CURVE SMOOTH",
"1000 683 OFFCURVE",
"981 688 OFFCURVE",
"964 698 CURVE SMOOTH",
"923 721 OFFCURVE",
"902 756 OFFCURVE",
"902 803 CURVE SMOOTH",
"902 838 OFFCURVE",
"915 867 OFFCURVE",
"941 890 CURVE SMOOTH",
"963 911 OFFCURVE",
"990 921 OFFCURVE",
"1022 921 CURVE SMOOTH"
);
}
);
};
layerId = "4E782664-D0D5-4FED-AFC2-B9212141A2ED";
paths = (
{
closed = 1;
nodes = (
"594 1597 LINE",
"543 1588 OFFCURVE",
"490 1581 OFFCURVE",
"435 1575 CURVE SMOOTH",
"324 1563 OFFCURVE",
"213 1556 OFFCURVE",
"117 1556 CURVE",
"117 1460 LINE",
"178 1460 OFFCURVE",
"223 1450 OFFCURVE",
"254 1434 CURVE SMOOTH",
"291 1413 OFFCURVE",
"297 1380 OFFCURVE",
"297 1288 CURVE SMOOTH",
"297 268 LINE SMOOTH",
"297 176 OFFCURVE",
"291 143 OFFCURVE",
"254 123 CURVE SMOOTH",
"223 106 OFFCURVE",
"178 96 OFFCURVE",
"111 96 CURVE",
"111 0 LINE",
"774 0 LINE",
"774 96 LINE",
"713 96 OFFCURVE",
"668 106 OFFCURVE",
"637 123 CURVE SMOOTH",
"600 143 OFFCURVE",
"594 176 OFFCURVE",
"594 268 CURVE SMOOTH"
);
},
{
closed = 1;
nodes = (
"929 947 OFFCURVE",
"905 941 OFFCURVE",
"884 928 CURVE SMOOTH",
"840 902 OFFCURVE",
"812 856 OFFCURVE",
"812 804 CURVE SMOOTH",
"812 778 OFFCURVE",
"819 754 OFFCURVE",
"832 733 CURVE SMOOTH",
"858 689 OFFCURVE",
"903 661 OFFCURVE",
"955 661 CURVE SMOOTH",
"981 661 OFFCURVE",
"1005 668 OFFCURVE",
"1027 681 CURVE SMOOTH",
"1070 707 OFFCURVE",
"1098 752 OFFCURVE",
"1098 804 CURVE SMOOTH",
"1098 830 OFFCURVE",
"1092 854 OFFCURVE",
"1079 876 CURVE SMOOTH",
"1053 919 OFFCURVE",
"1007 947 OFFCURVE",
"955 947 CURVE SMOOTH"
);
}
);
vertWidth = 2048;
width = 1026;
}
);
unicode = 0140;
},
{
color = 3;
glyphname = napostrophe;
lastChange = "2022-11-09 21:51:41 +0000";
layers = (
{
background = {
paths = (
{
closed = 1;
nodes = (
"109 0 LINE",
"109 74 LINE",
"156 82 OFFCURVE",
"186 95 OFFCURVE",
"201 113 CURVE SMOOTH",
"215 130 OFFCURVE",
"222 158 OFFCURVE",
"222 197 CURVE SMOOTH",
"222 944 LINE SMOOTH",
"222 976 OFFCURVE",
"214 997 OFFCURVE",
"199 1008 CURVE SMOOTH",
"182 1020 OFFCURVE",
"152 1028 OFFCURVE",
"111 1032 CURVE",
"111 1106 LINE",
"194 1107 OFFCURVE",
"274 1120 OFFCURVE",
"351 1147 CURVE",
"351 973 LINE",
"373 1022 OFFCURVE",
"402 1062 OFFCURVE",
"438 1092 CURVE SMOOTH",
"483 1129 OFFCURVE",
"531 1147 OFFCURVE",
"583 1147 CURVE SMOOTH",
"690 1147 OFFCURVE",
"764 1084 OFFCURVE",
"804 957 CURVE SMOOTH",
"825 890 OFFCURVE",
"836 803 OFFCURVE",
"836 696 CURVE SMOOTH",
"836 197 LINE SMOOTH",
"836 152 OFFCURVE",
"844 121 OFFCURVE",
"860 104 CURVE SMOOTH",
"876 87 OFFCURVE",
"905 77 OFFCURVE",
"946 74 CURVE",
"946 0 LINE",
"621 0 LINE",
"621 74 LINE",
"654 80 OFFCURVE",
"675 91 OFFCURVE",
"686 106 CURVE SMOOTH",
"699 125 OFFCURVE",
"705 155 OFFCURVE",
"705 197 CURVE SMOOTH",
"705 702 LINE SMOOTH",
"705 919 OFFCURVE",
"657 1028 OFFCURVE",
"560 1028 CURVE SMOOTH",
"526 1028 OFFCURVE",
"491 1010 OFFCURVE",
"456 975 CURVE SMOOTH",
"416 935 OFFCURVE",
"381 876 OFFCURVE",
"351 799 CURVE",
"351 197 LINE SMOOTH",
"351 152 OFFCURVE",
"358 121 OFFCURVE",
"371 104 CURVE SMOOTH",
"382 90 OFFCURVE",
"404 80 OFFCURVE",
"439 74 CURVE",
"439 0 LINE"
);
},
{
closed = 1;
nodes = (
"144 1329 LINE",
"184 1366 OFFCURVE",
"206 1402 OFFCURVE",
"208 1440 CURVE",
"137 1440 OFFCURVE",
"88 1470 OFFCURVE",
"88 1544 CURVE SMOOTH",
"88 1619 OFFCURVE",
"141 1661 OFFCURVE",
"217 1661 CURVE SMOOTH",
"297 1661 OFFCURVE",
"357 1621 OFFCURVE",
"357 1533 CURVE SMOOTH",
"357 1417 OFFCURVE",
"288 1346 OFFCURVE",
"185 1274 CURVE"
);
}
);
};
layerId = "4E782664-D0D5-4FED-AFC2-B9212141A2ED";
paths = (
{
closed = 1;
nodes = (
"541 1147 LINE",
"494 1138 OFFCURVE",
"444 1131 OFFCURVE",
"391 1125 CURVE SMOOTH",
"283 1112 OFFCURVE",
"173 1106 OFFCURVE",
"80 1106 CURVE",
"80 1010 LINE",
"138 1010 OFFCURVE",
"182 1001 OFFCURVE",
"213 983 CURVE SMOOTH",
"230 973 OFFCURVE",
"242 958 OFFCURVE",
"247 938 CURVE SMOOTH",
"252 917 OFFCURVE",
"254 884 OFFCURVE",
"254 838 CURVE SMOOTH",
"254 268 LINE SMOOTH",
"254 222 OFFCURVE",
"252 189 OFFCURVE",
"247 169 CURVE SMOOTH",
"242 148 OFFCURVE",
"230 133 OFFCURVE",
"213 123 CURVE SMOOTH",
"184 105 OFFCURVE",
"137 96 OFFCURVE",
"74 96 CURVE",
"74 0 LINE",
"686 0 LINE",
"686 96 LINE",
"661 96 OFFCURVE",
"641 98 OFFCURVE",
"627 103 CURVE SMOOTH",
"598 111 OFFCURVE",
"559 128 OFFCURVE",
"549 169 CURVE SMOOTH",
"544 189 OFFCURVE",
"541 222 OFFCURVE",
"541 268 CURVE SMOOTH",
"541 768 LINE",
"555 808 OFFCURVE",
"577 843 OFFCURVE",
"607 873 CURVE SMOOTH",
"666 932 OFFCURVE",
"744 967 OFFCURVE",
"813 967 CURVE SMOOTH",
"856 967 OFFCURVE",
"903 956 OFFCURVE",
"944 915 CURVE SMOOTH",
"983 878 OFFCURVE",
"1008 807 OFFCURVE",
"1008 680 CURVE SMOOTH",
"1008 268 LINE SMOOTH",
"1008 222 OFFCURVE",
"1006 189 OFFCURVE",
"1001 169 CURVE SMOOTH",
"996 148 OFFCURVE",
"984 133 OFFCURVE",
"967 123 CURVE SMOOTH",
"936 104 OFFCURVE",
"913 96 OFFCURVE",
"858 96 CURVE",
"858 0 LINE",
"1475 0 LINE",
"1475 96 LINE",
"1411 96 OFFCURVE",
"1364 105 OFFCURVE",
"1335 123 CURVE SMOOTH",
"1318 133 OFFCURVE",
"1307 148 OFFCURVE",
"1302 169 CURVE SMOOTH",
"1297 189 OFFCURVE",
"1294 222 OFFCURVE",
"1294 268 CURVE SMOOTH",
"1294 735 LINE SMOOTH",
"1294 810 OFFCURVE",
"1285 873 OFFCURVE",
"1266 922 CURVE SMOOTH",
"1228 1020 OFFCURVE",
"1176 1073 OFFCURVE",
"1119 1104 CURVE SMOOTH",
"1062 1135 OFFCURVE",
"997 1147 OFFCURVE",
"940 1147 CURVE SMOOTH",
"879 1147 OFFCURVE",
"825 1139 OFFCURVE",
"777 1124 CURVE SMOOTH",
"680 1093 OFFCURVE",
"604 1038 OFFCURVE",
"541 973 CURVE"
);
},
{
closed = 1;
nodes = (
"196 1289 LINE",
"249 1326 OFFCURVE",
"277 1361 OFFCURVE",
"280 1400 CURVE",
"168 1400 OFFCURVE",
"90 1435 OFFCURVE",
"90 1524 CURVE SMOOTH",
"90 1613 OFFCURVE",
"160 1661 OFFCURVE",
"259 1661 CURVE SMOOTH",
"363 1661 OFFCURVE",
"439 1611 OFFCURVE",
"439 1503 CURVE SMOOTH",
"439 1378 OFFCURVE",
"382 1301 OFFCURVE",
"297 1224 CURVE"
);
}
);
vertWidth = 2048;
width = 1516;
}
);
unicode = 0149;
},
{
color = 3;
glyphname = ncommaaccent;
lastChange = "2022-11-09 21:42:11 +0000";
layers = (
{
background = {
paths = (
{
closed = 1;
nodes = (
"109 70 LINE",
"109 144 LINE",
"156 152 OFFCURVE",
"186 165 OFFCURVE",
"201 183 CURVE SMOOTH",
"215 200 OFFCURVE",
"222 228 OFFCURVE",
"222 267 CURVE SMOOTH",
"222 944 LINE SMOOTH",
"222 976 OFFCURVE",
"214 997 OFFCURVE",
"199 1008 CURVE SMOOTH",
"182 1020 OFFCURVE",
"152 1028 OFFCURVE",
"111 1032 CURVE",
"111 1106 LINE",
"194 1107 OFFCURVE",
"274 1120 OFFCURVE",
"351 1147 CURVE",
"351 973 LINE",
"373 1022 OFFCURVE",
"402 1062 OFFCURVE",
"438 1092 CURVE SMOOTH",
"483 1129 OFFCURVE",
"531 1147 OFFCURVE",
"583 1147 CURVE SMOOTH",
"690 1147 OFFCURVE",
"764 1084 OFFCURVE",
"804 957 CURVE SMOOTH",
"825 890 OFFCURVE",
"836 803 OFFCURVE",
"836 696 CURVE SMOOTH",
"836 267 LINE SMOOTH",
"836 222 OFFCURVE",
"844 191 OFFCURVE",
"860 174 CURVE SMOOTH",
"876 157 OFFCURVE",
"905 147 OFFCURVE",
"946 144 CURVE",
"946 70 LINE",
"621 70 LINE",
"621 144 LINE",
"654 150 OFFCURVE",
"675 161 OFFCURVE",
"686 176 CURVE SMOOTH",
"699 195 OFFCURVE",
"705 225 OFFCURVE",
"705 267 CURVE SMOOTH",
"705 702 LINE SMOOTH",
"705 919 OFFCURVE",
"657 1028 OFFCURVE",
"560 1028 CURVE SMOOTH",
"526 1028 OFFCURVE",
"491 1010 OFFCURVE",
"456 975 CURVE SMOOTH",
"416 935 OFFCURVE",
"381 876 OFFCURVE",
"351 799 CURVE",
"351 267 LINE SMOOTH",
"351 222 OFFCURVE",
"358 191 OFFCURVE",
"371 174 CURVE SMOOTH",
"382 160 OFFCURVE",
"404 150 OFFCURVE",
"439 144 CURVE",
"439 70 LINE"
);
},
{
closed = 1;
nodes = (
"476 -191 LINE",
"510 -171 OFFCURVE",
"528 -151 OFFCURVE",
"530 -130 CURVE",
"459 -130 OFFCURVE",
"410 -109 OFFCURVE",
"410 -56 CURVE SMOOTH",
"410 -6 OFFCURVE",
"455 21 OFFCURVE",
"519 21 CURVE SMOOTH",
"588 21 OFFCURVE",
"639 -10 OFFCURVE",
"639 -77 CURVE SMOOTH",
"639 -153 OFFCURVE",
"590 -199 OFFCURVE",
"517 -246 CURVE"
);
}
);
};
layerId = "4E782664-D0D5-4FED-AFC2-B9212141A2ED";
paths = (
{
closed = 1;
nodes = (
"541 1147 LINE",
"494 1138 OFFCURVE",
"444 1131 OFFCURVE",
"391 1125 CURVE SMOOTH",
"283 1112 OFFCURVE",
"173 1106 OFFCURVE",
"80 1106 CURVE",
"80 1010 LINE",
"138 1010 OFFCURVE",
"182 1001 OFFCURVE",
"213 983 CURVE SMOOTH",
"230 973 OFFCURVE",
"242 958 OFFCURVE",
"247 938 CURVE SMOOTH",
"252 917 OFFCURVE",
"254 884 OFFCURVE",
"254 838 CURVE SMOOTH",
"254 338 LINE SMOOTH",
"254 292 OFFCURVE",
"252 259 OFFCURVE",
"247 239 CURVE SMOOTH",
"242 218 OFFCURVE",
"230 203 OFFCURVE",
"213 193 CURVE SMOOTH",
"184 175 OFFCURVE",
"137 166 OFFCURVE",
"74 166 CURVE",
"74 70 LINE",
"686 70 LINE",
"686 166 LINE",
"661 166 OFFCURVE",
"641 168 OFFCURVE",
"627 173 CURVE SMOOTH",
"598 181 OFFCURVE",
"559 198 OFFCURVE",
"549 239 CURVE SMOOTH",
"544 259 OFFCURVE",
"541 292 OFFCURVE",
"541 338 CURVE SMOOTH",
"541 768 LINE",
"555 808 OFFCURVE",
"577 843 OFFCURVE",
"607 873 CURVE SMOOTH",
"666 932 OFFCURVE",
"744 967 OFFCURVE",
"813 967 CURVE SMOOTH",
"856 967 OFFCURVE",
"903 956 OFFCURVE",
"944 915 CURVE SMOOTH",
"983 878 OFFCURVE",
"1008 807 OFFCURVE",
"1008 680 CURVE SMOOTH",
"1008 338 LINE SMOOTH",
"1008 292 OFFCURVE",
"1006 259 OFFCURVE",
"1001 239 CURVE SMOOTH",
"996 218 OFFCURVE",
"984 203 OFFCURVE",
"967 193 CURVE SMOOTH",
"936 174 OFFCURVE",
"913 166 OFFCURVE",
"858 166 CURVE",
"858 70 LINE",
"1475 70 LINE",
"1475 166 LINE",
"1411 166 OFFCURVE",
"1364 175 OFFCURVE",
"1335 193 CURVE SMOOTH",
"1318 203 OFFCURVE",
"1307 218 OFFCURVE",
"1302 239 CURVE SMOOTH",
"1297 259 OFFCURVE",
"1294 292 OFFCURVE",
"1294 338 CURVE SMOOTH",
"1294 735 LINE SMOOTH",
"1294 810 OFFCURVE",
"1285 873 OFFCURVE",
"1266 922 CURVE SMOOTH",
"1228 1020 OFFCURVE",
"1176 1073 OFFCURVE",
"1119 1104 CURVE SMOOTH",
"1062 1135 OFFCURVE",
"997 1147 OFFCURVE",
"940 1147 CURVE SMOOTH",
"879 1147 OFFCURVE",
"825 1139 OFFCURVE",
"777 1124 CURVE SMOOTH",
"680 1093 OFFCURVE",
"604 1038 OFFCURVE",
"541 973 CURVE"
);
},
{
closed = 1;
nodes = (
"706 -211 LINE",
"746 -194 OFFCURVE",
"768 -178 OFFCURVE",
"770 -160 CURVE",
"658 -160 OFFCURVE",
"580 -136 OFFCURVE",
"580 -76 CURVE SMOOTH",
"580 -13 OFFCURVE",
"650 21 OFFCURVE",
"749 21 CURVE SMOOTH",
"853 21 OFFCURVE",
"929 -16 OFFCURVE",
"929 -97 CURVE SMOOTH",
"929 -164 OFFCURVE",
"880 -205 OFFCURVE",
"807 -246 CURVE"
);
}
);
vertWidth = 2048;
width = 1516;
}
);
unicode = 0146;
},
{
color = 3;
glyphname = obreve;
lastChange = "2022-11-09 21:44:05 +0000";
layers = (
{
background = {
paths = (
{
closed = 1;
nodes = (
"612 1147 OFFCURVE",
"696 1096 OFFCURVE",
"765 995 CURVE SMOOTH",
"842 882 OFFCURVE",
"880 733 OFFCURVE",
"880 549 CURVE SMOOTH",
"880 400 OFFCURVE",
"855 273 OFFCURVE",
"804 170 CURVE SMOOTH",
"735 29 OFFCURVE",
"637 -41 OFFCURVE",
"510 -41 CURVE SMOOTH",
"400 -41 OFFCURVE",
"311 15 OFFCURVE",
"242 128 CURVE SMOOTH",
"176 236 OFFCURVE",
"143 376 OFFCURVE",
"143 549 CURVE SMOOTH",
"143 755 OFFCURVE",
"190 915 OFFCURVE",
"283 1029 CURVE SMOOTH",
"348 1108 OFFCURVE",
"424 1147 OFFCURVE",
"513 1147 CURVE SMOOTH"
);
},
{
closed = 1;
nodes = (
"454 1049 OFFCURVE",
"406 1013 OFFCURVE",
"366 941 CURVE SMOOTH",
"315 850 OFFCURVE",
"290 722 OFFCURVE",
"290 555 CURVE SMOOTH",
"290 406 OFFCURVE",
"315 282 OFFCURVE",
"364 184 CURVE SMOOTH",
"407 99 OFFCURVE",
"456 57 OFFCURVE",
"512 57 CURVE SMOOTH",
"561 57 OFFCURVE",
"605 91 OFFCURVE",
"646 160 CURVE SMOOTH",
"704 259 OFFCURVE",
"733 390 OFFCURVE",
"733 553 CURVE SMOOTH",
"733 727 OFFCURVE",
"706 859 OFFCURVE",
"652 950 CURVE SMOOTH",
"613 1016 OFFCURVE",
"566 1049 OFFCURVE",
"511 1049 CURVE SMOOTH"
);
},
{
closed = 1;
nodes = (
"821 1557 LINE",
"819 1481 OFFCURVE",
"800 1420 OFFCURVE",
"765 1373 CURVE SMOOTH",
"710 1300 OFFCURVE",
"626 1264 OFFCURVE",
"513 1264 CURVE SMOOTH",
"391 1264 OFFCURVE",
"304 1306 OFFCURVE",
"251 1389 CURVE SMOOTH",
"223 1434 OFFCURVE",
"208 1490 OFFCURVE",
"206 1557 CURVE",
"303 1557 LINE",
"318 1444 OFFCURVE",
"388 1387 OFFCURVE",
"514 1387 CURVE SMOOTH",
"639 1387 OFFCURVE",
"709 1444 OFFCURVE",
"724 1557 CURVE"
);
}
);
};
layerId = "4E782664-D0D5-4FED-AFC2-B9212141A2ED";
paths = (
{
closed = 1;
nodes = (
"533 1147 OFFCURVE",
"379 1088 OFFCURVE",
"270 984 CURVE SMOOTH",
"161 879 OFFCURVE",
"98 732 OFFCURVE",
"98 557 CURVE SMOOTH",
"98 377 OFFCURVE",
"159 228 OFFCURVE",
"268 123 CURVE SMOOTH",
"376 18 OFFCURVE",
"530 -41 OFFCURVE",
"717 -41 CURVE SMOOTH",
"902 -41 OFFCURVE",
"1056 19 OFFCURVE",
"1165 124 CURVE SMOOTH",
"1274 229 OFFCURVE",
"1335 378 OFFCURVE",
"1335 557 CURVE SMOOTH",
"1335 732 OFFCURVE",
"1274 879 OFFCURVE",
"1164 984 CURVE SMOOTH",
"1054 1088 OFFCURVE",
"900 1147 OFFCURVE",
"717 1147 CURVE SMOOTH"
);
},
{
closed = 1;
nodes = (
"776 1038 OFFCURVE",
"827 1018 OFFCURVE",
"872 978 CURVE SMOOTH",
"960 898 OFFCURVE",
"1012 751 OFFCURVE",
"1012 559 CURVE SMOOTH",
"1012 462 OFFCURVE",
"1000 376 OFFCURVE",
"975 303 CURVE SMOOTH",
"926 156 OFFCURVE",
"834 72 OFFCURVE",
"717 72 CURVE SMOOTH",
"658 72 OFFCURVE",
"606 92 OFFCURVE",
"562 133 CURVE SMOOTH",
"473 213 OFFCURVE",
"422 364 OFFCURVE",
"422 559 CURVE SMOOTH",
"422 655 OFFCURVE",
"434 739 OFFCURVE",
"459 811 CURVE SMOOTH",
"508 954 OFFCURVE",
"600 1038 OFFCURVE",
"717 1038 CURVE SMOOTH"
);
},
{
closed = 1;
nodes = (
"396 1556 LINE",
"409 1491 OFFCURVE",
"432 1439 OFFCURVE",
"463 1398 CURVE SMOOTH",
"526 1316 OFFCURVE",
"617 1278 OFFCURVE",
"717 1278 CURVE SMOOTH",
"768 1278 OFFCURVE",
"815 1288 OFFCURVE",
"859 1307 CURVE SMOOTH",
"947 1346 OFFCURVE",
"1014 1427 OFFCURVE",
"1039 1556 CURVE",
"922 1556 LINE",
"887 1483 OFFCURVE",
"820 1434 OFFCURVE",
"715 1434 CURVE SMOOTH",
"611 1434 OFFCURVE",
"547 1483 OFFCURVE",
"512 1556 CURVE"
);
}
);
vertWidth = 2048;
width = 1434;
}
);
unicode = 014F;
},
{
color = 3;
glyphname = rcommaaccent;
lastChange = "2022-11-09 21:42:18 +0000";
layers = (
{
background = {
paths = (
{
closed = 1;
nodes = (
"231 70 LINE",
"231 144 LINE",
"278 150 OFFCURVE",
"309 161 OFFCURVE",
"325 176 CURVE SMOOTH",
"340 191 OFFCURVE",
"348 222 OFFCURVE",
"348 267 CURVE SMOOTH",
"348 928 LINE SMOOTH",
"348 968 OFFCURVE",
"340 995 OFFCURVE",
"323 1010 CURVE SMOOTH",
"309 1022 OFFCURVE",
"279 1029 OFFCURVE",
"233 1032 CURVE",
"233 1106 LINE",
"304 1106 OFFCURVE",
"384 1120 OFFCURVE",
"471 1147 CURVE",
"471 926 LINE",
"501 996 OFFCURVE",
"537 1049 OFFCURVE",
"580 1085 CURVE SMOOTH",
"629 1126 OFFCURVE",
"679 1147 OFFCURVE",
"730 1147 CURVE SMOOTH",
"757 1147 OFFCURVE",
"783 1140 OFFCURVE",
"806 1126 CURVE SMOOTH",
"854 1097 OFFCURVE",
"878 1056 OFFCURVE",
"878 1003 CURVE SMOOTH",
"878 981 OFFCURVE",
"873 961 OFFCURVE",
"864 943 CURVE SMOOTH",
"845 907 OFFCURVE",
"815 889 OFFCURVE",
"773 889 CURVE SMOOTH",
"750 889 OFFCURVE",
"729 896 OFFCURVE",
"711 909 CURVE SMOOTH",
"685 928 OFFCURVE",
"672 954 OFFCURVE",
"672 985 CURVE SMOOTH",
"672 1006 OFFCURVE",
"681 1028 OFFCURVE",
"698 1049 CURVE",
"664 1036 OFFCURVE",
"630 1008 OFFCURVE",
"596 965 CURVE SMOOTH",
"547 902 OFFCURVE",
"508 832 OFFCURVE",
"479 756 CURVE",
"479 267 LINE SMOOTH",
"479 225 OFFCURVE",
"489 195 OFFCURVE",
"508 176 CURVE SMOOTH",
"523 161 OFFCURVE",
"555 150 OFFCURVE",
"604 144 CURVE",
"604 70 LINE"
);
},
{
closed = 1;
nodes = (
"356 -191 LINE",
"390 -171 OFFCURVE",
"408 -151 OFFCURVE",
"410 -130 CURVE",
"339 -130 OFFCURVE",
"290 -109 OFFCURVE",
"290 -56 CURVE SMOOTH",
"290 -6 OFFCURVE",
"335 21 OFFCURVE",
"399 21 CURVE SMOOTH",
"468 21 OFFCURVE",
"519 -10 OFFCURVE",
"519 -77 CURVE SMOOTH",
"519 -153 OFFCURVE",
"470 -199 OFFCURVE",
"397 -246 CURVE"
);
}
);
};
layerId = "4E782664-D0D5-4FED-AFC2-B9212141A2ED";
paths = (
{
closed = 1;
nodes = (
"537 1147 LINE",
"489 1138 OFFCURVE",
"438 1131 OFFCURVE",
"384 1125 CURVE SMOOTH",
"276 1112 OFFCURVE",
"165 1106 OFFCURVE",
"66 1106 CURVE",
"66 1010 LINE",
"133 1010 OFFCURVE",
"176 999 OFFCURVE",
"207 983 CURVE SMOOTH",
"244 963 OFFCURVE",
"250 930 OFFCURVE",
"250 838 CURVE SMOOTH",
"250 338 LINE SMOOTH",
"250 246 OFFCURVE",
"244 213 OFFCURVE",
"207 193 CURVE SMOOTH",
"176 176 OFFCURVE",
"133 166 OFFCURVE",
"66 166 CURVE",
"66 70 LINE",
"737 70 LINE",
"737 166 LINE",
"698 166 OFFCURVE",
"667 168 OFFCURVE",
"643 173 CURVE SMOOTH",
"595 181 OFFCURVE",
"561 198 OFFCURVE",
"551 239 CURVE SMOOTH",
"546 259 OFFCURVE",
"543 292 OFFCURVE",
"543 338 CURVE SMOOTH",
"543 707 LINE",
"575 794 OFFCURVE",
"621 859 OFFCURVE",
"676 920 CURVE SMOOTH",
"689 934 OFFCURVE",
"704 949 OFFCURVE",
"721 965 CURVE SMOOTH",
"756 996 OFFCURVE",
"795 1023 OFFCURVE",
"823 1024 CURVE",
"798 983 OFFCURVE",
"797 933 OFFCURVE",
"819 890 CURVE SMOOTH",
"841 847 OFFCURVE",
"885 817 OFFCURVE",
"952 817 CURVE SMOOTH",
"977 817 OFFCURVE",
"1001 824 OFFCURVE",
"1024 837 CURVE SMOOTH",
"1068 864 OFFCURVE",
"1098 911 OFFCURVE",
"1098 971 CURVE SMOOTH",
"1098 1002 OFFCURVE",
"1090 1030 OFFCURVE",
"1073 1057 CURVE SMOOTH",
"1040 1110 OFFCURVE",
"978 1147 OFFCURVE",
"895 1147 CURVE SMOOTH",
"815 1147 OFFCURVE",
"739 1116 OFFCURVE",
"682 1073 CURVE SMOOTH",
"635 1038 OFFCURVE",
"584 989 OFFCURVE",
"537 920 CURVE"
);
},
{
closed = 1;
nodes = (
"346 -211 LINE",
"386 -194 OFFCURVE",
"408 -178 OFFCURVE",
"410 -160 CURVE",
"298 -160 OFFCURVE",
"220 -136 OFFCURVE",
"220 -76 CURVE SMOOTH",
"220 -13 OFFCURVE",
"290 21 OFFCURVE",
"389 21 CURVE SMOOTH",
"493 21 OFFCURVE",
"569 -16 OFFCURVE",
"569 -97 CURVE SMOOTH",
"569 -164 OFFCURVE",
"520 -205 OFFCURVE",
"447 -246 CURVE"
);
}
);
vertWidth = 2048;
width = 1163;
}
);
unicode = 0157;
},
{
color = 3;
glyphname = longs;
lastChange = "2022-11-09 21:32:23 +0000";
layers = (
{
background = {
paths = (
{
closed = 1;
nodes = (
"94 74 LINE",
"175 77 OFFCURVE",
"227 90 OFFCURVE",
"251 113 CURVE SMOOTH",
"274 134 OFFCURVE",
"286 176 OFFCURVE",
"286 238 CURVE SMOOTH",
"286 1217 LINE SMOOTH",
"286 1334 OFFCURVE",
"319 1430 OFFCURVE",
"385 1506 CURVE SMOOTH",
"447 1577 OFFCURVE",
"532 1612 OFFCURVE",
"641 1612 CURVE SMOOTH",
"726 1612 OFFCURVE",
"796 1591 OFFCURVE",
"849 1550 CURVE SMOOTH",
"901 1511 OFFCURVE",
"927 1460 OFFCURVE",
"927 1399 CURVE SMOOTH",
"927 1378 OFFCURVE",
"922 1359 OFFCURVE",
"913 1342 CURVE SMOOTH",
"891 1302 OFFCURVE",
"858 1282 OFFCURVE",
"814 1282 CURVE SMOOTH",
"777 1282 OFFCURVE",
"748 1297 OFFCURVE",
"727 1328 CURVE SMOOTH",
"714 1347 OFFCURVE",
"708 1368 OFFCURVE",
"708 1393 CURVE SMOOTH",
"708 1435 OFFCURVE",
"726 1464 OFFCURVE",
"761 1479 CURVE",
"736 1504 OFFCURVE",
"698 1516 OFFCURVE",
"645 1516 CURVE SMOOTH",
"568 1516 OFFCURVE",
"510 1482 OFFCURVE",
"471 1413 CURVE SMOOTH",
"443 1362 OFFCURVE",
"429 1296 OFFCURVE",
"429 1215 CURVE SMOOTH",
"429 238 LINE SMOOTH",
"429 173 OFFCURVE",
"441 130 OFFCURVE",
"465 110 CURVE SMOOTH",
"488 90 OFFCURVE",
"539 78 OFFCURVE",
"617 74 CURVE",
"617 0 LINE",
"94 0 LINE"
);
}
);
};
layerId = "4E782664-D0D5-4FED-AFC2-B9212141A2ED";
paths = (
{
closed = 1;
nodes = (
"673 1622 OFFCURVE",
"622 1615 OFFCURVE",
"572 1602 CURVE SMOOTH",
"471 1574 OFFCURVE",
"410 1515 OFFCURVE",
"366 1447 CURVE SMOOTH",
"321 1379 OFFCURVE",
"293 1287 OFFCURVE",
"293 1159 CURVE",
"293 268 LINE",
"293 222 OFFCURVE",
"291 189 OFFCURVE",
"286 169 CURVE SMOOTH",
"281 148 OFFCURVE",
"269 133 OFFCURVE",
"252 123 CURVE SMOOTH",
"223 105 OFFCURVE",
"178 96 OFFCURVE",
"119 96 CURVE",
"119 0 LINE",
"770 0 LINE",
"770 96 LINE",
"732 96 OFFCURVE",
"702 98 OFFCURVE",
"679 103 CURVE SMOOTH",
"633 111 OFFCURVE",
"598 128 OFFCURVE",
"588 169 CURVE SMOOTH",
"583 189 OFFCURVE",
"580 222 OFFCURVE",
"580 268 CURVE",
"580 1176 LINE SMOOTH",
"580 1219 OFFCURVE",
"581 1256 OFFCURVE",
"582 1287 CURVE SMOOTH",
"585 1349 OFFCURVE",
"594 1396 OFFCURVE",
"618 1440 CURVE SMOOTH",
"647 1489 OFFCURVE",
"684 1518 OFFCURVE",
"739 1518 CURVE SMOOTH",
"770 1518 OFFCURVE",
"801 1511 OFFCURVE",
"821 1491 CURVE",
"782 1470 OFFCURVE",
"766 1438 OFFCURVE",
"766 1386 CURVE SMOOTH",
"766 1368 OFFCURVE",
"771 1350 OFFCURVE",
"782 1332 CURVE SMOOTH",
"803 1296 OFFCURVE",
"844 1270 OFFCURVE",
"897 1270 CURVE SMOOTH",
"969 1270 OFFCURVE",
"1024 1324 OFFCURVE",
"1024 1405 CURVE SMOOTH",
"1024 1464 OFFCURVE",
"997 1513 OFFCURVE",
"958 1546 CURVE SMOOTH",
"893 1602 OFFCURVE",
"800 1622 OFFCURVE",
"725 1622 CURVE SMOOTH"
);
}
);
vertWidth = 2048;
width = 1044;
}
);
unicode = 017F;
},
{
color = 3;
glyphname = tbar;
lastChange = "2022-11-09 22:06:52 +0000";
layers = (
{
background = {
paths = (
{
closed = 1;
nodes = (
"463 1458 LINE",
"440 1377 OFFCURVE",
"396 1291 OFFCURVE",
"327 1222 CURVE SMOOTH",
"258 1153 OFFCURVE",
"164 1107 OFFCURVE",
"41 1106 CURVE",
"41 987 LINE",
"252 987 LINE",
"252 346 LINE SMOOTH",
"252 213 OFFCURVE",
"275 130 OFFCURVE",
"340 59 CURVE SMOOTH",
"387 8 OFFCURVE",
"479 -27 OFFCURVE",
"590 -27 CURVE SMOOTH",
"735 -27 OFFCURVE",
"850 35 OFFCURVE",
"942 135 CURVE",
"879 244 LINE",
"831 184 OFFCURVE",
"758 141 OFFCURVE",
"694 141 CURVE SMOOTH",
"662 141 OFFCURVE",
"618 151 OFFCURVE",
"590 176 CURVE SMOOTH",
"561 203 OFFCURVE",
"547 237 OFFCURVE",
"547 322 CURVE SMOOTH",
"547 987 LINE",
"893 987 LINE",
"893 1106 LINE",
"547 1106 LINE",
"547 1458 LINE"
);
},
{
closed = 1;
nodes = (
"893 579 LINE",
"893 698 LINE",
"41 698 LINE",
"41 579 LINE"
);
}
);
};
layerId = "4E782664-D0D5-4FED-AFC2-B9212141A2ED";
paths = (
{
closed = 1;
nodes = (
"831 184 OFFCURVE",
"758 141 OFFCURVE",
"694 141 CURVE SMOOTH",
"662 141 OFFCURVE",
"618 151 OFFCURVE",
"590 176 CURVE SMOOTH",
"561 203 OFFCURVE",
"547 237 OFFCURVE",
"547 322 CURVE SMOOTH",
"547 579 LINE",
"893 579 LINE",
"893 698 LINE",
"547 698 LINE",
"547 987 LINE",
"893 987 LINE",
"893 1106 LINE",
"547 1106 LINE",
"547 1458 LINE",
"463 1458 LINE",
"440 1377 OFFCURVE",
"396 1291 OFFCURVE",
"327 1222 CURVE SMOOTH",
"258 1153 OFFCURVE",
"164 1107 OFFCURVE",
"41 1106 CURVE",
"41 987 LINE",
"252 987 LINE",
"252 698 LINE",
"41 698 LINE",
"41 579 LINE",
"252 579 LINE",
"252 346 LINE SMOOTH",
"252 213 OFFCURVE",
"275 130 OFFCURVE",
"340 59 CURVE SMOOTH",
"387 8 OFFCURVE",
"479 -27 OFFCURVE",
"590 -27 CURVE SMOOTH",
"735 -27 OFFCURVE",
"850 35 OFFCURVE",
"942 135 CURVE",
"879 244 LINE"
);
}
);
vertWidth = 2048;
width = 1004;
}
);
unicode = 0167;
},
{
color = 3;
glyphname = uogonek;
lastChange = "2022-11-09 22:06:57 +0000";
layers = (
{
background = {
paths = (
{
closed = 1;
nodes = (
"504 1147 LINE",
"454 1138 OFFCURVE",
"402 1131 OFFCURVE",
"347 1125 CURVE SMOOTH",
"237 1112 OFFCURVE",
"125 1106 OFFCURVE",
"29 1106 CURVE",
"29 1010 LINE",
"90 1010 OFFCURVE",
"135 1001 OFFCURVE",
"166 983 CURVE SMOOTH",
"183 973 OFFCURVE",
"195 958 OFFCURVE",
"201 938 CURVE SMOOTH",
"206 917 OFFCURVE",
"209 884 OFFCURVE",
"209 838 CURVE SMOOTH",
"209 483 LINE SMOOTH",
"209 408 OFFCURVE",
"219 346 OFFCURVE",
"238 297 CURVE SMOOTH",
"276 198 OFFCURVE",
"331 144 OFFCURVE",
"390 113 CURVE SMOOTH",
"449 82 OFFCURVE",
"511 71 OFFCURVE",
"563 71 CURVE SMOOTH",
"672 71 OFFCURVE",
"757 97 OFFCURVE",
"822 135 CURVE SMOOTH",
"887 173 OFFCURVE",
"935 219 OFFCURVE",
"971 260 CURVE",
"987 110 LINE",
"1430 110 LINE",
"1430 206 LINE",
"1403 206 OFFCURVE",
"1379 208 OFFCURVE",
"1358 213 CURVE SMOOTH",
"1314 221 OFFCURVE",
"1278 238 OFFCURVE",
"1268 279 CURVE SMOOTH",
"1263 300 OFFCURVE",
"1260 333 OFFCURVE",
"1260 380 CURVE SMOOTH",
"1260 1147 LINE",
"1209 1138 OFFCURVE",
"1156 1131 OFFCURVE",
"1101 1125 CURVE SMOOTH",
"990 1112 OFFCURVE",
"878 1106 OFFCURVE",
"778 1106 CURVE",
"778 1010 LINE",
"812 1010 OFFCURVE",
"840 1008 OFFCURVE",
"863 1004 CURVE SMOOTH",
"908 995 OFFCURVE",
"946 978 OFFCURVE",
"956 937 CURVE SMOOTH",
"961 916 OFFCURVE",
"963 882 OFFCURVE",
"963 834 CURVE SMOOTH",
"963 452 LINE",
"951 417 OFFCURVE",
"931 385 OFFCURVE",
"904 356 CURVE SMOOTH",
"849 296 OFFCURVE",
"776 257 OFFCURVE",
"705 257 CURVE SMOOTH",
"660 257 OFFCURVE",
"610 268 OFFCURVE",
"569 309 CURVE SMOOTH",
"530 348 OFFCURVE",
"504 417 OFFCURVE",
"504 544 CURVE SMOOTH"
);
},
{
closed = 1;
nodes = (
"1020 144 OFFCURVE",
"943 104 OFFCURVE",
"882 44 CURVE SMOOTH",
"846 8 OFFCURVE",
"822 -35 OFFCURVE",
"822 -86 CURVE SMOOTH",
"822 -123 OFFCURVE",
"832 -153 OFFCURVE",
"853 -176 CURVE SMOOTH",
"893 -222 OFFCURVE",
"964 -242 OFFCURVE",
"1039 -242 CURVE SMOOTH",
"1078 -242 OFFCURVE",
"1113 -238 OFFCURVE",
"1143 -230 CURVE SMOOTH",
"1202 -215 OFFCURVE",
"1249 -185 OFFCURVE",
"1301 -141 CURVE",
"1270 -68 LINE",
"1211 -113 OFFCURVE",
"1160 -135 OFFCURVE",
"1104 -135 CURVE SMOOTH",
"1055 -135 OFFCURVE",
"1008 -114 OFFCURVE",
"1008 -53 CURVE SMOOTH",
"1008 -7 OFFCURVE",
"1038 78 OFFCURVE",
"1172 127 CURVE",
"1079 166 LINE"
);
}
);
};
layerId = "4E782664-D0D5-4FED-AFC2-B9212141A2ED";
paths = (
{
closed = 1;
nodes = (
"1430 206 LINE",
"1403 206 OFFCURVE",
"1379 208 OFFCURVE",
"1358 213 CURVE SMOOTH",
"1314 221 OFFCURVE",
"1278 238 OFFCURVE",
"1268 279 CURVE SMOOTH",
"1263 300 OFFCURVE",
"1260 333 OFFCURVE",
"1260 380 CURVE SMOOTH",
"1260 1147 LINE",
"1209 1138 OFFCURVE",
"1156 1131 OFFCURVE",
"1101 1125 CURVE SMOOTH",
"990 1112 OFFCURVE",
"878 1106 OFFCURVE",
"778 1106 CURVE",
"778 1010 LINE",
"812 1010 OFFCURVE",
"840 1008 OFFCURVE",
"863 1004 CURVE SMOOTH",
"908 995 OFFCURVE",
"946 978 OFFCURVE",
"956 937 CURVE SMOOTH",
"961 916 OFFCURVE",
"963 882 OFFCURVE",
"963 834 CURVE SMOOTH",
"963 452 LINE",
"951 417 OFFCURVE",
"931 385 OFFCURVE",
"904 356 CURVE SMOOTH",
"849 296 OFFCURVE",
"776 257 OFFCURVE",
"705 257 CURVE SMOOTH",
"660 257 OFFCURVE",
"610 268 OFFCURVE",
"569 309 CURVE SMOOTH",
"530 348 OFFCURVE",
"504 417 OFFCURVE",
"504 544 CURVE SMOOTH",
"504 1147 LINE",
"454 1138 OFFCURVE",
"402 1131 OFFCURVE",
"347 1125 CURVE SMOOTH",
"237 1112 OFFCURVE",
"125 1106 OFFCURVE",
"29 1106 CURVE",
"29 1010 LINE",
"90 1010 OFFCURVE",
"135 1001 OFFCURVE",
"166 983 CURVE SMOOTH",
"183 973 OFFCURVE",
"195 958 OFFCURVE",
"201 938 CURVE SMOOTH",
"206 917 OFFCURVE",
"209 884 OFFCURVE",
"209 838 CURVE SMOOTH",
"209 483 LINE SMOOTH",
"209 408 OFFCURVE",
"219 346 OFFCURVE",
"238 297 CURVE SMOOTH",
"276 198 OFFCURVE",
"331 144 OFFCURVE",
"390 113 CURVE SMOOTH",
"449 82 OFFCURVE",
"511 71 OFFCURVE",
"563 71 CURVE SMOOTH",
"672 71 OFFCURVE",
"757 97 OFFCURVE",
"822 135 CURVE SMOOTH",
"887 173 OFFCURVE",
"935 219 OFFCURVE",
"971 260 CURVE",
"986 122 LINE",
"950 101 OFFCURVE",
"914 75 OFFCURVE",
"882 44 CURVE SMOOTH",
"846 8 OFFCURVE",
"822 -35 OFFCURVE",
"822 -86 CURVE SMOOTH",
"822 -123 OFFCURVE",
"832 -153 OFFCURVE",
"853 -176 CURVE SMOOTH",
"893 -222 OFFCURVE",
"964 -242 OFFCURVE",
"1039 -242 CURVE SMOOTH",
"1078 -242 OFFCURVE",
"1113 -238 OFFCURVE",
"1143 -230 CURVE SMOOTH",
"1202 -215 OFFCURVE",
"1249 -185 OFFCURVE",
"1301 -141 CURVE",
"1270 -68 LINE",
"1211 -113 OFFCURVE",
"1160 -135 OFFCURVE",
"1104 -135 CURVE SMOOTH",
"1055 -135 OFFCURVE",
"1008 -114 OFFCURVE",
"1008 -53 CURVE SMOOTH",
"1008 -12 OFFCURVE",
"1032 60 OFFCURVE",
"1132 110 CURVE",
"1430 110 LINE"
);
}
);
vertWidth = 2048;
width = 1475;
}
);
unicode = 0173;
},
{
color = 3;
glyphname = utilde;
lastChange = "2022-11-09 21:40:52 +0000";
layers = (
{
background = {
paths = (
{
closed = 1;
nodes = (
"720 0 LINE",
"700 141 LINE",
"679 80 OFFCURVE",
"646 33 OFFCURVE",
"600 0 CURVE SMOOTH",
"561 -27 OFFCURVE",
"516 -41 OFFCURVE",
"466 -41 CURVE SMOOTH",
"385 -41 OFFCURVE",
"319 -3 OFFCURVE",
"268 74 CURVE SMOOTH",
"229 133 OFFCURVE",
"209 229 OFFCURVE",
"209 360 CURVE SMOOTH",
"209 928 LINE SMOOTH",
"209 962 OFFCURVE",
"201 987 OFFCURVE",
"184 1002 CURVE SMOOTH",
"171 1013 OFFCURVE",
"141 1023 OFFCURVE",
"92 1032 CURVE",
"92 1106 LINE",
"171 1107 OFFCURVE",
"253 1120 OFFCURVE",
"338 1147 CURVE",
"338 367 LINE SMOOTH",
"338 174 OFFCURVE",
"386 78 OFFCURVE",
"483 78 CURVE SMOOTH",
"523 78 OFFCURVE",
"562 99 OFFCURVE",
"599 140 CURVE SMOOTH",
"639 185 OFFCURVE",
"669 247 OFFCURVE",
"690 326 CURVE",
"690 928 LINE SMOOTH",
"690 965 OFFCURVE",
"682 992 OFFCURVE",
"665 1008 CURVE SMOOTH",
"653 1020 OFFCURVE",
"625 1028 OFFCURVE",
"581 1032 CURVE",
"581 1106 LINE",
"663 1107 OFFCURVE",
"743 1120 OFFCURVE",
"821 1147 CURVE",
"821 227 LINE SMOOTH",
"821 171 OFFCURVE",
"828 132 OFFCURVE",
"841 111 CURVE SMOOTH",
"854 90 OFFCURVE",
"881 77 OFFCURVE",
"921 74 CURVE",
"921 0 LINE"
);
},
{
closed = 1;
nodes = (
"160 1368 LINE",
"223 1476 OFFCURVE",
"296 1530 OFFCURVE",
"381 1530 CURVE SMOOTH",
"432 1530 OFFCURVE",
"486 1511 OFFCURVE",
"541 1474 CURVE SMOOTH",
"582 1446 OFFCURVE",
"623 1432 OFFCURVE",
"663 1432 CURVE SMOOTH",
"728 1432 OFFCURVE",
"779 1461 OFFCURVE",
"817 1518 CURVE",
"864 1458 LINE",
"801 1351 OFFCURVE",
"728 1297 OFFCURVE",
"644 1297 CURVE SMOOTH",
"593 1297 OFFCURVE",
"543 1313 OFFCURVE",
"494 1346 CURVE SMOOTH",
"445 1379 OFFCURVE",
"400 1395 OFFCURVE",
"361 1395 CURVE SMOOTH",
"296 1395 OFFCURVE",
"245 1366 OFFCURVE",
"207 1309 CURVE"
);
}
);
};
layerId = "4E782664-D0D5-4FED-AFC2-B9212141A2ED";
paths = (
{
closed = 1;
nodes = (
"987 0 LINE",
"1430 0 LINE",
"1430 96 LINE",
"1381 97 OFFCURVE",
"1345 103 OFFCURVE",
"1320 112 CURVE SMOOTH",
"1270 131 OFFCURVE",
"1257 177 OFFCURVE",
"1260 270 CURVE",
"1260 1147 LINE",
"1213 1139 OFFCURVE",
"1162 1132 OFFCURVE",
"1106 1126 CURVE SMOOTH",
"994 1113 OFFCURVE",
"877 1106 OFFCURVE",
"778 1106 CURVE",
"778 1010 LINE",
"859 1009 OFFCURVE",
"907 1000 OFFCURVE",
"933 976 CURVE SMOOTH",
"959 951 OFFCURVE",
"966 907 OFFCURVE",
"963 834 CURVE",
"963 342 LINE",
"948 304 OFFCURVE",
"927 270 OFFCURVE",
"900 241 CURVE SMOOTH",
"845 182 OFFCURVE",
"776 147 OFFCURVE",
"705 147 CURVE SMOOTH",
"568 147 OFFCURVE",
"504 241 OFFCURVE",
"504 434 CURVE SMOOTH",
"504 1147 LINE",
"458 1139 OFFCURVE",
"408 1132 OFFCURVE",
"353 1126 CURVE SMOOTH",
"243 1113 OFFCURVE",
"128 1106 OFFCURVE",
"29 1106 CURVE",
"29 1010 LINE",
"80 1009 OFFCURVE",
"119 1003 OFFCURVE",
"145 994 CURVE SMOOTH",
"197 975 OFFCURVE",
"212 931 OFFCURVE",
"209 838 CURVE",
"209 373 LINE SMOOTH",
"209 288 OFFCURVE",
"223 215 OFFCURVE",
"252 154 CURVE SMOOTH",
"309 30 OFFCURVE",
"418 -39 OFFCURVE",
"563 -39 CURVE SMOOTH",
"731 -39 OFFCURVE",
"852 17 OFFCURVE",
"971 150 CURVE"
);
},
{
closed = 1;
nodes = (
"451 1333 LINE",
"481 1389 OFFCURVE",
"526 1417 OFFCURVE",
"586 1417 CURVE SMOOTH",
"637 1417 OFFCURVE",
"684 1405 OFFCURVE",
"729 1380 CURVE SMOOTH",
"792 1348 OFFCURVE",
"840 1333 OFFCURVE",
"907 1333 CURVE SMOOTH",
"983 1333 OFFCURVE",
"1067 1396 OFFCURVE",
"1120 1489 CURVE",
"1065 1591 LINE",
"1034 1535 OFFCURVE",
"989 1507 OFFCURVE",
"930 1507 CURVE SMOOTH",
"879 1507 OFFCURVE",
"835 1517 OFFCURVE",
"797 1538 CURVE SMOOTH",
"725 1579 OFFCURVE",
"679 1591 OFFCURVE",
"608 1591 CURVE SMOOTH",
"532 1591 OFFCURVE",
"450 1531 OFFCURVE",
"395 1436 CURVE"
);
}
);
vertWidth = 2048;
width = 1475;
}
);
unicode = 0169;
},
{
color = 3;
glyphname = wcircumflex;
lastChange = "2022-11-09 21:35:12 +0000";
layers = (
{
background = {
paths = (
{
closed = 1;
nodes = (
"35 1106 LINE",
"275 1106 LINE",
"275 1032 LINE",
"240 1019 OFFCURVE",
"222 997 OFFCURVE",
"222 968 CURVE SMOOTH",
"222 959 OFFCURVE",
"223 949 OFFCURVE",
"225 936 CURVE SMOOTH",
"352 244 LINE",
"361 244 LINE",
"465 1000 LINE",
"592 1000 LINE",
"705 244 LINE",
"713 244 LINE",
"821 938 LINE SMOOTH",
"823 953 OFFCURVE",
"825 965 OFFCURVE",
"825 972 CURVE SMOOTH",
"825 1009 OFFCURVE",
"808 1029 OFFCURVE",
"774 1032 CURVE",
"774 1106 LINE",
"985 1106 LINE",
"985 1032 LINE",
"983 1031 OFFCURVE",
"981 1031 OFFCURVE",
"980 1030 CURVE",
"954 1017 OFFCURVE",
"937 1003 OFFCURVE",
"930 989 CURVE SMOOTH",
"923 977 OFFCURVE",
"918 959 OFFCURVE",
"914 934 CURVE SMOOTH",
"750 -20 LINE",
"641 -20 LINE",
"518 739 LINE",
"510 739 LINE",
"402 -20 LINE",
"297 -20 LINE",
"98 936 LINE SMOOTH",
"87 991 OFFCURVE",
"66 1023 OFFCURVE",
"35 1032 CURVE"
);
},
{
closed = 1;
nodes = (
"446 1573 LINE",
"613 1573 LINE",
"874 1270 LINE",
"747 1270 LINE",
"529 1460 LINE",
"312 1270 LINE",
"185 1270 LINE"
);
}
);
};
layerId = "4E782664-D0D5-4FED-AFC2-B9212141A2ED";
paths = (
{
closed = 1;
nodes = (
"12 1106 LINE",
"12 1012 LINE",
"51 1008 OFFCURVE",
"94 995 OFFCURVE",
"119 975 CURVE SMOOTH",
"152 948 OFFCURVE",
"183 906 OFFCURVE",
"219 815 CURVE SMOOTH",
"547 -20 LINE",
"731 -20 LINE",
"965 684 LINE",
"973 684 LINE",
"1212 -20 LINE",
"1389 -20 LINE",
"1673 713 LINE SMOOTH",
"1694 767 OFFCURVE",
"1711 810 OFFCURVE",
"1724 842 CURVE SMOOTH",
"1749 905 OFFCURVE",
"1769 938 OFFCURVE",
"1798 963 CURVE SMOOTH",
"1829 990 OFFCURVE",
"1876 1010 OFFCURVE",
"1913 1010 CURVE",
"1913 1106 LINE",
"1448 1106 LINE",
"1448 1010 LINE",
"1489 1005 OFFCURVE",
"1522 997 OFFCURVE",
"1546 988 CURVE SMOOTH",
"1593 968 OFFCURVE",
"1610 930 OFFCURVE",
"1595 863 CURVE SMOOTH",
"1588 829 OFFCURVE",
"1574 784 OFFCURVE",
"1552 727 CURVE SMOOTH",
"1399 328 LINE",
"1389 328 LINE",
"1155 1004 LINE",
"940 1004 LINE",
"723 328 LINE",
"715 328 LINE",
"541 793 LINE SMOOTH",
"513 868 OFFCURVE",
"495 921 OFFCURVE",
"504 954 CURVE SMOOTH",
"513 987 OFFCURVE",
"551 1006 OFFCURVE",
"616 1010 CURVE",
"616 1106 LINE"
);
},
{
closed = 1;
nodes = (
"922 1593 LINE",
"662 1290 LINE",
"820 1290 LINE",
"1027 1460 LINE",
"1234 1290 LINE",
"1391 1290 LINE",
"1131 1593 LINE"
);
}
);
vertWidth = 2048;
width = 1925;
}
);
unicode = 0175;
},
{
color = 3;
glyphname = ycircumflex;
lastChange = "2022-11-09 21:35:06 +0000";
layers = (
{
background = {
paths = (
{
closed = 1;
nodes = (
"84 1106 LINE",
"428 1106 LINE",
"428 1032 LINE",
"371 1026 OFFCURVE",
"342 1010 OFFCURVE",
"342 984 CURVE SMOOTH",
"342 971 OFFCURVE",
"347 953 OFFCURVE",
"354 930 CURVE SMOOTH",
"555 299 LINE",
"725 893 LINE SMOOTH",
"734 926 OFFCURVE",
"739 952 OFFCURVE",
"739 973 CURVE SMOOTH",
"739 999 OFFCURVE",
"714 1023 OFFCURVE",
"660 1031 CURVE SMOOTH",
"653 1032 LINE",
"653 1106 LINE",
"950 1106 LINE",
"950 1032 LINE",
"921 1025 OFFCURVE",
"900 1016 OFFCURVE",
"887 1004 CURVE SMOOTH",
"868 988 OFFCURVE",
"850 950 OFFCURVE",
"832 891 CURVE SMOOTH",
"573 57 LINE SMOOTH",
"542 -43 OFFCURVE",
"509 -117 OFFCURVE",
"472 -164 CURVE SMOOTH",
"431 -217 OFFCURVE",
"377 -244 OFFCURVE",
"312 -244 CURVE SMOOTH",
"241 -244 OFFCURVE",
"187 -215 OFFCURVE",
"152 -157 CURVE SMOOTH",
"135 -130 OFFCURVE",
"126 -102 OFFCURVE",
"126 -73 CURVE SMOOTH",
"126 -42 OFFCURVE",
"134 -17 OFFCURVE",
"150 2 CURVE SMOOTH",
"170 27 OFFCURVE",
"197 39 OFFCURVE",
"231 39 CURVE SMOOTH",
"267 39 OFFCURVE",
"295 24 OFFCURVE",
"316 -7 CURVE SMOOTH",
"328 -25 OFFCURVE",
"334 -45 OFFCURVE",
"334 -67 CURVE SMOOTH",
"334 -102 OFFCURVE",
"320 -132 OFFCURVE",
"291 -156 CURVE",
"338 -153 OFFCURVE",
"374 -132 OFFCURVE",
"399 -95 CURVE SMOOTH",
"422 -62 OFFCURVE",
"444 -10 OFFCURVE",
"465 61 CURVE SMOOTH",
"483 123 LINE",
"209 938 LINE SMOOTH",
"191 991 OFFCURVE",
"149 1022 OFFCURVE",
"84 1032 CURVE"
);
},
{
closed = 1;
nodes = (
"456 1573 LINE",
"623 1573 LINE",
"884 1270 LINE",
"757 1270 LINE",
"539 1460 LINE",
"322 1270 LINE",
"195 1270 LINE"
);
}
);
};
layerId = "4E782664-D0D5-4FED-AFC2-B9212141A2ED";
paths = (
{
closed = 1;
nodes = (
"16 1106 LINE",
"16 1010 LINE",
"63 1009 OFFCURVE",
"106 991 OFFCURVE",
"141 971 CURVE SMOOTH",
"174 952 OFFCURVE",
"209 905 OFFCURVE",
"238 854 CURVE SMOOTH",
"637 150 LINE",
"598 76 LINE SMOOTH",
"532 -49 OFFCURVE",
"452 -112 OFFCURVE",
"389 -127 CURVE",
"414 -98 OFFCURVE",
"426 -70 OFFCURVE",
"426 -31 CURVE SMOOTH",
"426 -7 OFFCURVE",
"419 15 OFFCURVE",
"406 35 CURVE SMOOTH",
"378 75 OFFCURVE",
"334 100 OFFCURVE",
"287 100 CURVE SMOOTH",
"238 100 OFFCURVE",
"201 82 OFFCURVE",
"176 51 CURVE SMOOTH",
"159 27 OFFCURVE",
"147 -6 OFFCURVE",
"147 -51 CURVE SMOOTH",
"147 -84 OFFCURVE",
"157 -116 OFFCURVE",
"176 -145 CURVE SMOOTH",
"215 -204 OFFCURVE",
"281 -242 OFFCURVE",
"356 -242 CURVE SMOOTH",
"414 -242 OFFCURVE",
"466 -228 OFFCURVE",
"512 -201 CURVE SMOOTH",
"604 -146 OFFCURVE",
"677 -50 OFFCURVE",
"737 57 CURVE SMOOTH",
"1110 721 LINE SMOOTH",
"1180 846 OFFCURVE",
"1220 920 OFFCURVE",
"1257 956 CURVE SMOOTH",
"1288 985 OFFCURVE",
"1333 1010 OFFCURVE",
"1384 1010 CURVE",
"1384 1106 LINE",
"893 1106 LINE",
"893 1010 LINE",
"914 1010 OFFCURVE",
"935 1007 OFFCURVE",
"956 1002 CURVE SMOOTH",
"997 990 OFFCURVE",
"1042 975 OFFCURVE",
"1042 920 CURVE SMOOTH",
"1042 872 OFFCURVE",
"1030 841 OFFCURVE",
"1004 793 CURVE SMOOTH",
"797 412 LINE",
"573 827 LINE",
"552 870 OFFCURVE",
"541 903 OFFCURVE",
"541 940 CURVE SMOOTH",
"541 965 OFFCURVE",
"557 982 OFFCURVE",
"582 991 CURVE SMOOTH",
"609 1002 OFFCURVE",
"643 1010 OFFCURVE",
"686 1010 CURVE",
"686 1106 LINE"
);
},
{
closed = 1;
nodes = (
"672 1593 LINE",
"412 1290 LINE",
"570 1290 LINE",
"777 1460 LINE",
"984 1290 LINE",
"1141 1290 LINE",
"881 1593 LINE"
);
}
);
vertWidth = 2048;
width = 1311;
}
);
unicode = 0177;
},
{
color = 3;
glyphname = fi;
lastChange = "2022-11-09 22:21:47 +0000";
layers = (
{
background = {
paths = (
{
closed = 1;
nodes = (
"473 1622 OFFCURVE",
"293 1443 OFFCURVE",
"293 1159 CURVE SMOOTH",
"293 1106 LINE",
"47 1106 LINE",
"47 987 LINE",
"293 987 LINE",
"293 268 LINE SMOOTH",
"293 129 OFFCURVE",
"267 96 OFFCURVE",
"119 96 CURVE",
"119 0 LINE",
"710 0 LINE",
"710 96 LINE",
"603 96 OFFCURVE",
"580 118 OFFCURVE",
"580 268 CURVE SMOOTH",
"580 987 LINE",
"903 987 LINE",
"903 1106 LINE",
"580 1106 LINE",
"580 1176 LINE SMOOTH",
"580 1362 OFFCURVE",
"614 1518 OFFCURVE",
"829 1518 CURVE SMOOTH",
"856 1518 OFFCURVE",
"883 1514 OFFCURVE",
"901 1501 CURVE",
"869 1474 OFFCURVE",
"856 1433 OFFCURVE",
"856 1366 CURVE SMOOTH",
"856 1268 OFFCURVE",
"927 1210 OFFCURVE",
"1047 1210 CURVE SMOOTH",
"1158 1210 OFFCURVE",
"1224 1268 OFFCURVE",
"1224 1365 CURVE SMOOTH",
"1224 1532 OFFCURVE",
"1021 1622 OFFCURVE",
"815 1622 CURVE SMOOTH"
);
},
{
closed = 1;
nodes = (
"1210 1147 LINE",
"1161 1138 OFFCURVE",
"1110 1131 OFFCURVE",
"1057 1125 CURVE SMOOTH",
"949 1112 OFFCURVE",
"840 1106 OFFCURVE",
"743 1106 CURVE",
"743 986 LINE",
"895 986 OFFCURVE",
"923 961 OFFCURVE",
"923 814 CURVE SMOOTH",
"923 274 LINE SMOOTH",
"923 123 OFFCURVE",
"899 96 OFFCURVE",
"784 96 CURVE",
"784 0 LINE",
"1402 0 LINE",
"1402 96 LINE",
"1246 96 OFFCURVE",
"1210 124 OFFCURVE",
"1210 274 CURVE SMOOTH"
);
}
);
};
layerId = "4E782664-D0D5-4FED-AFC2-B9212141A2ED";
paths = (
{
closed = 1;
nodes = (
"1161 1138 OFFCURVE",
"1110 1131 OFFCURVE",
"1057 1125 CURVE SMOOTH",
"949 1112 OFFCURVE",
"840 1106 OFFCURVE",
"743 1106 CURVE SMOOTH",
"580 1106 LINE",
"580 1176 LINE SMOOTH",
"580 1362 OFFCURVE",
"614 1518 OFFCURVE",
"829 1518 CURVE SMOOTH",
"856 1518 OFFCURVE",
"883 1514 OFFCURVE",
"901 1501 CURVE",
"869 1474 OFFCURVE",
"856 1433 OFFCURVE",
"856 1366 CURVE SMOOTH",
"856 1268 OFFCURVE",
"927 1210 OFFCURVE",
"1047 1210 CURVE SMOOTH",
"1158 1210 OFFCURVE",
"1224 1268 OFFCURVE",
"1224 1365 CURVE SMOOTH",
"1224 1532 OFFCURVE",
"1021 1622 OFFCURVE",
"815 1622 CURVE SMOOTH",
"473 1622 OFFCURVE",
"293 1443 OFFCURVE",
"293 1159 CURVE SMOOTH",
"293 1106 LINE",
"47 1106 LINE",
"47 987 LINE",
"293 987 LINE",
"293 268 LINE SMOOTH",
"293 129 OFFCURVE",
"267 96 OFFCURVE",
"119 96 CURVE",
"119 0 LINE",
"710 0 LINE",
"710 96 LINE",
"603 96 OFFCURVE",
"580 118 OFFCURVE",
"580 268 CURVE SMOOTH",
"580 987 LINE",
"743 987 LINE",
"743 986 LINE",
"895 986 OFFCURVE",
"923 961 OFFCURVE",
"923 814 CURVE SMOOTH",
"923 274 LINE SMOOTH",
"923 123 OFFCURVE",
"899 96 OFFCURVE",
"784 96 CURVE",
"784 0 LINE",
"1402 0 LINE",
"1402 96 LINE",
"1246 96 OFFCURVE",
"1210 124 OFFCURVE",
"1210 274 CURVE SMOOTH",
"1210 1147 LINE"
);
}
);
vertWidth = 2048;
width = 1460;
}
);
unicode = FB01;
},
{
color = 3;
glyphname = fl;
lastChange = "2022-11-09 22:21:53 +0000";
layers = (
{
background = {
paths = (
{
closed = 1;
nodes = (
"473 1622 OFFCURVE",
"293 1443 OFFCURVE",
"293 1159 CURVE SMOOTH",
"293 1106 LINE",
"47 1106 LINE",
"47 987 LINE",
"293 987 LINE",
"293 268 LINE SMOOTH",
"293 129 OFFCURVE",
"267 96 OFFCURVE",
"119 96 CURVE",
"119 0 LINE",
"710 0 LINE",
"710 96 LINE",
"603 96 OFFCURVE",
"580 118 OFFCURVE",
"580 268 CURVE SMOOTH",
"580 987 LINE",
"1003 987 LINE",
"1003 1106 LINE",
"580 1106 LINE",
"580 1176 LINE SMOOTH",
"580 1362 OFFCURVE",
"614 1518 OFFCURVE",
"829 1518 CURVE SMOOTH",
"894 1518 OFFCURVE",
"958 1514 OFFCURVE",
"1001 1501 CURVE",
"1220 1597 LINE",
"1133 1608 OFFCURVE",
"1021 1622 OFFCURVE",
"815 1622 CURVE SMOOTH"
);
},
{
closed = 1;
nodes = (
"1220 1597 LINE",
"1169 1588 OFFCURVE",
"1116 1581 OFFCURVE",
"1061 1575 CURVE SMOOTH",
"979 1566 OFFCURVE",
"898 1556 OFFCURVE",
"828 1556 CURVE",
"828 1518 LINE",
"907 1518 OFFCURVE",
"923 1489 OFFCURVE",
"923 1346 CURVE SMOOTH",
"923 268 LINE SMOOTH",
"923 125 OFFCURVE",
"903 96 OFFCURVE",
"797 96 CURVE",
"797 0 LINE",
"1400 0 LINE",
"1400 96 LINE",
"1251 96 OFFCURVE",
"1220 126 OFFCURVE",
"1220 268 CURVE SMOOTH"
);
}
);
};
layerId = "4E782664-D0D5-4FED-AFC2-B9212141A2ED";
paths = (
{
closed = 1;
nodes = (
"1133 1608 OFFCURVE",
"1021 1622 OFFCURVE",
"815 1622 CURVE SMOOTH",
"473 1622 OFFCURVE",
"293 1443 OFFCURVE",
"293 1159 CURVE SMOOTH",
"293 1106 LINE",
"47 1106 LINE",
"47 987 LINE",
"293 987 LINE",
"293 268 LINE SMOOTH",
"293 129 OFFCURVE",
"267 96 OFFCURVE",
"119 96 CURVE",
"119 0 LINE",
"710 0 LINE",
"710 96 LINE",
"603 96 OFFCURVE",
"580 118 OFFCURVE",
"580 268 CURVE SMOOTH",
"580 987 LINE",
"923 987 LINE",
"923 268 LINE SMOOTH",
"923 125 OFFCURVE",
"903 96 OFFCURVE",
"797 96 CURVE",
"797 0 LINE",
"1400 0 LINE",
"1400 96 LINE",
"1251 96 OFFCURVE",
"1220 126 OFFCURVE",
"1220 268 CURVE SMOOTH",
"1220 1597 LINE"
);
},
{
closed = 1;
nodes = (
"580 1362 OFFCURVE",
"614 1518 OFFCURVE",
"829 1518 CURVE SMOOTH",
"907 1518 OFFCURVE",
"923 1489 OFFCURVE",
"923 1346 CURVE SMOOTH",
"923 1106 LINE",
"580 1106 LINE",
"580 1176 LINE SMOOTH"
);
}
);
vertWidth = 2048;
width = 1486;
}
);
unicode = FB02;
},
{
color = 4;
glyphname = "Gje-cy";
lastChange = "2022-11-09 03:54:43 +0000";
layers = (
{
layerId = "4E782664-D0D5-4FED-AFC2-B9212141A2ED";
paths = (
{
closed = 1;
nodes = (
"360 1456 LINE",
"455 1455 OFFCURVE",
"510 1444 OFFCURVE",
"549 1413 CURVE SMOOTH",
"560 1404 OFFCURVE",
"569 1394 OFFCURVE",
"574 1383 CURVE SMOOTH",
"585 1359 OFFCURVE",
"588 1325 OFFCURVE",
"588 1262 CURVE SMOOTH",
"588 295 LINE SMOOTH",
"588 264 OFFCURVE",
"587 239 OFFCURVE",
"585 220 CURVE SMOOTH",
"581 182 OFFCURVE",
"572 162 OFFCURVE",
"549 143 CURVE SMOOTH",
"510 114 OFFCURVE",
"455 103 OFFCURVE",
"360 100 CURVE",
"360 0 LINE",
"1157 0 LINE",
"1157 100 LINE",
"1034 103 OFFCURVE",
"979 114 OFFCURVE",
"940 143 CURVE SMOOTH",
"929 152 OFFCURVE",
"921 163 OFFCURVE",
"916 174 CURVE SMOOTH",
"904 197 OFFCURVE",
"901 232 OFFCURVE",
"901 295 CURVE SMOOTH",
"901 1243 LINE SMOOTH",
"901 1274 OFFCURVE",
"902 1299 OFFCURVE",
"904 1318 CURVE SMOOTH",
"907 1354 OFFCURVE",
"917 1375 OFFCURVE",
"940 1395 CURVE SMOOTH",
"973 1423 OFFCURVE",
"1014 1430 OFFCURVE",
"1065 1430 CURVE SMOOTH",
"1145 1430 LINE SMOOTH",
"1184 1430 OFFCURVE",
"1237 1422 OFFCURVE",
"1293 1404 CURVE SMOOTH",
"1348 1386 OFFCURVE",
"1401 1358 OFFCURVE",
"1438 1321 CURVE SMOOTH",
"1499 1260 OFFCURVE",
"1542 1184 OFFCURVE",
"1571 1047 CURVE",
"1663 1047 LINE",
"1626 1556 LINE",
"360 1556 LINE"
);
}
);
vertWidth = 2048;
width = 2048;
}
);
unicode = 0403;
},
{
color = 4;
glyphname = "Gheupturn-cy";
lastChange = "2022-11-09 03:54:43 +0000";
layers = (
{
background = {
paths = (
{
closed = 1;
nodes = (
"907 1254 OFFCURVE",
"917 1275 OFFCURVE",
"940 1295 CURVE SMOOTH",
"973 1323 OFFCURVE",
"1014 1330 OFFCURVE",
"1065 1330 CURVE SMOOTH",
"1626 1330 LINE",
"1663 1802 LINE",
"1571 1802 LINE",
"1518 1588 OFFCURVE",
"1398 1456 OFFCURVE",
"1145 1456 CURVE SMOOTH",
"360 1456 LINE",
"360 1356 LINE",
"455 1355 OFFCURVE",
"510 1344 OFFCURVE",
"549 1313 CURVE SMOOTH",
"560 1304 OFFCURVE",
"569 1294 OFFCURVE",
"574 1283 CURVE SMOOTH",
"585 1259 OFFCURVE",
"588 1225 OFFCURVE",
"588 1162 CURVE SMOOTH",
"588 295 LINE SMOOTH",
"588 264 OFFCURVE",
"587 239 OFFCURVE",
"585 220 CURVE SMOOTH",
"581 182 OFFCURVE",
"572 162 OFFCURVE",
"549 143 CURVE SMOOTH",
"510 114 OFFCURVE",
"455 103 OFFCURVE",
"360 100 CURVE",
"360 0 LINE",
"1157 0 LINE",
"1157 100 LINE",
"1034 103 OFFCURVE",
"979 114 OFFCURVE",
"940 143 CURVE SMOOTH",
"929 152 OFFCURVE",
"921 163 OFFCURVE",
"916 174 CURVE SMOOTH",
"904 197 OFFCURVE",
"901 232 OFFCURVE",
"901 295 CURVE SMOOTH",
"901 1143 LINE SMOOTH",
"901 1174 OFFCURVE",
"902 1199 OFFCURVE",
"904 1218 CURVE SMOOTH"
);
}
);
};
layerId = "4E782664-D0D5-4FED-AFC2-B9212141A2ED";
paths = (
{
closed = 1;
nodes = (
"907 1254 OFFCURVE",
"917 1275 OFFCURVE",
"940 1295 CURVE SMOOTH",
"973 1323 OFFCURVE",
"1014 1330 OFFCURVE",
"1065 1330 CURVE SMOOTH",
"1626 1330 LINE",
"1663 1802 LINE",
"1571 1802 LINE",
"1518 1588 OFFCURVE",
"1398 1456 OFFCURVE",
"1145 1456 CURVE SMOOTH",
"360 1456 LINE",
"360 1356 LINE",
"455 1355 OFFCURVE",
"510 1344 OFFCURVE",
"549 1313 CURVE SMOOTH",
"560 1304 OFFCURVE",
"569 1294 OFFCURVE",
"574 1283 CURVE SMOOTH",
"585 1259 OFFCURVE",
"588 1225 OFFCURVE",
"588 1162 CURVE SMOOTH",
"588 295 LINE SMOOTH",
"588 264 OFFCURVE",
"587 239 OFFCURVE",
"585 220 CURVE SMOOTH",
"581 182 OFFCURVE",
"572 162 OFFCURVE",
"549 143 CURVE SMOOTH",
"510 114 OFFCURVE",
"455 103 OFFCURVE",
"360 100 CURVE",
"360 0 LINE",
"1157 0 LINE",
"1157 100 LINE",
"1034 103 OFFCURVE",
"979 114 OFFCURVE",
"940 143 CURVE SMOOTH",
"929 152 OFFCURVE",
"921 163 OFFCURVE",
"916 174 CURVE SMOOTH",
"904 197 OFFCURVE",
"901 232 OFFCURVE",
"901 295 CURVE SMOOTH",
"901 1143 LINE SMOOTH",
"901 1174 OFFCURVE",
"902 1199 OFFCURVE",
"904 1218 CURVE SMOOTH"
);
}
);
vertWidth = 2048;
width = 2048;
}
);
unicode = 0490;
},
{
color = 4;
glyphname = "Kje-cy";
lastChange = "2022-11-09 03:54:43 +0000";
layers = (
{
background = {
paths = (
{
closed = 1;
nodes = (
"1193 913 OFFCURVE",
"1225 1002 OFFCURVE",
"1262 1123 CURVE SMOOTH",
"1294 1231 OFFCURVE",
"1333 1293 OFFCURVE",
"1370 1330 CURVE SMOOTH",
"1413 1375 OFFCURVE",
"1464 1395 OFFCURVE",
"1511 1383 CURVE",
"1491 1358 OFFCURVE",
"1477 1319 OFFCURVE",
"1477 1284 CURVE SMOOTH",
"1477 1260 OFFCURVE",
"1483 1238 OFFCURVE",
"1496 1218 CURVE SMOOTH",
"1521 1177 OFFCURVE",
"1568 1151 OFFCURVE",
"1624 1151 CURVE SMOOTH",
"1708 1151 OFFCURVE",
"1769 1212 OFFCURVE",
"1769 1305 CURVE SMOOTH",
"1769 1342 OFFCURVE",
"1758 1376 OFFCURVE",
"1737 1405 CURVE SMOOTH",
"1693 1463 OFFCURVE",
"1619 1499 OFFCURVE",
"1532 1499 CURVE SMOOTH",
"1471 1499 OFFCURVE",
"1414 1488 OFFCURVE",
"1362 1465 CURVE SMOOTH",
"1258 1420 OFFCURVE",
"1176 1318 OFFCURVE",
"1124 1135 CURVE SMOOTH",
"1088 1004 OFFCURVE",
"1043 917 OFFCURVE",
"986 862 CURVE SMOOTH",
"929 806 OFFCURVE",
"859 780 OFFCURVE",
"768 768 CURVE",
"768 1162 LINE SMOOTH",
"768 1193 OFFCURVE",
"769 1218 OFFCURVE",
"771 1237 CURVE SMOOTH",
"775 1274 OFFCURVE",
"786 1296 OFFCURVE",
"807 1313 CURVE SMOOTH",
"846 1344 OFFCURVE",
"902 1355 OFFCURVE",
"967 1356 CURVE",
"967 1456 LINE",
"227 1456 LINE",
"227 1356 LINE",
"322 1355 OFFCURVE",
"377 1344 OFFCURVE",
"416 1313 CURVE SMOOTH",
"427 1304 OFFCURVE",
"436 1294 OFFCURVE",
"441 1283 CURVE SMOOTH",
"452 1259 OFFCURVE",
"455 1225 OFFCURVE",
"455 1162 CURVE SMOOTH",
"455 299 LINE SMOOTH",
"455 268 OFFCURVE",
"454 243 OFFCURVE",
"452 224 CURVE SMOOTH",
"448 186 OFFCURVE",
"439 166 OFFCURVE",
"416 147 CURVE SMOOTH",
"379 118 OFFCURVE",
"322 103 OFFCURVE",
"227 100 CURVE",
"227 0 LINE",
"975 0 LINE",
"975 100 LINE",
"902 103 OFFCURVE",
"844 118 OFFCURVE",
"807 147 CURVE SMOOTH",
"796 156 OFFCURVE",
"788 167 OFFCURVE",
"783 178 CURVE SMOOTH",
"771 201 OFFCURVE",
"768 236 OFFCURVE",
"768 299 CURVE SMOOTH",
"768 641 LINE",
"926 662 OFFCURVE",
"1022 704 OFFCURVE",
"1125 830 CURVE SMOOTH"
);
},
{
closed = 1;
nodes = (
"1223 264 LINE SMOOTH",
"1237 244 OFFCURVE",
"1249 228 OFFCURVE",
"1257 216 CURVE SMOOTH",
"1273 191 OFFCURVE",
"1280 177 OFFCURVE",
"1280 160 CURVE SMOOTH",
"1280 141 OFFCURVE",
"1278 129 OFFCURVE",
"1255 117 CURVE SMOOTH",
"1234 104 OFFCURVE",
"1192 100 OFFCURVE",
"1159 100 CURVE",
"1159 0 LINE",
"1872 0 LINE",
"1872 98 LINE",
"1861 100 OFFCURVE",
"1844 104 OFFCURVE",
"1822 109 CURVE SMOOTH",
"1777 119 OFFCURVE",
"1751 139 OFFCURVE",
"1724 160 CURVE SMOOTH",
"1697 180 OFFCURVE",
"1667 213 OFFCURVE",
"1624 272 CURVE SMOOTH",
"1154 915 LINE",
"893 735 LINE"
);
},
{
closed = 1;
nodes = (
"1217 1802 LINE",
"795 1595 LINE",
"858 1501 LINE",
"1339 1589 LINE"
);
}
);
};
layerId = "4E782664-D0D5-4FED-AFC2-B9212141A2ED";
paths = (
{
closed = 1;
nodes = (
"795 1595 LINE",
"858 1501 LINE",
"1339 1589 LINE",
"1217 1802 LINE"
);
},
{
closed = 1;
nodes = (
"1777 119 OFFCURVE",
"1751 139 OFFCURVE",
"1724 160 CURVE SMOOTH",
"1697 180 OFFCURVE",
"1667 213 OFFCURVE",
"1624 272 CURVE SMOOTH",
"1170 893 LINE",
"1209 959 OFFCURVE",
"1234 1032 OFFCURVE",
"1262 1123 CURVE SMOOTH",
"1294 1231 OFFCURVE",
"1333 1293 OFFCURVE",
"1370 1330 CURVE SMOOTH",
"1413 1375 OFFCURVE",
"1464 1395 OFFCURVE",
"1511 1383 CURVE",
"1491 1358 OFFCURVE",
"1477 1319 OFFCURVE",
"1477 1284 CURVE SMOOTH",
"1477 1260 OFFCURVE",
"1483 1238 OFFCURVE",
"1496 1218 CURVE SMOOTH",
"1521 1177 OFFCURVE",
"1568 1151 OFFCURVE",
"1624 1151 CURVE SMOOTH",
"1708 1151 OFFCURVE",
"1769 1212 OFFCURVE",
"1769 1305 CURVE SMOOTH",
"1769 1342 OFFCURVE",
"1758 1376 OFFCURVE",
"1737 1405 CURVE SMOOTH",
"1693 1463 OFFCURVE",
"1619 1499 OFFCURVE",
"1532 1499 CURVE SMOOTH",
"1471 1499 OFFCURVE",
"1414 1488 OFFCURVE",
"1362 1465 CURVE SMOOTH",
"1258 1420 OFFCURVE",
"1176 1318 OFFCURVE",
"1124 1135 CURVE SMOOTH",
"1088 1004 OFFCURVE",
"1043 917 OFFCURVE",
"986 862 CURVE SMOOTH",
"929 806 OFFCURVE",
"859 780 OFFCURVE",
"768 768 CURVE",
"768 1162 LINE SMOOTH",
"768 1193 OFFCURVE",
"769 1218 OFFCURVE",
"771 1237 CURVE SMOOTH",
"775 1274 OFFCURVE",
"786 1296 OFFCURVE",
"807 1313 CURVE SMOOTH",
"846 1344 OFFCURVE",
"902 1355 OFFCURVE",
"967 1356 CURVE",
"967 1456 LINE",
"227 1456 LINE",
"227 1356 LINE",
"322 1355 OFFCURVE",
"377 1344 OFFCURVE",
"416 1313 CURVE SMOOTH",
"427 1304 OFFCURVE",
"436 1294 OFFCURVE",
"441 1283 CURVE SMOOTH",
"452 1259 OFFCURVE",
"455 1225 OFFCURVE",
"455 1162 CURVE SMOOTH",
"455 299 LINE SMOOTH",
"455 268 OFFCURVE",
"454 243 OFFCURVE",
"452 224 CURVE SMOOTH",
"448 186 OFFCURVE",
"439 166 OFFCURVE",
"416 147 CURVE SMOOTH",
"379 118 OFFCURVE",
"322 103 OFFCURVE",
"227 100 CURVE",
"227 0 LINE",
"975 0 LINE",
"975 100 LINE",
"902 103 OFFCURVE",
"844 118 OFFCURVE",
"807 147 CURVE SMOOTH",
"796 156 OFFCURVE",
"788 167 OFFCURVE",
"783 178 CURVE SMOOTH",
"771 201 OFFCURVE",
"768 236 OFFCURVE",
"768 299 CURVE SMOOTH",
"768 641 LINE",
"831 649 OFFCURVE",
"884 661 OFFCURVE",
"932 680 CURVE",
"1223 264 LINE SMOOTH",
"1237 244 OFFCURVE",
"1249 228 OFFCURVE",
"1257 216 CURVE SMOOTH",
"1273 191 OFFCURVE",
"1280 177 OFFCURVE",
"1280 160 CURVE SMOOTH",
"1280 141 OFFCURVE",
"1278 129 OFFCURVE",
"1255 117 CURVE SMOOTH",
"1234 104 OFFCURVE",
"1192 100 OFFCURVE",
"1159 100 CURVE",
"1159 0 LINE",
"1872 0 LINE",
"1872 98 LINE",
"1861 100 OFFCURVE",
"1844 104 OFFCURVE",
"1822 109 CURVE SMOOTH"
);
}
);
vertWidth = 2048;
width = 2048;
}
);
unicode = 040C;
},
